<?xml version="1.0" encoding="utf-8" standalone="no"?>
<!DOCTYPE svg PUBLIC "-//W3C//DTD SVG 1.1//EN"
  "http://www.w3.org/Graphics/SVG/1.1/DTD/svg11.dtd">
<!-- Created with matplotlib (http://matplotlib.org/) -->
<svg height="288pt" version="1.1" viewBox="0 0 432 288" width="432pt" xmlns="http://www.w3.org/2000/svg" xmlns:xlink="http://www.w3.org/1999/xlink">
 <defs>
  <style type="text/css">
*{stroke-linecap:butt;stroke-linejoin:round;}
  </style>
 </defs>
 <g id="figure_1">
  <g id="patch_1">
   <path d="M 0 288 
L 432 288 
L 432 0 
L 0 0 
z
" style="fill:#ffffff;"/>
  </g>
  <g id="axes_1">
   <g id="patch_2">
    <path d="M 33.8 260.2 
L 417.7 260.2 
L 417.7 26.8 
L 33.8 26.8 
z
" style="fill:#ffffff;"/>
   </g>
   <g id="matplotlib.axis_1">
    <g id="xtick_1">
     <g id="line2d_1">
      <defs>
       <path d="M 0 0 
L 0 3.5 
" id="ma8b27d8f33" style="stroke:#000000;stroke-width:0.8;"/>
      </defs>
      <g>
       <use style="stroke:#000000;stroke-width:0.8;" x="86.15" xlink:href="#ma8b27d8f33" y="260.2"/>
      </g>
     </g>
     <g id="text_1">
      <!-- −4 -->
      <defs>
       <path d="M 10.59375 35.5 
L 73.1875 35.5 
L 73.1875 27.203125 
L 10.59375 27.203125 
z
" id="DejaVuSans-2212"/>
       <path d="M 37.796875 64.3125 
L 12.890625 25.390625 
L 37.796875 25.390625 
z
M 35.203125 72.90625 
L 47.609375 72.90625 
L 47.609375 25.390625 
L 58.015625 25.390625 
L 58.015625 17.1875 
L 47.609375 17.1875 
L 47.609375 0 
L 37.796875 0 
L 37.796875 17.1875 
L 4.890625 17.1875 
L 4.890625 26.703125 
z
" id="DejaVuSans-34"/>
      </defs>
      <g transform="translate(78.778906 274.798437)scale(0.1 -0.1)">
       <use xlink:href="#DejaVuSans-2212"/>
       <use x="83.789062" xlink:href="#DejaVuSans-34"/>
      </g>
     </g>
    </g>
    <g id="xtick_2">
     <g id="line2d_2">
      <g>
       <use style="stroke:#000000;stroke-width:0.8;" x="155.95" xlink:href="#ma8b27d8f33" y="260.2"/>
      </g>
     </g>
     <g id="text_2">
      <!-- −2 -->
      <defs>
       <path d="M 19.1875 8.296875 
L 53.609375 8.296875 
L 53.609375 0 
L 7.328125 0 
L 7.328125 8.296875 
Q 12.9375 14.109375 22.625 23.890625 
Q 32.328125 33.6875 34.8125 36.53125 
Q 39.546875 41.84375 41.421875 45.53125 
Q 43.3125 49.21875 43.3125 52.78125 
Q 43.3125 58.59375 39.234375 62.25 
Q 35.15625 65.921875 28.609375 65.921875 
Q 23.96875 65.921875 18.8125 64.3125 
Q 13.671875 62.703125 7.8125 59.421875 
L 7.8125 69.390625 
Q 13.765625 71.78125 18.9375 73 
Q 24.125 74.21875 28.421875 74.21875 
Q 39.75 74.21875 46.484375 68.546875 
Q 53.21875 62.890625 53.21875 53.421875 
Q 53.21875 48.921875 51.53125 44.890625 
Q 49.859375 40.875 45.40625 35.40625 
Q 44.1875 33.984375 37.640625 27.21875 
Q 31.109375 20.453125 19.1875 8.296875 
z
" id="DejaVuSans-32"/>
      </defs>
      <g transform="translate(148.578906 274.798437)scale(0.1 -0.1)">
       <use xlink:href="#DejaVuSans-2212"/>
       <use x="83.789062" xlink:href="#DejaVuSans-32"/>
      </g>
     </g>
    </g>
    <g id="xtick_3">
     <g id="line2d_3">
      <g>
       <use style="stroke:#000000;stroke-width:0.8;" x="225.75" xlink:href="#ma8b27d8f33" y="260.2"/>
      </g>
     </g>
     <g id="text_3">
      <!-- 0 -->
      <defs>
       <path d="M 31.78125 66.40625 
Q 24.171875 66.40625 20.328125 58.90625 
Q 16.5 51.421875 16.5 36.375 
Q 16.5 21.390625 20.328125 13.890625 
Q 24.171875 6.390625 31.78125 6.390625 
Q 39.453125 6.390625 43.28125 13.890625 
Q 47.125 21.390625 47.125 36.375 
Q 47.125 51.421875 43.28125 58.90625 
Q 39.453125 66.40625 31.78125 66.40625 
z
M 31.78125 74.21875 
Q 44.046875 74.21875 50.515625 64.515625 
Q 56.984375 54.828125 56.984375 36.375 
Q 56.984375 17.96875 50.515625 8.265625 
Q 44.046875 -1.421875 31.78125 -1.421875 
Q 19.53125 -1.421875 13.0625 8.265625 
Q 6.59375 17.96875 6.59375 36.375 
Q 6.59375 54.828125 13.0625 64.515625 
Q 19.53125 74.21875 31.78125 74.21875 
z
" id="DejaVuSans-30"/>
      </defs>
      <g transform="translate(222.56875 274.798437)scale(0.1 -0.1)">
       <use xlink:href="#DejaVuSans-30"/>
      </g>
     </g>
    </g>
    <g id="xtick_4">
     <g id="line2d_4">
      <g>
       <use style="stroke:#000000;stroke-width:0.8;" x="295.55" xlink:href="#ma8b27d8f33" y="260.2"/>
      </g>
     </g>
     <g id="text_4">
      <!-- 2 -->
      <g transform="translate(292.36875 274.798437)scale(0.1 -0.1)">
       <use xlink:href="#DejaVuSans-32"/>
      </g>
     </g>
    </g>
    <g id="xtick_5">
     <g id="line2d_5">
      <g>
       <use style="stroke:#000000;stroke-width:0.8;" x="365.35" xlink:href="#ma8b27d8f33" y="260.2"/>
      </g>
     </g>
     <g id="text_5">
      <!-- 4 -->
      <g transform="translate(362.16875 274.798437)scale(0.1 -0.1)">
       <use xlink:href="#DejaVuSans-34"/>
      </g>
     </g>
    </g>
   </g>
   <g id="matplotlib.axis_2">
    <g id="ytick_1">
     <g id="line2d_6">
      <defs>
       <path d="M 0 0 
L -3.5 0 
" id="md5734eb488" style="stroke:#000000;stroke-width:0.8;"/>
      </defs>
      <g>
       <use style="stroke:#000000;stroke-width:0.8;" x="33.8" xlink:href="#md5734eb488" y="251.030277"/>
      </g>
     </g>
     <g id="text_6">
      <!-- 0.0 -->
      <defs>
       <path d="M 10.6875 12.40625 
L 21 12.40625 
L 21 0 
L 10.6875 0 
z
" id="DejaVuSans-2e"/>
      </defs>
      <g transform="translate(10.896875 254.829496)scale(0.1 -0.1)">
       <use xlink:href="#DejaVuSans-30"/>
       <use x="63.623047" xlink:href="#DejaVuSans-2e"/>
       <use x="95.410156" xlink:href="#DejaVuSans-30"/>
      </g>
     </g>
    </g>
    <g id="ytick_2">
     <g id="line2d_7">
      <g>
       <use style="stroke:#000000;stroke-width:0.8;" x="33.8" xlink:href="#md5734eb488" y="208.018166"/>
      </g>
     </g>
     <g id="text_7">
      <!-- 0.2 -->
      <g transform="translate(10.896875 211.817385)scale(0.1 -0.1)">
       <use xlink:href="#DejaVuSans-30"/>
       <use x="63.623047" xlink:href="#DejaVuSans-2e"/>
       <use x="95.410156" xlink:href="#DejaVuSans-32"/>
      </g>
     </g>
    </g>
    <g id="ytick_3">
     <g id="line2d_8">
      <g>
       <use style="stroke:#000000;stroke-width:0.8;" x="33.8" xlink:href="#md5734eb488" y="165.006055"/>
      </g>
     </g>
     <g id="text_8">
      <!-- 0.4 -->
      <g transform="translate(10.896875 168.805274)scale(0.1 -0.1)">
       <use xlink:href="#DejaVuSans-30"/>
       <use x="63.623047" xlink:href="#DejaVuSans-2e"/>
       <use x="95.410156" xlink:href="#DejaVuSans-34"/>
      </g>
     </g>
    </g>
    <g id="ytick_4">
     <g id="line2d_9">
      <g>
       <use style="stroke:#000000;stroke-width:0.8;" x="33.8" xlink:href="#md5734eb488" y="121.993945"/>
      </g>
     </g>
     <g id="text_9">
      <!-- 0.6 -->
      <defs>
       <path d="M 33.015625 40.375 
Q 26.375 40.375 22.484375 35.828125 
Q 18.609375 31.296875 18.609375 23.390625 
Q 18.609375 15.53125 22.484375 10.953125 
Q 26.375 6.390625 33.015625 6.390625 
Q 39.65625 6.390625 43.53125 10.953125 
Q 47.40625 15.53125 47.40625 23.390625 
Q 47.40625 31.296875 43.53125 35.828125 
Q 39.65625 40.375 33.015625 40.375 
z
M 52.59375 71.296875 
L 52.59375 62.3125 
Q 48.875 64.0625 45.09375 64.984375 
Q 41.3125 65.921875 37.59375 65.921875 
Q 27.828125 65.921875 22.671875 59.328125 
Q 17.53125 52.734375 16.796875 39.40625 
Q 19.671875 43.65625 24.015625 45.921875 
Q 28.375 48.1875 33.59375 48.1875 
Q 44.578125 48.1875 50.953125 41.515625 
Q 57.328125 34.859375 57.328125 23.390625 
Q 57.328125 12.15625 50.6875 5.359375 
Q 44.046875 -1.421875 33.015625 -1.421875 
Q 20.359375 -1.421875 13.671875 8.265625 
Q 6.984375 17.96875 6.984375 36.375 
Q 6.984375 53.65625 15.1875 63.9375 
Q 23.390625 74.21875 37.203125 74.21875 
Q 40.921875 74.21875 44.703125 73.484375 
Q 48.484375 72.75 52.59375 71.296875 
z
" id="DejaVuSans-36"/>
      </defs>
      <g transform="translate(10.896875 125.793163)scale(0.1 -0.1)">
       <use xlink:href="#DejaVuSans-30"/>
       <use x="63.623047" xlink:href="#DejaVuSans-2e"/>
       <use x="95.410156" xlink:href="#DejaVuSans-36"/>
      </g>
     </g>
    </g>
    <g id="ytick_5">
     <g id="line2d_10">
      <g>
       <use style="stroke:#000000;stroke-width:0.8;" x="33.8" xlink:href="#md5734eb488" y="78.981834"/>
      </g>
     </g>
     <g id="text_10">
      <!-- 0.8 -->
      <defs>
       <path d="M 31.78125 34.625 
Q 24.75 34.625 20.71875 30.859375 
Q 16.703125 27.09375 16.703125 20.515625 
Q 16.703125 13.921875 20.71875 10.15625 
Q 24.75 6.390625 31.78125 6.390625 
Q 38.8125 6.390625 42.859375 10.171875 
Q 46.921875 13.96875 46.921875 20.515625 
Q 46.921875 27.09375 42.890625 30.859375 
Q 38.875 34.625 31.78125 34.625 
z
M 21.921875 38.8125 
Q 15.578125 40.375 12.03125 44.71875 
Q 8.5 49.078125 8.5 55.328125 
Q 8.5 64.0625 14.71875 69.140625 
Q 20.953125 74.21875 31.78125 74.21875 
Q 42.671875 74.21875 48.875 69.140625 
Q 55.078125 64.0625 55.078125 55.328125 
Q 55.078125 49.078125 51.53125 44.71875 
Q 48 40.375 41.703125 38.8125 
Q 48.828125 37.15625 52.796875 32.3125 
Q 56.78125 27.484375 56.78125 20.515625 
Q 56.78125 9.90625 50.3125 4.234375 
Q 43.84375 -1.421875 31.78125 -1.421875 
Q 19.734375 -1.421875 13.25 4.234375 
Q 6.78125 9.90625 6.78125 20.515625 
Q 6.78125 27.484375 10.78125 32.3125 
Q 14.796875 37.15625 21.921875 38.8125 
z
M 18.3125 54.390625 
Q 18.3125 48.734375 21.84375 45.5625 
Q 25.390625 42.390625 31.78125 42.390625 
Q 38.140625 42.390625 41.71875 45.5625 
Q 45.3125 48.734375 45.3125 54.390625 
Q 45.3125 60.0625 41.71875 63.234375 
Q 38.140625 66.40625 31.78125 66.40625 
Q 25.390625 66.40625 21.84375 63.234375 
Q 18.3125 60.0625 18.3125 54.390625 
z
" id="DejaVuSans-38"/>
      </defs>
      <g transform="translate(10.896875 82.781052)scale(0.1 -0.1)">
       <use xlink:href="#DejaVuSans-30"/>
       <use x="63.623047" xlink:href="#DejaVuSans-2e"/>
       <use x="95.410156" xlink:href="#DejaVuSans-38"/>
      </g>
     </g>
    </g>
    <g id="ytick_6">
     <g id="line2d_11">
      <g>
       <use style="stroke:#000000;stroke-width:0.8;" x="33.8" xlink:href="#md5734eb488" y="35.969723"/>
      </g>
     </g>
     <g id="text_11">
      <!-- 1.0 -->
      <defs>
       <path d="M 12.40625 8.296875 
L 28.515625 8.296875 
L 28.515625 63.921875 
L 10.984375 60.40625 
L 10.984375 69.390625 
L 28.421875 72.90625 
L 38.28125 72.90625 
L 38.28125 8.296875 
L 54.390625 8.296875 
L 54.390625 0 
L 12.40625 0 
z
" id="DejaVuSans-31"/>
      </defs>
      <g transform="translate(10.896875 39.768941)scale(0.1 -0.1)">
       <use xlink:href="#DejaVuSans-31"/>
       <use x="63.623047" xlink:href="#DejaVuSans-2e"/>
       <use x="95.410156" xlink:href="#DejaVuSans-30"/>
      </g>
     </g>
    </g>
   </g>
   <g id="line2d_12">
    <path clip-path="url(#pefc0eae170)" d="M 51.25 238.238292 
L 176.89 238.238292 
L 177.239 178.429323 
L 225.401 178.429323 
L 225.75 109.035753 
L 273.912 109.035753 
L 274.261 48.844837 
L 400.25 48.844837 
L 400.25 48.844837 
" style="fill:none;stroke:#1f77b4;stroke-linecap:square;stroke-width:1.5;"/>
   </g>
   <g id="line2d_13">
    <path clip-path="url(#pefc0eae170)" d="M 51.25 247.199361 
L 111.976 247.199361 
L 112.325 238.871543 
L 140.943 238.871543 
L 141.292 228.064938 
L 161.185 228.064938 
L 161.534 215.33402 
L 176.89 215.33402 
L 177.239 200.92105 
L 190.85 200.92105 
L 191.199 185.182343 
L 203.065 185.182343 
L 203.414 168.768843 
L 214.582 168.768843 
L 214.931 152.067099 
L 225.401 152.067099 
L 225.75 135.466288 
L 236.22 135.466288 
L 236.569 118.738623 
L 247.737 118.738623 
L 248.086 102.274411 
L 259.952 102.274411 
L 260.301 86.463394 
L 273.912 86.463394 
L 274.261 71.963989 
L 289.617 71.963989 
L 289.966 59.140449 
L 309.859 59.140449 
L 310.208 48.243328 
L 338.826 48.243328 
L 339.175 39.824483 
L 400.25 39.824483 
L 400.25 39.824483 
" style="fill:none;stroke:#ff7f0e;stroke-linecap:square;stroke-width:1.5;"/>
   </g>
   <g id="line2d_14">
    <path clip-path="url(#pefc0eae170)" d="M 51.25 249.454039 
L 57.532 249.454039 
L 57.881 249.14646 
L 63.465 249.14646 
L 63.814 248.82353 
L 68.7 248.82353 
L 69.049 248.483573 
L 73.586 248.483573 
L 73.935 248.120782 
L 78.123 248.120782 
L 78.472 247.739651 
L 82.311 247.739651 
L 82.66 247.345825 
L 86.15 247.345825 
L 86.499 246.946009 
L 89.64 246.946009 
L 89.989 246.5478 
L 92.781 246.5478 
L 93.13 246.13528 
L 95.922 246.13528 
L 96.271 245.68576 
L 99.063 245.68576 
L 99.412 245.224797 
L 101.855 245.224797 
L 102.204 244.755391 
L 104.647 244.755391 
L 104.996 244.282402 
L 107.09 244.282402 
L 107.439 243.80956 
L 109.533 243.80956 
L 109.882 243.304813 
L 111.976 243.304813 
L 112.325 242.766187 
L 114.419 242.766187 
L 114.768 242.234308 
L 116.513 242.234308 
L 116.862 241.713963 
L 118.607 241.713963 
L 118.956 241.16431 
L 120.701 241.16431 
L 121.05 240.583875 
L 122.795 240.583875 
L 123.144 240.023895 
L 124.54 240.023895 
L 124.889 239.434697 
L 126.634 239.434697 
L 126.983 238.816789 
L 128.379 238.816789 
L 128.728 238.227874 
L 130.124 238.227874 
L 130.473 237.612441 
L 131.869 237.612441 
L 132.218 236.96948 
L 133.614 236.96948 
L 133.963 236.36687 
L 135.01 236.36687 
L 135.359 235.739479 
L 136.755 235.739479 
L 137.104 235.088329 
L 138.151 235.088329 
L 138.5 234.487776 
L 139.547 234.487776 
L 139.896 233.866549 
L 140.943 233.866549 
L 141.292 233.224086 
L 142.339 233.224086 
L 142.688 232.559819 
L 143.735 232.559819 
L 144.084 231.873179 
L 145.131 231.873179 
L 145.48 231.163592 
L 146.527 231.163592 
L 146.876 230.430486 
L 147.923 230.430486 
L 148.272 229.673288 
L 149.319 229.673288 
L 149.668 228.891426 
L 150.715 228.891426 
L 151.064 228.187086 
L 151.762 228.187086 
L 152.111 227.462112 
L 153.158 227.462112 
L 153.507 226.718022 
L 154.205 226.718022 
L 154.554 225.952516 
L 155.601 225.952516 
L 155.95 225.167194 
L 156.648 225.167194 
L 156.997 224.359696 
L 158.044 224.359696 
L 158.393 223.531703 
L 159.091 223.531703 
L 159.44 222.804166 
L 160.138 222.804166 
L 160.487 222.060354 
L 161.185 222.060354 
L 161.534 221.30006 
L 162.232 221.30006 
L 162.581 220.523084 
L 163.279 220.523084 
L 163.628 219.729231 
L 164.326 219.729231 
L 164.675 218.918316 
L 165.373 218.918316 
L 165.722 218.090159 
L 166.42 218.090159 
L 166.769 217.244588 
L 167.467 217.244588 
L 167.816 216.381441 
L 168.514 216.381441 
L 168.863 215.500564 
L 169.561 215.500564 
L 169.91 214.601816 
L 170.608 214.601816 
L 170.957 213.685062 
L 171.655 213.685062 
L 172.004 212.750181 
L 172.702 212.750181 
L 173.051 211.957612 
L 173.4 211.957612 
L 173.749 211.151472 
L 174.447 211.151472 
L 174.796 210.333412 
L 175.145 210.333412 
L 175.494 209.501682 
L 176.192 209.501682 
L 176.541 208.657953 
L 176.89 208.657953 
L 177.239 207.800482 
L 177.937 207.800482 
L 178.286 206.754992 
L 178.984 206.754992 
L 179.333 205.690888 
L 180.031 205.690888 
L 180.38 204.790341 
L 180.729 204.790341 
L 181.078 203.876002 
L 181.776 203.876002 
L 182.125 202.949606 
L 182.474 202.949606 
L 182.823 202.009451 
L 183.521 202.009451 
L 183.87 201.057285 
L 184.219 201.057285 
L 184.568 200.091431 
L 185.266 200.091431 
L 185.615 199.113644 
L 185.964 199.113644 
L 186.313 198.122279 
L 187.011 198.122279 
L 187.36 197.119094 
L 187.709 197.119094 
L 188.058 196.102481 
L 188.756 196.102481 
L 189.105 195.074199 
L 189.454 195.074199 
L 189.803 194.242301 
L 190.152 194.242301 
L 190.501 193.402514 
L 190.85 193.402514 
L 191.199 192.341373 
L 191.897 192.341373 
L 192.246 191.268926 
L 192.595 191.268926 
L 192.944 190.402013 
L 193.293 190.402013 
L 193.642 189.527504 
L 193.991 189.527504 
L 194.34 188.423418 
L 195.038 188.423418 
L 195.387 187.308518 
L 195.736 187.308518 
L 196.085 186.40806 
L 196.434 186.40806 
L 196.783 185.500388 
L 197.132 185.500388 
L 197.481 184.355435 
L 198.179 184.355435 
L 198.528 183.200287 
L 198.877 183.200287 
L 199.226 182.268153 
L 199.575 182.268153 
L 199.924 181.329273 
L 200.273 181.329273 
L 200.622 180.383764 
L 200.971 180.383764 
L 201.32 179.431747 
L 201.669 179.431747 
L 202.018 178.473347 
L 202.367 178.473347 
L 202.716 177.508692 
L 203.065 177.508692 
L 203.414 176.293973 
L 204.112 176.293973 
L 204.461 175.070578 
L 204.81 175.070578 
L 205.159 174.085111 
L 205.508 174.085111 
L 205.857 173.094022 
L 206.206 173.094022 
L 206.555 172.097463 
L 206.904 172.097463 
L 207.253 171.09559 
L 207.602 171.09559 
L 207.951 170.088561 
L 208.3 170.088561 
L 208.649 169.07654 
L 208.998 169.07654 
L 209.347 168.059693 
L 209.696 168.059693 
L 210.045 167.038191 
L 210.394 167.038191 
L 210.743 166.012207 
L 211.092 166.012207 
L 211.441 164.981919 
L 211.79 164.981919 
L 212.139 163.947506 
L 212.488 163.947506 
L 212.837 162.909152 
L 213.186 162.909152 
L 213.535 161.867043 
L 213.884 161.867043 
L 214.233 160.821367 
L 214.582 160.821367 
L 214.931 159.772318 
L 215.28 159.772318 
L 215.629 158.720089 
L 215.978 158.720089 
L 216.327 157.664877 
L 216.676 157.664877 
L 217.025 156.606882 
L 217.374 156.606882 
L 217.723 155.546304 
L 218.072 155.546304 
L 218.421 154.483348 
L 218.77 154.483348 
L 219.119 153.418218 
L 219.468 153.418218 
L 219.817 152.351121 
L 220.166 152.351121 
L 220.515 151.282266 
L 220.864 151.282266 
L 221.213 150.211863 
L 221.562 150.211863 
L 221.911 149.140123 
L 222.26 149.140123 
L 222.609 148.067259 
L 222.958 148.067259 
L 223.307 146.993482 
L 223.656 146.993482 
L 224.005 145.919008 
L 224.354 145.919008 
L 224.703 144.84405 
L 225.052 144.84405 
L 226.099 142.693543 
L 226.448 142.693543 
L 226.797 141.618424 
L 227.146 141.618424 
L 227.495 140.543681 
L 227.844 140.543681 
L 228.193 139.469529 
L 228.542 139.469529 
L 228.891 138.396182 
L 229.24 138.396182 
L 229.589 137.323853 
L 229.938 137.323853 
L 230.287 136.252755 
L 230.636 136.252755 
L 230.985 135.1831 
L 231.334 135.1831 
L 231.683 134.115098 
L 232.032 134.115098 
L 232.381 133.048959 
L 232.73 133.048959 
L 233.079 131.98489 
L 233.428 131.98489 
L 233.777 130.923097 
L 234.126 130.923097 
L 234.475 129.863785 
L 234.824 129.863785 
L 235.173 128.807157 
L 235.522 128.807157 
L 235.871 127.753411 
L 236.22 127.753411 
L 236.569 126.702748 
L 236.918 126.702748 
L 237.267 125.655361 
L 237.616 125.655361 
L 237.965 124.611445 
L 238.314 124.611445 
L 238.663 123.57119 
L 239.012 123.57119 
L 239.361 122.534783 
L 239.71 122.534783 
L 240.059 121.50241 
L 240.408 121.50241 
L 240.757 120.474251 
L 241.106 120.474251 
L 241.455 119.450487 
L 241.804 119.450487 
L 242.153 118.431291 
L 242.502 118.431291 
L 242.851 117.416836 
L 243.2 117.416836 
L 243.549 116.407291 
L 243.898 116.407291 
L 244.247 115.402819 
L 244.596 115.402819 
L 244.945 114.403583 
L 245.294 114.403583 
L 245.643 113.40974 
L 245.992 113.40974 
L 246.341 112.421443 
L 246.69 112.421443 
L 247.039 111.194405 
L 247.737 111.194405 
L 248.086 109.975939 
L 248.435 109.975939 
L 248.784 109.008207 
L 249.133 109.008207 
L 249.482 108.046663 
L 249.831 108.046663 
L 250.18 107.091438 
L 250.529 107.091438 
L 250.878 106.14266 
L 251.227 106.14266 
L 251.576 105.200451 
L 251.925 105.200451 
L 252.274 104.26493 
L 252.623 104.26493 
L 252.972 103.105468 
L 253.67 103.105468 
L 254.019 101.956124 
L 254.368 101.956124 
L 254.717 101.04488 
L 255.066 101.04488 
L 255.415 100.140803 
L 255.764 100.140803 
L 256.113 99.021313 
L 256.811 99.021313 
L 257.16 97.912575 
L 257.509 97.912575 
L 257.858 97.034297 
L 258.207 97.034297 
L 258.556 96.163577 
L 258.905 96.163577 
L 259.254 95.086319 
L 259.952 95.086319 
L 260.301 94.020319 
L 260.65 94.020319 
L 260.999 93.17661 
L 261.348 93.17661 
L 261.697 92.340761 
L 262.046 92.340761 
L 262.395 91.307502 
L 263.093 91.307502 
L 263.442 90.285878 
L 263.791 90.285878 
L 264.14 89.277647 
L 264.838 89.277647 
L 265.187 88.281209 
L 265.536 88.281209 
L 265.885 87.298322 
L 266.583 87.298322 
L 266.932 86.327349 
L 267.281 86.327349 
L 267.63 85.370044 
L 268.328 85.370044 
L 268.677 84.424738 
L 269.026 84.424738 
L 269.375 83.493179 
L 270.073 83.493179 
L 270.422 82.573671 
L 270.771 82.573671 
L 271.12 81.667951 
L 271.818 81.667951 
L 272.167 80.597641 
L 272.865 80.597641 
L 273.214 79.545948 
L 273.912 79.545948 
L 274.261 78.683315 
L 274.61 78.683315 
L 274.959 77.834437 
L 275.657 77.834437 
L 276.006 76.997568 
L 276.355 76.997568 
L 276.704 76.174387 
L 277.402 76.174387 
L 277.751 75.363144 
L 278.1 75.363144 
L 278.449 74.565493 
L 279.147 74.565493 
L 279.496 73.624545 
L 280.194 73.624545 
L 280.543 72.701762 
L 281.241 72.701762 
L 281.59 71.797026 
L 282.288 71.797026 
L 282.637 70.910208 
L 283.335 70.910208 
L 283.684 70.041167 
L 284.382 70.041167 
L 284.731 69.189755 
L 285.429 69.189755 
L 285.778 68.355812 
L 286.476 68.355812 
L 286.825 67.539169 
L 287.523 67.539169 
L 287.872 66.739649 
L 288.57 66.739649 
L 288.919 65.957069 
L 289.617 65.957069 
L 289.966 65.191236 
L 290.664 65.191236 
L 291.013 64.441953 
L 291.711 64.441953 
L 292.06 63.709014 
L 292.758 63.709014 
L 293.107 62.874811 
L 294.154 62.874811 
L 294.503 62.061198 
L 295.201 62.061198 
L 295.55 61.269866 
L 296.597 61.269866 
L 296.946 60.49845 
L 297.644 60.49845 
L 297.993 59.74856 
L 299.04 59.74856 
L 299.389 59.017886 
L 300.087 59.017886 
L 300.436 58.30796 
L 301.483 58.30796 
L 301.832 57.519843 
L 302.879 57.519843 
L 303.228 56.756532 
L 304.275 56.756532 
L 304.624 56.017457 
L 305.671 56.017457 
L 306.02 55.302044 
L 307.067 55.302044 
L 307.416 54.609721 
L 308.463 54.609721 
L 308.812 53.939914 
L 309.859 53.939914 
L 310.208 53.292054 
L 311.255 53.292054 
L 311.604 52.665571 
L 312.651 52.665571 
L 313 52.059902 
L 314.047 52.059902 
L 314.396 51.403166 
L 315.792 51.403166 
L 316.141 50.770357 
L 317.188 50.770357 
L 317.537 50.162506 
L 318.933 50.162506 
L 319.282 49.513917 
L 320.678 49.513917 
L 321.027 48.89306 
L 322.423 48.89306 
L 322.772 48.298921 
L 324.168 48.298921 
L 324.517 47.675495 
L 326.262 47.675495 
L 326.611 47.081004 
L 328.007 47.081004 
L 328.356 46.515964 
L 330.101 46.515964 
L 330.45 45.930251 
L 332.195 45.930251 
L 332.544 45.375571 
L 334.289 45.375571 
L 334.638 44.850442 
L 336.383 44.850442 
L 336.732 44.313645 
L 338.826 44.313645 
L 339.175 43.770012 
L 341.269 43.770012 
L 341.618 43.260549 
L 343.712 43.260549 
L 344.061 42.783266 
L 346.155 42.783266 
L 346.504 42.305814 
L 348.947 42.305814 
L 349.296 41.831957 
L 351.739 41.831957 
L 352.088 41.366604 
L 354.88 41.366604 
L 355.229 40.912784 
L 358.021 40.912784 
L 358.37 40.474532 
L 361.511 40.474532 
L 361.86 40.053991 
L 365.001 40.053991 
L 365.35 39.654175 
L 368.84 39.654175 
L 369.189 39.260349 
L 373.028 39.260349 
L 373.377 38.879218 
L 377.565 38.879218 
L 377.914 38.516427 
L 382.451 38.516427 
L 382.8 38.17647 
L 387.686 38.17647 
L 388.035 37.85354 
L 393.619 37.85354 
L 393.968 37.545961 
L 400.25 37.545961 
L 400.25 37.545961 
" style="fill:none;stroke:#2ca02c;stroke-linecap:square;stroke-width:1.5;"/>
   </g>
   <g id="line2d_15">
    <path clip-path="url(#pefc0eae170)" d="M 51.25 249.590909 
L 64.163 248.95268 
L 74.982 248.207539 
L 84.405 247.347573 
L 92.781 246.370288 
L 100.459 245.25437 
L 107.439 244.01727 
L 113.721 242.687834 
L 119.654 241.212511 
L 125.238 239.599564 
L 130.473 237.862945 
L 135.359 236.022323 
L 140.245 233.946179 
L 144.782 231.786646 
L 149.319 229.383982 
L 153.856 226.718578 
L 158.044 224.00838 
L 162.232 221.043551 
L 166.42 217.810892 
L 170.608 214.298906 
L 174.796 210.49839 
L 178.984 206.403049 
L 183.172 202.010138 
L 187.709 196.917111 
L 192.246 191.484699 
L 197.132 185.272575 
L 202.367 178.232959 
L 207.951 170.34095 
L 214.582 160.559518 
L 223.656 146.724941 
L 238.314 124.350915 
L 244.945 114.652725 
L 250.529 106.853432 
L 255.764 99.915687 
L 260.65 93.808414 
L 265.187 88.479144 
L 269.724 83.492491 
L 274.261 78.854465 
L 278.449 74.88252 
L 282.637 71.203171 
L 286.825 67.808835 
L 291.013 64.68928 
L 295.201 61.83223 
L 299.738 59.017347 
L 304.275 56.475631 
L 308.812 54.187624 
L 313.698 51.98484 
L 318.584 50.029378 
L 323.819 48.18219 
L 329.054 46.564897 
L 334.638 45.064584 
L 340.571 43.693804 
L 347.202 42.397169 
L 354.182 41.260735 
L 361.86 40.23659 
L 370.585 39.30741 
L 380.357 38.50189 
L 391.525 37.814401 
L 400.25 37.409091 
L 400.25 37.409091 
" style="fill:none;stroke:#000000;stroke-linecap:square;stroke-width:0.5;"/>
   </g>
   <g id="patch_3">
    <path d="M 33.8 260.2 
L 33.8 26.8 
" style="fill:none;stroke:#000000;stroke-linecap:square;stroke-linejoin:miter;stroke-width:0.8;"/>
   </g>
   <g id="patch_4">
    <path d="M 417.7 260.2 
L 417.7 26.8 
" style="fill:none;stroke:#000000;stroke-linecap:square;stroke-linejoin:miter;stroke-width:0.8;"/>
   </g>
   <g id="patch_5">
    <path d="M 33.8 260.2 
L 417.7 260.2 
" style="fill:none;stroke:#000000;stroke-linecap:square;stroke-linejoin:miter;stroke-width:0.8;"/>
   </g>
   <g id="patch_6">
    <path d="M 33.8 26.8 
L 417.7 26.8 
" style="fill:none;stroke:#000000;stroke-linecap:square;stroke-linejoin:miter;stroke-width:0.8;"/>
   </g>
   <g id="text_12">
    <!-- Decision Trees of Differing Depths -->
    <defs>
     <path d="M 19.671875 64.796875 
L 19.671875 8.109375 
L 31.59375 8.109375 
Q 46.6875 8.109375 53.6875 14.9375 
Q 60.6875 21.78125 60.6875 36.53125 
Q 60.6875 51.171875 53.6875 57.984375 
Q 46.6875 64.796875 31.59375 64.796875 
z
M 9.8125 72.90625 
L 30.078125 72.90625 
Q 51.265625 72.90625 61.171875 64.09375 
Q 71.09375 55.28125 71.09375 36.53125 
Q 71.09375 17.671875 61.125 8.828125 
Q 51.171875 0 30.078125 0 
L 9.8125 0 
z
" id="DejaVuSans-44"/>
     <path d="M 56.203125 29.59375 
L 56.203125 25.203125 
L 14.890625 25.203125 
Q 15.484375 15.921875 20.484375 11.0625 
Q 25.484375 6.203125 34.421875 6.203125 
Q 39.59375 6.203125 44.453125 7.46875 
Q 49.3125 8.734375 54.109375 11.28125 
L 54.109375 2.78125 
Q 49.265625 0.734375 44.1875 -0.34375 
Q 39.109375 -1.421875 33.890625 -1.421875 
Q 20.796875 -1.421875 13.15625 6.1875 
Q 5.515625 13.8125 5.515625 26.8125 
Q 5.515625 40.234375 12.765625 48.109375 
Q 20.015625 56 32.328125 56 
Q 43.359375 56 49.78125 48.890625 
Q 56.203125 41.796875 56.203125 29.59375 
z
M 47.21875 32.234375 
Q 47.125 39.59375 43.09375 43.984375 
Q 39.0625 48.390625 32.421875 48.390625 
Q 24.90625 48.390625 20.390625 44.140625 
Q 15.875 39.890625 15.1875 32.171875 
z
" id="DejaVuSans-65"/>
     <path d="M 48.78125 52.59375 
L 48.78125 44.1875 
Q 44.96875 46.296875 41.140625 47.34375 
Q 37.3125 48.390625 33.40625 48.390625 
Q 24.65625 48.390625 19.8125 42.84375 
Q 14.984375 37.3125 14.984375 27.296875 
Q 14.984375 17.28125 19.8125 11.734375 
Q 24.65625 6.203125 33.40625 6.203125 
Q 37.3125 6.203125 41.140625 7.25 
Q 44.96875 8.296875 48.78125 10.40625 
L 48.78125 2.09375 
Q 45.015625 0.34375 40.984375 -0.53125 
Q 36.96875 -1.421875 32.421875 -1.421875 
Q 20.0625 -1.421875 12.78125 6.34375 
Q 5.515625 14.109375 5.515625 27.296875 
Q 5.515625 40.671875 12.859375 48.328125 
Q 20.21875 56 33.015625 56 
Q 37.15625 56 41.109375 55.140625 
Q 45.0625 54.296875 48.78125 52.59375 
z
" id="DejaVuSans-63"/>
     <path d="M 9.421875 54.6875 
L 18.40625 54.6875 
L 18.40625 0 
L 9.421875 0 
z
M 9.421875 75.984375 
L 18.40625 75.984375 
L 18.40625 64.59375 
L 9.421875 64.59375 
z
" id="DejaVuSans-69"/>
     <path d="M 44.28125 53.078125 
L 44.28125 44.578125 
Q 40.484375 46.53125 36.375 47.5 
Q 32.28125 48.484375 27.875 48.484375 
Q 21.1875 48.484375 17.84375 46.4375 
Q 14.5 44.390625 14.5 40.28125 
Q 14.5 37.15625 16.890625 35.375 
Q 19.28125 33.59375 26.515625 31.984375 
L 29.59375 31.296875 
Q 39.15625 29.25 43.1875 25.515625 
Q 47.21875 21.78125 47.21875 15.09375 
Q 47.21875 7.46875 41.1875 3.015625 
Q 35.15625 -1.421875 24.609375 -1.421875 
Q 20.21875 -1.421875 15.453125 -0.5625 
Q 10.6875 0.296875 5.421875 2 
L 5.421875 11.28125 
Q 10.40625 8.6875 15.234375 7.390625 
Q 20.0625 6.109375 24.8125 6.109375 
Q 31.15625 6.109375 34.5625 8.28125 
Q 37.984375 10.453125 37.984375 14.40625 
Q 37.984375 18.0625 35.515625 20.015625 
Q 33.0625 21.96875 24.703125 23.78125 
L 21.578125 24.515625 
Q 13.234375 26.265625 9.515625 29.90625 
Q 5.8125 33.546875 5.8125 39.890625 
Q 5.8125 47.609375 11.28125 51.796875 
Q 16.75 56 26.8125 56 
Q 31.78125 56 36.171875 55.265625 
Q 40.578125 54.546875 44.28125 53.078125 
z
" id="DejaVuSans-73"/>
     <path d="M 30.609375 48.390625 
Q 23.390625 48.390625 19.1875 42.75 
Q 14.984375 37.109375 14.984375 27.296875 
Q 14.984375 17.484375 19.15625 11.84375 
Q 23.34375 6.203125 30.609375 6.203125 
Q 37.796875 6.203125 41.984375 11.859375 
Q 46.1875 17.53125 46.1875 27.296875 
Q 46.1875 37.015625 41.984375 42.703125 
Q 37.796875 48.390625 30.609375 48.390625 
z
M 30.609375 56 
Q 42.328125 56 49.015625 48.375 
Q 55.71875 40.765625 55.71875 27.296875 
Q 55.71875 13.875 49.015625 6.21875 
Q 42.328125 -1.421875 30.609375 -1.421875 
Q 18.84375 -1.421875 12.171875 6.21875 
Q 5.515625 13.875 5.515625 27.296875 
Q 5.515625 40.765625 12.171875 48.375 
Q 18.84375 56 30.609375 56 
z
" id="DejaVuSans-6f"/>
     <path d="M 54.890625 33.015625 
L 54.890625 0 
L 45.90625 0 
L 45.90625 32.71875 
Q 45.90625 40.484375 42.875 44.328125 
Q 39.84375 48.1875 33.796875 48.1875 
Q 26.515625 48.1875 22.3125 43.546875 
Q 18.109375 38.921875 18.109375 30.90625 
L 18.109375 0 
L 9.078125 0 
L 9.078125 54.6875 
L 18.109375 54.6875 
L 18.109375 46.1875 
Q 21.34375 51.125 25.703125 53.5625 
Q 30.078125 56 35.796875 56 
Q 45.21875 56 50.046875 50.171875 
Q 54.890625 44.34375 54.890625 33.015625 
z
" id="DejaVuSans-6e"/>
     <path id="DejaVuSans-20"/>
     <path d="M -0.296875 72.90625 
L 61.375 72.90625 
L 61.375 64.59375 
L 35.5 64.59375 
L 35.5 0 
L 25.59375 0 
L 25.59375 64.59375 
L -0.296875 64.59375 
z
" id="DejaVuSans-54"/>
     <path d="M 41.109375 46.296875 
Q 39.59375 47.171875 37.8125 47.578125 
Q 36.03125 48 33.890625 48 
Q 26.265625 48 22.1875 43.046875 
Q 18.109375 38.09375 18.109375 28.8125 
L 18.109375 0 
L 9.078125 0 
L 9.078125 54.6875 
L 18.109375 54.6875 
L 18.109375 46.1875 
Q 20.953125 51.171875 25.484375 53.578125 
Q 30.03125 56 36.53125 56 
Q 37.453125 56 38.578125 55.875 
Q 39.703125 55.765625 41.0625 55.515625 
z
" id="DejaVuSans-72"/>
     <path d="M 37.109375 75.984375 
L 37.109375 68.5 
L 28.515625 68.5 
Q 23.6875 68.5 21.796875 66.546875 
Q 19.921875 64.59375 19.921875 59.515625 
L 19.921875 54.6875 
L 34.71875 54.6875 
L 34.71875 47.703125 
L 19.921875 47.703125 
L 19.921875 0 
L 10.890625 0 
L 10.890625 47.703125 
L 2.296875 47.703125 
L 2.296875 54.6875 
L 10.890625 54.6875 
L 10.890625 58.5 
Q 10.890625 67.625 15.140625 71.796875 
Q 19.390625 75.984375 28.609375 75.984375 
z
" id="DejaVuSans-66"/>
     <path d="M 45.40625 27.984375 
Q 45.40625 37.75 41.375 43.109375 
Q 37.359375 48.484375 30.078125 48.484375 
Q 22.859375 48.484375 18.828125 43.109375 
Q 14.796875 37.75 14.796875 27.984375 
Q 14.796875 18.265625 18.828125 12.890625 
Q 22.859375 7.515625 30.078125 7.515625 
Q 37.359375 7.515625 41.375 12.890625 
Q 45.40625 18.265625 45.40625 27.984375 
z
M 54.390625 6.78125 
Q 54.390625 -7.171875 48.1875 -13.984375 
Q 42 -20.796875 29.203125 -20.796875 
Q 24.46875 -20.796875 20.265625 -20.09375 
Q 16.0625 -19.390625 12.109375 -17.921875 
L 12.109375 -9.1875 
Q 16.0625 -11.328125 19.921875 -12.34375 
Q 23.78125 -13.375 27.78125 -13.375 
Q 36.625 -13.375 41.015625 -8.765625 
Q 45.40625 -4.15625 45.40625 5.171875 
L 45.40625 9.625 
Q 42.625 4.78125 38.28125 2.390625 
Q 33.9375 0 27.875 0 
Q 17.828125 0 11.671875 7.65625 
Q 5.515625 15.328125 5.515625 27.984375 
Q 5.515625 40.671875 11.671875 48.328125 
Q 17.828125 56 27.875 56 
Q 33.9375 56 38.28125 53.609375 
Q 42.625 51.21875 45.40625 46.390625 
L 45.40625 54.6875 
L 54.390625 54.6875 
z
" id="DejaVuSans-67"/>
     <path d="M 18.109375 8.203125 
L 18.109375 -20.796875 
L 9.078125 -20.796875 
L 9.078125 54.6875 
L 18.109375 54.6875 
L 18.109375 46.390625 
Q 20.953125 51.265625 25.265625 53.625 
Q 29.59375 56 35.59375 56 
Q 45.5625 56 51.78125 48.09375 
Q 58.015625 40.1875 58.015625 27.296875 
Q 58.015625 14.40625 51.78125 6.484375 
Q 45.5625 -1.421875 35.59375 -1.421875 
Q 29.59375 -1.421875 25.265625 0.953125 
Q 20.953125 3.328125 18.109375 8.203125 
z
M 48.6875 27.296875 
Q 48.6875 37.203125 44.609375 42.84375 
Q 40.53125 48.484375 33.40625 48.484375 
Q 26.265625 48.484375 22.1875 42.84375 
Q 18.109375 37.203125 18.109375 27.296875 
Q 18.109375 17.390625 22.1875 11.75 
Q 26.265625 6.109375 33.40625 6.109375 
Q 40.53125 6.109375 44.609375 11.75 
Q 48.6875 17.390625 48.6875 27.296875 
z
" id="DejaVuSans-70"/>
     <path d="M 18.3125 70.21875 
L 18.3125 54.6875 
L 36.8125 54.6875 
L 36.8125 47.703125 
L 18.3125 47.703125 
L 18.3125 18.015625 
Q 18.3125 11.328125 20.140625 9.421875 
Q 21.96875 7.515625 27.59375 7.515625 
L 36.8125 7.515625 
L 36.8125 0 
L 27.59375 0 
Q 17.1875 0 13.234375 3.875 
Q 9.28125 7.765625 9.28125 18.015625 
L 9.28125 47.703125 
L 2.6875 47.703125 
L 2.6875 54.6875 
L 9.28125 54.6875 
L 9.28125 70.21875 
z
" id="DejaVuSans-74"/>
     <path d="M 54.890625 33.015625 
L 54.890625 0 
L 45.90625 0 
L 45.90625 32.71875 
Q 45.90625 40.484375 42.875 44.328125 
Q 39.84375 48.1875 33.796875 48.1875 
Q 26.515625 48.1875 22.3125 43.546875 
Q 18.109375 38.921875 18.109375 30.90625 
L 18.109375 0 
L 9.078125 0 
L 9.078125 75.984375 
L 18.109375 75.984375 
L 18.109375 46.1875 
Q 21.34375 51.125 25.703125 53.5625 
Q 30.078125 56 35.796875 56 
Q 45.21875 56 50.046875 50.171875 
Q 54.890625 44.34375 54.890625 33.015625 
z
" id="DejaVuSans-68"/>
    </defs>
    <g transform="translate(122.82 20.8)scale(0.12 -0.12)">
     <use xlink:href="#DejaVuSans-44"/>
     <use x="77.001953" xlink:href="#DejaVuSans-65"/>
     <use x="138.525391" xlink:href="#DejaVuSans-63"/>
     <use x="193.505859" xlink:href="#DejaVuSans-69"/>
     <use x="221.289062" xlink:href="#DejaVuSans-73"/>
     <use x="273.388672" xlink:href="#DejaVuSans-69"/>
     <use x="301.171875" xlink:href="#DejaVuSans-6f"/>
     <use x="362.353516" xlink:href="#DejaVuSans-6e"/>
     <use x="425.732422" xlink:href="#DejaVuSans-20"/>
     <use x="457.519531" xlink:href="#DejaVuSans-54"/>
     <use x="518.384766" xlink:href="#DejaVuSans-72"/>
     <use x="559.466797" xlink:href="#DejaVuSans-65"/>
     <use x="620.990234" xlink:href="#DejaVuSans-65"/>
     <use x="682.513672" xlink:href="#DejaVuSans-73"/>
     <use x="734.613281" xlink:href="#DejaVuSans-20"/>
     <use x="766.400391" xlink:href="#DejaVuSans-6f"/>
     <use x="827.582031" xlink:href="#DejaVuSans-66"/>
     <use x="862.787109" xlink:href="#DejaVuSans-20"/>
     <use x="894.574219" xlink:href="#DejaVuSans-44"/>
     <use x="971.576172" xlink:href="#DejaVuSans-69"/>
     <use x="999.359375" xlink:href="#DejaVuSans-66"/>
     <use x="1034.564453" xlink:href="#DejaVuSans-66"/>
     <use x="1069.769531" xlink:href="#DejaVuSans-65"/>
     <use x="1131.292969" xlink:href="#DejaVuSans-72"/>
     <use x="1172.40625" xlink:href="#DejaVuSans-69"/>
     <use x="1200.189453" xlink:href="#DejaVuSans-6e"/>
     <use x="1263.568359" xlink:href="#DejaVuSans-67"/>
     <use x="1327.044922" xlink:href="#DejaVuSans-20"/>
     <use x="1358.832031" xlink:href="#DejaVuSans-44"/>
     <use x="1435.833984" xlink:href="#DejaVuSans-65"/>
     <use x="1497.357422" xlink:href="#DejaVuSans-70"/>
     <use x="1560.833984" xlink:href="#DejaVuSans-74"/>
     <use x="1600.042969" xlink:href="#DejaVuSans-68"/>
     <use x="1663.421875" xlink:href="#DejaVuSans-73"/>
    </g>
   </g>
   <g id="legend_1">
    <g id="patch_7">
     <path d="M 40.8 93.5125 
L 151.792188 93.5125 
Q 153.792188 93.5125 153.792188 91.5125 
L 153.792188 33.8 
Q 153.792188 31.8 151.792188 31.8 
L 40.8 31.8 
Q 38.8 31.8 38.8 33.8 
L 38.8 91.5125 
Q 38.8 93.5125 40.8 93.5125 
z
" style="fill:#ffffff;opacity:0.8;stroke:#cccccc;stroke-linejoin:miter;"/>
    </g>
    <g id="line2d_16">
     <path d="M 42.8 39.898438 
L 62.8 39.898438 
" style="fill:none;stroke:#1f77b4;stroke-linecap:square;stroke-width:1.5;"/>
    </g>
    <g id="line2d_17"/>
    <g id="text_13">
     <!-- Depth = 2 -->
     <defs>
      <path d="M 10.59375 45.40625 
L 73.1875 45.40625 
L 73.1875 37.203125 
L 10.59375 37.203125 
z
M 10.59375 25.484375 
L 73.1875 25.484375 
L 73.1875 17.1875 
L 10.59375 17.1875 
z
" id="DejaVuSans-3d"/>
     </defs>
     <g transform="translate(70.8 43.398438)scale(0.1 -0.1)">
      <use xlink:href="#DejaVuSans-44"/>
      <use x="77.001953" xlink:href="#DejaVuSans-65"/>
      <use x="138.525391" xlink:href="#DejaVuSans-70"/>
      <use x="202.001953" xlink:href="#DejaVuSans-74"/>
      <use x="241.210938" xlink:href="#DejaVuSans-68"/>
      <use x="304.589844" xlink:href="#DejaVuSans-20"/>
      <use x="336.376953" xlink:href="#DejaVuSans-3d"/>
      <use x="420.166016" xlink:href="#DejaVuSans-20"/>
      <use x="451.953125" xlink:href="#DejaVuSans-32"/>
     </g>
    </g>
    <g id="line2d_18">
     <path d="M 42.8 54.576562 
L 62.8 54.576562 
" style="fill:none;stroke:#ff7f0e;stroke-linecap:square;stroke-width:1.5;"/>
    </g>
    <g id="line2d_19"/>
    <g id="text_14">
     <!-- Depth = 4 -->
     <g transform="translate(70.8 58.076562)scale(0.1 -0.1)">
      <use xlink:href="#DejaVuSans-44"/>
      <use x="77.001953" xlink:href="#DejaVuSans-65"/>
      <use x="138.525391" xlink:href="#DejaVuSans-70"/>
      <use x="202.001953" xlink:href="#DejaVuSans-74"/>
      <use x="241.210938" xlink:href="#DejaVuSans-68"/>
      <use x="304.589844" xlink:href="#DejaVuSans-20"/>
      <use x="336.376953" xlink:href="#DejaVuSans-3d"/>
      <use x="420.166016" xlink:href="#DejaVuSans-20"/>
      <use x="451.953125" xlink:href="#DejaVuSans-34"/>
     </g>
    </g>
    <g id="line2d_20">
     <path d="M 42.8 69.254687 
L 62.8 69.254687 
" style="fill:none;stroke:#2ca02c;stroke-linecap:square;stroke-width:1.5;"/>
    </g>
    <g id="line2d_21"/>
    <g id="text_15">
     <!-- Depth = 8 -->
     <g transform="translate(70.8 72.754687)scale(0.1 -0.1)">
      <use xlink:href="#DejaVuSans-44"/>
      <use x="77.001953" xlink:href="#DejaVuSans-65"/>
      <use x="138.525391" xlink:href="#DejaVuSans-70"/>
      <use x="202.001953" xlink:href="#DejaVuSans-74"/>
      <use x="241.210938" xlink:href="#DejaVuSans-68"/>
      <use x="304.589844" xlink:href="#DejaVuSans-20"/>
      <use x="336.376953" xlink:href="#DejaVuSans-3d"/>
      <use x="420.166016" xlink:href="#DejaVuSans-20"/>
      <use x="451.953125" xlink:href="#DejaVuSans-38"/>
     </g>
    </g>
    <g id="line2d_22">
     <path d="M 42.8 83.932813 
L 62.8 83.932813 
" style="fill:none;stroke:#000000;stroke-linecap:square;stroke-width:0.5;"/>
    </g>
    <g id="line2d_23"/>
    <g id="text_16">
     <!-- Target Function -->
     <defs>
      <path d="M 34.28125 27.484375 
Q 23.390625 27.484375 19.1875 25 
Q 14.984375 22.515625 14.984375 16.5 
Q 14.984375 11.71875 18.140625 8.90625 
Q 21.296875 6.109375 26.703125 6.109375 
Q 34.1875 6.109375 38.703125 11.40625 
Q 43.21875 16.703125 43.21875 25.484375 
L 43.21875 27.484375 
z
M 52.203125 31.203125 
L 52.203125 0 
L 43.21875 0 
L 43.21875 8.296875 
Q 40.140625 3.328125 35.546875 0.953125 
Q 30.953125 -1.421875 24.3125 -1.421875 
Q 15.921875 -1.421875 10.953125 3.296875 
Q 6 8.015625 6 15.921875 
Q 6 25.140625 12.171875 29.828125 
Q 18.359375 34.515625 30.609375 34.515625 
L 43.21875 34.515625 
L 43.21875 35.40625 
Q 43.21875 41.609375 39.140625 45 
Q 35.0625 48.390625 27.6875 48.390625 
Q 23 48.390625 18.546875 47.265625 
Q 14.109375 46.140625 10.015625 43.890625 
L 10.015625 52.203125 
Q 14.9375 54.109375 19.578125 55.046875 
Q 24.21875 56 28.609375 56 
Q 40.484375 56 46.34375 49.84375 
Q 52.203125 43.703125 52.203125 31.203125 
z
" id="DejaVuSans-61"/>
      <path d="M 9.8125 72.90625 
L 51.703125 72.90625 
L 51.703125 64.59375 
L 19.671875 64.59375 
L 19.671875 43.109375 
L 48.578125 43.109375 
L 48.578125 34.8125 
L 19.671875 34.8125 
L 19.671875 0 
L 9.8125 0 
z
" id="DejaVuSans-46"/>
      <path d="M 8.5 21.578125 
L 8.5 54.6875 
L 17.484375 54.6875 
L 17.484375 21.921875 
Q 17.484375 14.15625 20.5 10.265625 
Q 23.53125 6.390625 29.59375 6.390625 
Q 36.859375 6.390625 41.078125 11.03125 
Q 45.3125 15.671875 45.3125 23.6875 
L 45.3125 54.6875 
L 54.296875 54.6875 
L 54.296875 0 
L 45.3125 0 
L 45.3125 8.40625 
Q 42.046875 3.421875 37.71875 1 
Q 33.40625 -1.421875 27.6875 -1.421875 
Q 18.265625 -1.421875 13.375 4.4375 
Q 8.5 10.296875 8.5 21.578125 
z
M 31.109375 56 
z
" id="DejaVuSans-75"/>
     </defs>
     <g transform="translate(70.8 87.432813)scale(0.1 -0.1)">
      <use xlink:href="#DejaVuSans-54"/>
      <use x="60.833984" xlink:href="#DejaVuSans-61"/>
      <use x="122.113281" xlink:href="#DejaVuSans-72"/>
      <use x="163.210938" xlink:href="#DejaVuSans-67"/>
      <use x="226.6875" xlink:href="#DejaVuSans-65"/>
      <use x="288.210938" xlink:href="#DejaVuSans-74"/>
      <use x="327.419922" xlink:href="#DejaVuSans-20"/>
      <use x="359.207031" xlink:href="#DejaVuSans-46"/>
      <use x="416.648438" xlink:href="#DejaVuSans-75"/>
      <use x="480.027344" xlink:href="#DejaVuSans-6e"/>
      <use x="543.40625" xlink:href="#DejaVuSans-63"/>
      <use x="598.386719" xlink:href="#DejaVuSans-74"/>
      <use x="637.595703" xlink:href="#DejaVuSans-69"/>
      <use x="665.378906" xlink:href="#DejaVuSans-6f"/>
      <use x="726.560547" xlink:href="#DejaVuSans-6e"/>
     </g>
    </g>
   </g>
  </g>
 </g>
 <defs>
  <clipPath id="pefc0eae170">
   <rect height="233.4" width="383.9" x="33.8" y="26.8"/>
  </clipPath>
 </defs>
</svg>
