<?xml version="1.0" encoding="utf-8" standalone="no"?>
<!DOCTYPE svg PUBLIC "-//W3C//DTD SVG 1.1//EN"
  "http://www.w3.org/Graphics/SVG/1.1/DTD/svg11.dtd">
<!-- Created with matplotlib (http://matplotlib.org/) -->
<svg height="288pt" version="1.1" viewBox="0 0 432 288" width="432pt" xmlns="http://www.w3.org/2000/svg" xmlns:xlink="http://www.w3.org/1999/xlink">
 <defs>
  <style type="text/css">
*{stroke-linecap:butt;stroke-linejoin:round;}
  </style>
 </defs>
 <g id="figure_1">
  <g id="patch_1">
   <path d="M 0 288 
L 432 288 
L 432 0 
L 0 0 
z
" style="fill:#ffffff;"/>
  </g>
  <g id="axes_1">
   <g id="patch_2">
    <path d="M 56.175 246.2 
L 413.989584 246.2 
L 413.989584 26.8 
L 56.175 26.8 
z
" style="fill:#ffffff;"/>
   </g>
   <g id="matplotlib.axis_1">
    <g id="xtick_1">
     <g id="line2d_1">
      <defs>
       <path d="M 0 0 
L 0 3.5 
" id="m3cff6a0fd4" style="stroke:#000000;stroke-width:0.8;"/>
      </defs>
      <g>
       <use style="stroke:#000000;stroke-width:0.8;" x="67.712554" xlink:href="#m3cff6a0fd4" y="246.2"/>
      </g>
     </g>
     <g id="text_1">
      <!-- 0 -->
      <defs>
       <path d="M 31.78125 66.40625 
Q 24.171875 66.40625 20.328125 58.90625 
Q 16.5 51.421875 16.5 36.375 
Q 16.5 21.390625 20.328125 13.890625 
Q 24.171875 6.390625 31.78125 6.390625 
Q 39.453125 6.390625 43.28125 13.890625 
Q 47.125 21.390625 47.125 36.375 
Q 47.125 51.421875 43.28125 58.90625 
Q 39.453125 66.40625 31.78125 66.40625 
z
M 31.78125 74.21875 
Q 44.046875 74.21875 50.515625 64.515625 
Q 56.984375 54.828125 56.984375 36.375 
Q 56.984375 17.96875 50.515625 8.265625 
Q 44.046875 -1.421875 31.78125 -1.421875 
Q 19.53125 -1.421875 13.0625 8.265625 
Q 6.59375 17.96875 6.59375 36.375 
Q 6.59375 54.828125 13.0625 64.515625 
Q 19.53125 74.21875 31.78125 74.21875 
z
" id="DejaVuSans-30"/>
      </defs>
      <g transform="translate(64.531304 260.798437)scale(0.1 -0.1)">
       <use xlink:href="#DejaVuSans-30"/>
      </g>
     </g>
    </g>
    <g id="xtick_2">
     <g id="line2d_2">
      <g>
       <use style="stroke:#000000;stroke-width:0.8;" x="110.682962" xlink:href="#m3cff6a0fd4" y="246.2"/>
      </g>
     </g>
     <g id="text_2">
      <!-- 100 -->
      <defs>
       <path d="M 12.40625 8.296875 
L 28.515625 8.296875 
L 28.515625 63.921875 
L 10.984375 60.40625 
L 10.984375 69.390625 
L 28.421875 72.90625 
L 38.28125 72.90625 
L 38.28125 8.296875 
L 54.390625 8.296875 
L 54.390625 0 
L 12.40625 0 
z
" id="DejaVuSans-31"/>
      </defs>
      <g transform="translate(101.139212 260.798437)scale(0.1 -0.1)">
       <use xlink:href="#DejaVuSans-31"/>
       <use x="63.623047" xlink:href="#DejaVuSans-30"/>
       <use x="127.246094" xlink:href="#DejaVuSans-30"/>
      </g>
     </g>
    </g>
    <g id="xtick_3">
     <g id="line2d_3">
      <g>
       <use style="stroke:#000000;stroke-width:0.8;" x="153.65337" xlink:href="#m3cff6a0fd4" y="246.2"/>
      </g>
     </g>
     <g id="text_3">
      <!-- 200 -->
      <defs>
       <path d="M 19.1875 8.296875 
L 53.609375 8.296875 
L 53.609375 0 
L 7.328125 0 
L 7.328125 8.296875 
Q 12.9375 14.109375 22.625 23.890625 
Q 32.328125 33.6875 34.8125 36.53125 
Q 39.546875 41.84375 41.421875 45.53125 
Q 43.3125 49.21875 43.3125 52.78125 
Q 43.3125 58.59375 39.234375 62.25 
Q 35.15625 65.921875 28.609375 65.921875 
Q 23.96875 65.921875 18.8125 64.3125 
Q 13.671875 62.703125 7.8125 59.421875 
L 7.8125 69.390625 
Q 13.765625 71.78125 18.9375 73 
Q 24.125 74.21875 28.421875 74.21875 
Q 39.75 74.21875 46.484375 68.546875 
Q 53.21875 62.890625 53.21875 53.421875 
Q 53.21875 48.921875 51.53125 44.890625 
Q 49.859375 40.875 45.40625 35.40625 
Q 44.1875 33.984375 37.640625 27.21875 
Q 31.109375 20.453125 19.1875 8.296875 
z
" id="DejaVuSans-32"/>
      </defs>
      <g transform="translate(144.10962 260.798437)scale(0.1 -0.1)">
       <use xlink:href="#DejaVuSans-32"/>
       <use x="63.623047" xlink:href="#DejaVuSans-30"/>
       <use x="127.246094" xlink:href="#DejaVuSans-30"/>
      </g>
     </g>
    </g>
    <g id="xtick_4">
     <g id="line2d_4">
      <g>
       <use style="stroke:#000000;stroke-width:0.8;" x="196.623777" xlink:href="#m3cff6a0fd4" y="246.2"/>
      </g>
     </g>
     <g id="text_4">
      <!-- 300 -->
      <defs>
       <path d="M 40.578125 39.3125 
Q 47.65625 37.796875 51.625 33 
Q 55.609375 28.21875 55.609375 21.1875 
Q 55.609375 10.40625 48.1875 4.484375 
Q 40.765625 -1.421875 27.09375 -1.421875 
Q 22.515625 -1.421875 17.65625 -0.515625 
Q 12.796875 0.390625 7.625 2.203125 
L 7.625 11.71875 
Q 11.71875 9.328125 16.59375 8.109375 
Q 21.484375 6.890625 26.8125 6.890625 
Q 36.078125 6.890625 40.9375 10.546875 
Q 45.796875 14.203125 45.796875 21.1875 
Q 45.796875 27.640625 41.28125 31.265625 
Q 36.765625 34.90625 28.71875 34.90625 
L 20.21875 34.90625 
L 20.21875 43.015625 
L 29.109375 43.015625 
Q 36.375 43.015625 40.234375 45.921875 
Q 44.09375 48.828125 44.09375 54.296875 
Q 44.09375 59.90625 40.109375 62.90625 
Q 36.140625 65.921875 28.71875 65.921875 
Q 24.65625 65.921875 20.015625 65.03125 
Q 15.375 64.15625 9.8125 62.3125 
L 9.8125 71.09375 
Q 15.4375 72.65625 20.34375 73.4375 
Q 25.25 74.21875 29.59375 74.21875 
Q 40.828125 74.21875 47.359375 69.109375 
Q 53.90625 64.015625 53.90625 55.328125 
Q 53.90625 49.265625 50.4375 45.09375 
Q 46.96875 40.921875 40.578125 39.3125 
z
" id="DejaVuSans-33"/>
      </defs>
      <g transform="translate(187.080027 260.798437)scale(0.1 -0.1)">
       <use xlink:href="#DejaVuSans-33"/>
       <use x="63.623047" xlink:href="#DejaVuSans-30"/>
       <use x="127.246094" xlink:href="#DejaVuSans-30"/>
      </g>
     </g>
    </g>
    <g id="xtick_5">
     <g id="line2d_5">
      <g>
       <use style="stroke:#000000;stroke-width:0.8;" x="239.594185" xlink:href="#m3cff6a0fd4" y="246.2"/>
      </g>
     </g>
     <g id="text_5">
      <!-- 400 -->
      <defs>
       <path d="M 37.796875 64.3125 
L 12.890625 25.390625 
L 37.796875 25.390625 
z
M 35.203125 72.90625 
L 47.609375 72.90625 
L 47.609375 25.390625 
L 58.015625 25.390625 
L 58.015625 17.1875 
L 47.609375 17.1875 
L 47.609375 0 
L 37.796875 0 
L 37.796875 17.1875 
L 4.890625 17.1875 
L 4.890625 26.703125 
z
" id="DejaVuSans-34"/>
      </defs>
      <g transform="translate(230.050435 260.798437)scale(0.1 -0.1)">
       <use xlink:href="#DejaVuSans-34"/>
       <use x="63.623047" xlink:href="#DejaVuSans-30"/>
       <use x="127.246094" xlink:href="#DejaVuSans-30"/>
      </g>
     </g>
    </g>
    <g id="xtick_6">
     <g id="line2d_6">
      <g>
       <use style="stroke:#000000;stroke-width:0.8;" x="282.564592" xlink:href="#m3cff6a0fd4" y="246.2"/>
      </g>
     </g>
     <g id="text_6">
      <!-- 500 -->
      <defs>
       <path d="M 10.796875 72.90625 
L 49.515625 72.90625 
L 49.515625 64.59375 
L 19.828125 64.59375 
L 19.828125 46.734375 
Q 21.96875 47.46875 24.109375 47.828125 
Q 26.265625 48.1875 28.421875 48.1875 
Q 40.625 48.1875 47.75 41.5 
Q 54.890625 34.8125 54.890625 23.390625 
Q 54.890625 11.625 47.5625 5.09375 
Q 40.234375 -1.421875 26.90625 -1.421875 
Q 22.3125 -1.421875 17.546875 -0.640625 
Q 12.796875 0.140625 7.71875 1.703125 
L 7.71875 11.625 
Q 12.109375 9.234375 16.796875 8.0625 
Q 21.484375 6.890625 26.703125 6.890625 
Q 35.15625 6.890625 40.078125 11.328125 
Q 45.015625 15.765625 45.015625 23.390625 
Q 45.015625 31 40.078125 35.4375 
Q 35.15625 39.890625 26.703125 39.890625 
Q 22.75 39.890625 18.8125 39.015625 
Q 14.890625 38.140625 10.796875 36.28125 
z
" id="DejaVuSans-35"/>
      </defs>
      <g transform="translate(273.020842 260.798437)scale(0.1 -0.1)">
       <use xlink:href="#DejaVuSans-35"/>
       <use x="63.623047" xlink:href="#DejaVuSans-30"/>
       <use x="127.246094" xlink:href="#DejaVuSans-30"/>
      </g>
     </g>
    </g>
    <g id="xtick_7">
     <g id="line2d_7">
      <g>
       <use style="stroke:#000000;stroke-width:0.8;" x="325.535" xlink:href="#m3cff6a0fd4" y="246.2"/>
      </g>
     </g>
     <g id="text_7">
      <!-- 600 -->
      <defs>
       <path d="M 33.015625 40.375 
Q 26.375 40.375 22.484375 35.828125 
Q 18.609375 31.296875 18.609375 23.390625 
Q 18.609375 15.53125 22.484375 10.953125 
Q 26.375 6.390625 33.015625 6.390625 
Q 39.65625 6.390625 43.53125 10.953125 
Q 47.40625 15.53125 47.40625 23.390625 
Q 47.40625 31.296875 43.53125 35.828125 
Q 39.65625 40.375 33.015625 40.375 
z
M 52.59375 71.296875 
L 52.59375 62.3125 
Q 48.875 64.0625 45.09375 64.984375 
Q 41.3125 65.921875 37.59375 65.921875 
Q 27.828125 65.921875 22.671875 59.328125 
Q 17.53125 52.734375 16.796875 39.40625 
Q 19.671875 43.65625 24.015625 45.921875 
Q 28.375 48.1875 33.59375 48.1875 
Q 44.578125 48.1875 50.953125 41.515625 
Q 57.328125 34.859375 57.328125 23.390625 
Q 57.328125 12.15625 50.6875 5.359375 
Q 44.046875 -1.421875 33.015625 -1.421875 
Q 20.359375 -1.421875 13.671875 8.265625 
Q 6.984375 17.96875 6.984375 36.375 
Q 6.984375 53.65625 15.1875 63.9375 
Q 23.390625 74.21875 37.203125 74.21875 
Q 40.921875 74.21875 44.703125 73.484375 
Q 48.484375 72.75 52.59375 71.296875 
z
" id="DejaVuSans-36"/>
      </defs>
      <g transform="translate(315.99125 260.798437)scale(0.1 -0.1)">
       <use xlink:href="#DejaVuSans-36"/>
       <use x="63.623047" xlink:href="#DejaVuSans-30"/>
       <use x="127.246094" xlink:href="#DejaVuSans-30"/>
      </g>
     </g>
    </g>
    <g id="xtick_8">
     <g id="line2d_8">
      <g>
       <use style="stroke:#000000;stroke-width:0.8;" x="368.505407" xlink:href="#m3cff6a0fd4" y="246.2"/>
      </g>
     </g>
     <g id="text_8">
      <!-- 700 -->
      <defs>
       <path d="M 8.203125 72.90625 
L 55.078125 72.90625 
L 55.078125 68.703125 
L 28.609375 0 
L 18.3125 0 
L 43.21875 64.59375 
L 8.203125 64.59375 
z
" id="DejaVuSans-37"/>
      </defs>
      <g transform="translate(358.961657 260.798437)scale(0.1 -0.1)">
       <use xlink:href="#DejaVuSans-37"/>
       <use x="63.623047" xlink:href="#DejaVuSans-30"/>
       <use x="127.246094" xlink:href="#DejaVuSans-30"/>
      </g>
     </g>
    </g>
    <g id="xtick_9">
     <g id="line2d_9">
      <g>
       <use style="stroke:#000000;stroke-width:0.8;" x="411.475815" xlink:href="#m3cff6a0fd4" y="246.2"/>
      </g>
     </g>
     <g id="text_9">
      <!-- 800 -->
      <defs>
       <path d="M 31.78125 34.625 
Q 24.75 34.625 20.71875 30.859375 
Q 16.703125 27.09375 16.703125 20.515625 
Q 16.703125 13.921875 20.71875 10.15625 
Q 24.75 6.390625 31.78125 6.390625 
Q 38.8125 6.390625 42.859375 10.171875 
Q 46.921875 13.96875 46.921875 20.515625 
Q 46.921875 27.09375 42.890625 30.859375 
Q 38.875 34.625 31.78125 34.625 
z
M 21.921875 38.8125 
Q 15.578125 40.375 12.03125 44.71875 
Q 8.5 49.078125 8.5 55.328125 
Q 8.5 64.0625 14.71875 69.140625 
Q 20.953125 74.21875 31.78125 74.21875 
Q 42.671875 74.21875 48.875 69.140625 
Q 55.078125 64.0625 55.078125 55.328125 
Q 55.078125 49.078125 51.53125 44.71875 
Q 48 40.375 41.703125 38.8125 
Q 48.828125 37.15625 52.796875 32.3125 
Q 56.78125 27.484375 56.78125 20.515625 
Q 56.78125 9.90625 50.3125 4.234375 
Q 43.84375 -1.421875 31.78125 -1.421875 
Q 19.734375 -1.421875 13.25 4.234375 
Q 6.78125 9.90625 6.78125 20.515625 
Q 6.78125 27.484375 10.78125 32.3125 
Q 14.796875 37.15625 21.921875 38.8125 
z
M 18.3125 54.390625 
Q 18.3125 48.734375 21.84375 45.5625 
Q 25.390625 42.390625 31.78125 42.390625 
Q 38.140625 42.390625 41.71875 45.5625 
Q 45.3125 48.734375 45.3125 54.390625 
Q 45.3125 60.0625 41.71875 63.234375 
Q 38.140625 66.40625 31.78125 66.40625 
Q 25.390625 66.40625 21.84375 63.234375 
Q 18.3125 60.0625 18.3125 54.390625 
z
" id="DejaVuSans-38"/>
      </defs>
      <g transform="translate(401.932065 260.798437)scale(0.1 -0.1)">
       <use xlink:href="#DejaVuSans-38"/>
       <use x="63.623047" xlink:href="#DejaVuSans-30"/>
       <use x="127.246094" xlink:href="#DejaVuSans-30"/>
      </g>
     </g>
    </g>
    <g id="text_10">
     <!-- Field -->
     <defs>
      <path d="M 9.8125 72.90625 
L 51.703125 72.90625 
L 51.703125 64.59375 
L 19.671875 64.59375 
L 19.671875 43.109375 
L 48.578125 43.109375 
L 48.578125 34.8125 
L 19.671875 34.8125 
L 19.671875 0 
L 9.8125 0 
z
" id="DejaVuSans-46"/>
      <path d="M 9.421875 54.6875 
L 18.40625 54.6875 
L 18.40625 0 
L 9.421875 0 
z
M 9.421875 75.984375 
L 18.40625 75.984375 
L 18.40625 64.59375 
L 9.421875 64.59375 
z
" id="DejaVuSans-69"/>
      <path d="M 56.203125 29.59375 
L 56.203125 25.203125 
L 14.890625 25.203125 
Q 15.484375 15.921875 20.484375 11.0625 
Q 25.484375 6.203125 34.421875 6.203125 
Q 39.59375 6.203125 44.453125 7.46875 
Q 49.3125 8.734375 54.109375 11.28125 
L 54.109375 2.78125 
Q 49.265625 0.734375 44.1875 -0.34375 
Q 39.109375 -1.421875 33.890625 -1.421875 
Q 20.796875 -1.421875 13.15625 6.1875 
Q 5.515625 13.8125 5.515625 26.8125 
Q 5.515625 40.234375 12.765625 48.109375 
Q 20.015625 56 32.328125 56 
Q 43.359375 56 49.78125 48.890625 
Q 56.203125 41.796875 56.203125 29.59375 
z
M 47.21875 32.234375 
Q 47.125 39.59375 43.09375 43.984375 
Q 39.0625 48.390625 32.421875 48.390625 
Q 24.90625 48.390625 20.390625 44.140625 
Q 15.875 39.890625 15.1875 32.171875 
z
" id="DejaVuSans-65"/>
      <path d="M 9.421875 75.984375 
L 18.40625 75.984375 
L 18.40625 0 
L 9.421875 0 
z
" id="DejaVuSans-6c"/>
      <path d="M 45.40625 46.390625 
L 45.40625 75.984375 
L 54.390625 75.984375 
L 54.390625 0 
L 45.40625 0 
L 45.40625 8.203125 
Q 42.578125 3.328125 38.25 0.953125 
Q 33.9375 -1.421875 27.875 -1.421875 
Q 17.96875 -1.421875 11.734375 6.484375 
Q 5.515625 14.40625 5.515625 27.296875 
Q 5.515625 40.1875 11.734375 48.09375 
Q 17.96875 56 27.875 56 
Q 33.9375 56 38.25 53.625 
Q 42.578125 51.265625 45.40625 46.390625 
z
M 14.796875 27.296875 
Q 14.796875 17.390625 18.875 11.75 
Q 22.953125 6.109375 30.078125 6.109375 
Q 37.203125 6.109375 41.296875 11.75 
Q 45.40625 17.390625 45.40625 27.296875 
Q 45.40625 37.203125 41.296875 42.84375 
Q 37.203125 48.484375 30.078125 48.484375 
Q 22.953125 48.484375 18.875 42.84375 
Q 14.796875 37.203125 14.796875 27.296875 
z
" id="DejaVuSans-64"/>
     </defs>
     <g transform="translate(223.183073 274.476562)scale(0.1 -0.1)">
      <use xlink:href="#DejaVuSans-46"/>
      <use x="57.410156" xlink:href="#DejaVuSans-69"/>
      <use x="85.193359" xlink:href="#DejaVuSans-65"/>
      <use x="146.716797" xlink:href="#DejaVuSans-6c"/>
      <use x="174.5" xlink:href="#DejaVuSans-64"/>
     </g>
    </g>
   </g>
   <g id="matplotlib.axis_2">
    <g id="ytick_1">
     <g id="line2d_10">
      <defs>
       <path d="M 0 0 
L -3.5 0 
" id="m40871c444e" style="stroke:#000000;stroke-width:0.8;"/>
      </defs>
      <g>
       <use style="stroke:#000000;stroke-width:0.8;" x="56.175" xlink:href="#m40871c444e" y="223.348846"/>
      </g>
     </g>
     <g id="text_11">
      <!-- −0.5 -->
      <defs>
       <path d="M 10.59375 35.5 
L 73.1875 35.5 
L 73.1875 27.203125 
L 10.59375 27.203125 
z
" id="DejaVuSans-2212"/>
       <path d="M 10.6875 12.40625 
L 21 12.40625 
L 21 0 
L 10.6875 0 
z
" id="DejaVuSans-2e"/>
      </defs>
      <g transform="translate(24.892188 227.148065)scale(0.1 -0.1)">
       <use xlink:href="#DejaVuSans-2212"/>
       <use x="83.789062" xlink:href="#DejaVuSans-30"/>
       <use x="147.412109" xlink:href="#DejaVuSans-2e"/>
       <use x="179.199219" xlink:href="#DejaVuSans-35"/>
      </g>
     </g>
    </g>
    <g id="ytick_2">
     <g id="line2d_11">
      <g>
       <use style="stroke:#000000;stroke-width:0.8;" x="56.175" xlink:href="#m40871c444e" y="197.748495"/>
      </g>
     </g>
     <g id="text_12">
      <!-- −0.4 -->
      <g transform="translate(24.892188 201.547713)scale(0.1 -0.1)">
       <use xlink:href="#DejaVuSans-2212"/>
       <use x="83.789062" xlink:href="#DejaVuSans-30"/>
       <use x="147.412109" xlink:href="#DejaVuSans-2e"/>
       <use x="179.199219" xlink:href="#DejaVuSans-34"/>
      </g>
     </g>
    </g>
    <g id="ytick_3">
     <g id="line2d_12">
      <g>
       <use style="stroke:#000000;stroke-width:0.8;" x="56.175" xlink:href="#m40871c444e" y="172.148143"/>
      </g>
     </g>
     <g id="text_13">
      <!-- −0.3 -->
      <g transform="translate(24.892188 175.947362)scale(0.1 -0.1)">
       <use xlink:href="#DejaVuSans-2212"/>
       <use x="83.789062" xlink:href="#DejaVuSans-30"/>
       <use x="147.412109" xlink:href="#DejaVuSans-2e"/>
       <use x="179.199219" xlink:href="#DejaVuSans-33"/>
      </g>
     </g>
    </g>
    <g id="ytick_4">
     <g id="line2d_13">
      <g>
       <use style="stroke:#000000;stroke-width:0.8;" x="56.175" xlink:href="#m40871c444e" y="146.547792"/>
      </g>
     </g>
     <g id="text_14">
      <!-- −0.2 -->
      <g transform="translate(24.892188 150.347011)scale(0.1 -0.1)">
       <use xlink:href="#DejaVuSans-2212"/>
       <use x="83.789062" xlink:href="#DejaVuSans-30"/>
       <use x="147.412109" xlink:href="#DejaVuSans-2e"/>
       <use x="179.199219" xlink:href="#DejaVuSans-32"/>
      </g>
     </g>
    </g>
    <g id="ytick_5">
     <g id="line2d_14">
      <g>
       <use style="stroke:#000000;stroke-width:0.8;" x="56.175" xlink:href="#m40871c444e" y="120.947441"/>
      </g>
     </g>
     <g id="text_15">
      <!-- −0.1 -->
      <g transform="translate(24.892188 124.74666)scale(0.1 -0.1)">
       <use xlink:href="#DejaVuSans-2212"/>
       <use x="83.789062" xlink:href="#DejaVuSans-30"/>
       <use x="147.412109" xlink:href="#DejaVuSans-2e"/>
       <use x="179.199219" xlink:href="#DejaVuSans-31"/>
      </g>
     </g>
    </g>
    <g id="ytick_6">
     <g id="line2d_15">
      <g>
       <use style="stroke:#000000;stroke-width:0.8;" x="56.175" xlink:href="#m40871c444e" y="95.34709"/>
      </g>
     </g>
     <g id="text_16">
      <!-- 0.0 -->
      <g transform="translate(33.271875 99.146308)scale(0.1 -0.1)">
       <use xlink:href="#DejaVuSans-30"/>
       <use x="63.623047" xlink:href="#DejaVuSans-2e"/>
       <use x="95.410156" xlink:href="#DejaVuSans-30"/>
      </g>
     </g>
    </g>
    <g id="ytick_7">
     <g id="line2d_16">
      <g>
       <use style="stroke:#000000;stroke-width:0.8;" x="56.175" xlink:href="#m40871c444e" y="69.746738"/>
      </g>
     </g>
     <g id="text_17">
      <!-- 0.1 -->
      <g transform="translate(33.271875 73.545957)scale(0.1 -0.1)">
       <use xlink:href="#DejaVuSans-30"/>
       <use x="63.623047" xlink:href="#DejaVuSans-2e"/>
       <use x="95.410156" xlink:href="#DejaVuSans-31"/>
      </g>
     </g>
    </g>
    <g id="ytick_8">
     <g id="line2d_17">
      <g>
       <use style="stroke:#000000;stroke-width:0.8;" x="56.175" xlink:href="#m40871c444e" y="44.146387"/>
      </g>
     </g>
     <g id="text_18">
      <!-- 0.2 -->
      <g transform="translate(33.271875 47.945606)scale(0.1 -0.1)">
       <use xlink:href="#DejaVuSans-30"/>
       <use x="63.623047" xlink:href="#DejaVuSans-2e"/>
       <use x="95.410156" xlink:href="#DejaVuSans-32"/>
      </g>
     </g>
    </g>
    <g id="text_19">
     <!-- Response -->
     <defs>
      <path d="M 44.390625 34.1875 
Q 47.5625 33.109375 50.5625 29.59375 
Q 53.5625 26.078125 56.59375 19.921875 
L 66.609375 0 
L 56 0 
L 46.6875 18.703125 
Q 43.0625 26.03125 39.671875 28.421875 
Q 36.28125 30.8125 30.421875 30.8125 
L 19.671875 30.8125 
L 19.671875 0 
L 9.8125 0 
L 9.8125 72.90625 
L 32.078125 72.90625 
Q 44.578125 72.90625 50.734375 67.671875 
Q 56.890625 62.453125 56.890625 51.90625 
Q 56.890625 45.015625 53.6875 40.46875 
Q 50.484375 35.9375 44.390625 34.1875 
z
M 19.671875 64.796875 
L 19.671875 38.921875 
L 32.078125 38.921875 
Q 39.203125 38.921875 42.84375 42.21875 
Q 46.484375 45.515625 46.484375 51.90625 
Q 46.484375 58.296875 42.84375 61.546875 
Q 39.203125 64.796875 32.078125 64.796875 
z
" id="DejaVuSans-52"/>
      <path d="M 44.28125 53.078125 
L 44.28125 44.578125 
Q 40.484375 46.53125 36.375 47.5 
Q 32.28125 48.484375 27.875 48.484375 
Q 21.1875 48.484375 17.84375 46.4375 
Q 14.5 44.390625 14.5 40.28125 
Q 14.5 37.15625 16.890625 35.375 
Q 19.28125 33.59375 26.515625 31.984375 
L 29.59375 31.296875 
Q 39.15625 29.25 43.1875 25.515625 
Q 47.21875 21.78125 47.21875 15.09375 
Q 47.21875 7.46875 41.1875 3.015625 
Q 35.15625 -1.421875 24.609375 -1.421875 
Q 20.21875 -1.421875 15.453125 -0.5625 
Q 10.6875 0.296875 5.421875 2 
L 5.421875 11.28125 
Q 10.40625 8.6875 15.234375 7.390625 
Q 20.0625 6.109375 24.8125 6.109375 
Q 31.15625 6.109375 34.5625 8.28125 
Q 37.984375 10.453125 37.984375 14.40625 
Q 37.984375 18.0625 35.515625 20.015625 
Q 33.0625 21.96875 24.703125 23.78125 
L 21.578125 24.515625 
Q 13.234375 26.265625 9.515625 29.90625 
Q 5.8125 33.546875 5.8125 39.890625 
Q 5.8125 47.609375 11.28125 51.796875 
Q 16.75 56 26.8125 56 
Q 31.78125 56 36.171875 55.265625 
Q 40.578125 54.546875 44.28125 53.078125 
z
" id="DejaVuSans-73"/>
      <path d="M 18.109375 8.203125 
L 18.109375 -20.796875 
L 9.078125 -20.796875 
L 9.078125 54.6875 
L 18.109375 54.6875 
L 18.109375 46.390625 
Q 20.953125 51.265625 25.265625 53.625 
Q 29.59375 56 35.59375 56 
Q 45.5625 56 51.78125 48.09375 
Q 58.015625 40.1875 58.015625 27.296875 
Q 58.015625 14.40625 51.78125 6.484375 
Q 45.5625 -1.421875 35.59375 -1.421875 
Q 29.59375 -1.421875 25.265625 0.953125 
Q 20.953125 3.328125 18.109375 8.203125 
z
M 48.6875 27.296875 
Q 48.6875 37.203125 44.609375 42.84375 
Q 40.53125 48.484375 33.40625 48.484375 
Q 26.265625 48.484375 22.1875 42.84375 
Q 18.109375 37.203125 18.109375 27.296875 
Q 18.109375 17.390625 22.1875 11.75 
Q 26.265625 6.109375 33.40625 6.109375 
Q 40.53125 6.109375 44.609375 11.75 
Q 48.6875 17.390625 48.6875 27.296875 
z
" id="DejaVuSans-70"/>
      <path d="M 30.609375 48.390625 
Q 23.390625 48.390625 19.1875 42.75 
Q 14.984375 37.109375 14.984375 27.296875 
Q 14.984375 17.484375 19.15625 11.84375 
Q 23.34375 6.203125 30.609375 6.203125 
Q 37.796875 6.203125 41.984375 11.859375 
Q 46.1875 17.53125 46.1875 27.296875 
Q 46.1875 37.015625 41.984375 42.703125 
Q 37.796875 48.390625 30.609375 48.390625 
z
M 30.609375 56 
Q 42.328125 56 49.015625 48.375 
Q 55.71875 40.765625 55.71875 27.296875 
Q 55.71875 13.875 49.015625 6.21875 
Q 42.328125 -1.421875 30.609375 -1.421875 
Q 18.84375 -1.421875 12.171875 6.21875 
Q 5.515625 13.875 5.515625 27.296875 
Q 5.515625 40.765625 12.171875 48.375 
Q 18.84375 56 30.609375 56 
z
" id="DejaVuSans-6f"/>
      <path d="M 54.890625 33.015625 
L 54.890625 0 
L 45.90625 0 
L 45.90625 32.71875 
Q 45.90625 40.484375 42.875 44.328125 
Q 39.84375 48.1875 33.796875 48.1875 
Q 26.515625 48.1875 22.3125 43.546875 
Q 18.109375 38.921875 18.109375 30.90625 
L 18.109375 0 
L 9.078125 0 
L 9.078125 54.6875 
L 18.109375 54.6875 
L 18.109375 46.1875 
Q 21.34375 51.125 25.703125 53.5625 
Q 30.078125 56 35.796875 56 
Q 45.21875 56 50.046875 50.171875 
Q 54.890625 44.34375 54.890625 33.015625 
z
" id="DejaVuSans-6e"/>
     </defs>
     <g transform="translate(18.8125 160.735937)rotate(-90)scale(0.1 -0.1)">
      <use xlink:href="#DejaVuSans-52"/>
      <use x="69.419922" xlink:href="#DejaVuSans-65"/>
      <use x="130.943359" xlink:href="#DejaVuSans-73"/>
      <use x="183.042969" xlink:href="#DejaVuSans-70"/>
      <use x="246.519531" xlink:href="#DejaVuSans-6f"/>
      <use x="307.701172" xlink:href="#DejaVuSans-6e"/>
      <use x="371.080078" xlink:href="#DejaVuSans-73"/>
      <use x="423.179688" xlink:href="#DejaVuSans-65"/>
     </g>
    </g>
   </g>
   <g id="line2d_18">
    <path clip-path="url(#pb84117191f)" d="M 72.439299 236.227273 
L 72.869003 204.878782 
L 72.869003 204.878782 
L 72.869003 204.878782 
L 73.298707 176.896411 
L 73.298707 176.896411 
L 73.298707 176.896411 
L 73.728411 152.226921 
L 73.728411 152.226921 
L 73.728411 152.226921 
L 74.158116 130.73651 
L 74.158116 130.73651 
L 74.158116 130.73651 
L 74.58782 112.232821 
L 74.58782 112.232821 
L 74.58782 112.232821 
L 75.017524 96.484513 
L 75.017524 96.484513 
L 75.017524 96.484513 
L 75.447228 83.238954 
L 75.447228 83.238954 
L 75.447228 83.238954 
L 75.876932 72.235794 
L 75.876932 72.235794 
L 75.876932 72.235794 
L 76.306636 63.218075 
L 76.306636 63.218075 
L 76.306636 63.218075 
L 76.73634 55.939464 
L 76.73634 55.939464 
L 76.73634 55.939464 
L 77.166044 50.169575 
L 77.166044 50.169575 
L 77.166044 50.169575 
L 77.595748 45.696865 
L 77.595748 45.696865 
L 77.595748 45.696865 
L 78.025452 42.329982 
L 78.025452 42.329982 
L 78.025452 42.329982 
L 78.455156 39.898079 
L 78.455156 39.898079 
L 78.455156 39.898079 
L 78.88486 38.250138 
L 78.88486 38.250138 
L 78.88486 38.250138 
L 79.314564 37.253874 
L 79.314564 37.253874 
L 79.314564 37.253874 
L 79.744269 36.794456 
L 79.744269 36.794456 
L 79.744269 36.794456 
L 80.173973 36.772727 
L 80.173973 36.772727 
L 80.173973 36.772727 
L 80.603677 37.103764 
L 80.603677 37.103764 
L 80.603677 37.103764 
L 81.033381 37.715085 
L 81.033381 37.715085 
L 81.033381 37.715085 
L 81.463085 38.545335 
L 81.463085 38.545335 
L 81.463085 38.545335 
L 81.892789 39.542892 
L 81.892789 39.542892 
L 81.892789 39.542892 
L 82.322493 40.664367 
L 82.322493 40.664367 
L 82.322493 40.664367 
L 82.752197 41.873749 
L 82.752197 41.873749 
L 82.752197 41.873749 
L 83.181901 43.141215 
L 83.181901 43.141215 
L 83.181901 43.141215 
L 83.611605 44.442243 
L 83.611605 44.442243 
L 83.611605 44.442243 
L 84.041309 45.756844 
L 84.041309 45.756844 
L 84.041309 45.756844 
L 84.471013 47.068927 
L 84.471013 47.068927 
L 84.471013 47.068927 
L 84.900717 48.365622 
L 84.900717 48.365622 
L 84.900717 48.365622 
L 85.330422 49.636818 
L 85.330422 49.636818 
L 85.330422 49.636818 
L 85.760126 50.874659 
L 85.760126 50.874659 
L 85.760126 50.874659 
L 86.18983 52.073322 
L 86.18983 52.073322 
L 86.18983 52.073322 
L 86.619534 53.228382 
L 86.619534 53.228382 
L 86.619534 53.228382 
L 87.049238 54.336948 
L 87.049238 54.336948 
L 87.049238 54.336948 
L 87.478942 55.397075 
L 87.478942 55.397075 
L 87.478942 55.397075 
L 87.908646 56.407717 
L 87.908646 56.407717 
L 87.908646 56.407717 
L 88.33835 57.368614 
L 88.33835 57.368614 
L 88.33835 57.368614 
L 88.768054 58.280011 
L 88.768054 58.280011 
L 88.768054 58.280011 
L 89.197758 59.142594 
L 89.197758 59.142594 
L 89.197758 59.142594 
L 89.627462 59.957509 
L 89.627462 59.957509 
L 89.627462 59.957509 
L 90.057166 60.726013 
L 90.057166 60.726013 
L 90.057166 60.726013 
L 90.48687 61.449778 
L 90.48687 61.449778 
L 90.48687 61.449778 
L 90.916574 62.130375 
L 90.916574 62.130375 
L 90.916574 62.130375 
L 91.346279 62.769666 
L 91.346279 62.769666 
L 91.346279 62.769666 
L 91.775983 63.36948 
L 91.775983 63.36948 
L 91.775983 63.36948 
L 92.205687 63.931736 
L 92.205687 63.931736 
L 92.205687 63.931736 
L 92.635391 64.458278 
L 92.635391 64.458278 
L 92.635391 64.458278 
L 93.065095 64.950953 
L 93.065095 64.950953 
L 93.065095 64.950953 
L 93.494799 65.411706 
L 93.494799 65.411706 
L 93.494799 65.411706 
L 93.924503 65.842185 
L 93.924503 65.842185 
L 93.924503 65.842185 
L 94.354207 66.244222 
L 94.354207 66.244222 
L 94.354207 66.244222 
L 94.783911 66.619448 
L 94.783911 66.619448 
L 94.783911 66.619448 
L 95.213615 66.96952 
L 95.213615 66.96952 
L 95.213615 66.96952 
L 95.643319 67.295903 
L 95.643319 67.295903 
L 95.643319 67.295903 
L 96.073023 67.600129 
L 96.073023 67.600129 
L 96.073023 67.600129 
L 96.502727 67.88358 
L 96.502727 67.88358 
L 96.502727 67.88358 
L 96.932432 68.147553 
L 96.932432 68.147553 
L 96.932432 68.147553 
L 97.362136 68.39336 
L 97.362136 68.39336 
L 97.362136 68.39336 
L 97.79184 68.622138 
L 97.79184 68.622138 
L 97.79184 68.622138 
L 98.221544 68.835009 
L 98.221544 68.835009 
L 98.221544 68.835009 
L 98.651248 69.033056 
L 98.651248 69.033056 
L 98.651248 69.033056 
L 99.080952 69.21727 
L 99.080952 69.21727 
L 99.080952 69.21727 
L 99.510656 69.388545 
L 99.510656 69.388545 
L 99.510656 69.388545 
L 99.94036 69.54778 
L 99.94036 69.54778 
L 99.94036 69.54778 
L 100.370064 69.695815 
L 100.370064 69.695815 
L 100.370064 69.695815 
L 100.799768 69.833398 
L 100.799768 69.833398 
L 100.799768 69.833398 
L 101.229472 69.961215 
L 101.229472 69.961215 
L 101.229472 69.961215 
L 101.659176 70.080006 
L 101.659176 70.080006 
L 101.659176 70.080006 
L 102.08888 70.190329 
L 102.08888 70.190329 
L 102.08888 70.190329 
L 102.518585 70.292846 
L 102.518585 70.292846 
L 102.518585 70.292846 
L 102.948289 70.388024 
L 102.948289 70.388024 
L 102.948289 70.388024 
L 103.377993 70.476465 
L 103.377993 70.476465 
L 103.377993 70.476465 
L 103.807697 70.558566 
L 103.807697 70.558566 
L 103.807697 70.558566 
L 104.237401 70.634785 
L 104.237401 70.634785 
L 104.237401 70.634785 
L 104.667105 70.705549 
L 104.667105 70.705549 
L 104.667105 70.705549 
L 105.096809 70.771262 
L 105.096809 70.771262 
L 105.096809 70.771262 
L 105.526513 70.832282 
L 105.526513 70.832282 
L 105.526513 70.832282 
L 105.956217 70.888893 
L 105.956217 70.888893 
L 105.956217 70.888893 
L 106.385921 70.94146 
L 106.385921 70.94146 
L 106.385921 70.94146 
L 106.815625 70.990243 
L 106.815625 70.990243 
L 106.815625 70.990243 
L 107.245329 71.035532 
L 107.245329 71.035532 
L 107.245329 71.035532 
L 107.675033 71.077563 
L 107.675033 71.077563 
L 107.675033 71.077563 
L 108.104738 71.11655 
L 108.104738 71.11655 
L 108.104738 71.11655 
L 108.534442 71.152744 
L 108.534442 71.152744 
L 108.534442 71.152744 
L 108.964146 71.186329 
L 108.964146 71.186329 
L 108.964146 71.186329 
L 109.39385 71.217519 
L 109.39385 71.217519 
L 109.39385 71.217519 
L 109.823554 71.246412 
L 109.823554 71.246412 
L 109.823554 71.246412 
L 110.253258 71.27326 
L 110.253258 71.27326 
L 110.253258 71.27326 
L 110.682962 71.29814 
L 110.682962 71.29814 
L 110.682962 71.29814 
L 111.112666 71.321257 
L 111.112666 71.321257 
L 111.112666 71.321257 
L 111.54237 71.342703 
L 111.54237 71.342703 
L 111.54237 71.342703 
L 111.972074 71.362586 
L 111.972074 71.362586 
L 111.972074 71.362586 
L 112.401778 71.381026 
L 112.401778 71.381026 
L 112.401778 71.381026 
L 112.831482 71.398147 
L 112.831482 71.398147 
L 112.831482 71.398147 
L 113.261186 71.414055 
L 113.261186 71.414055 
L 113.261186 71.414055 
L 113.69089 71.428779 
L 113.69089 71.428779 
L 113.69089 71.428779 
L 114.120595 71.442452 
L 114.120595 71.442452 
L 114.120595 71.442452 
L 114.550299 71.455132 
L 114.550299 71.455132 
L 114.550299 71.455132 
L 114.980003 71.466896 
L 114.980003 71.466896 
L 114.980003 71.466896 
L 115.409707 71.477814 
L 115.409707 71.477814 
L 115.409707 71.477814 
L 115.839411 71.487931 
L 115.839411 71.487931 
L 115.839411 71.487931 
L 116.269115 71.497346 
L 116.269115 71.497346 
L 116.269115 71.497346 
L 116.698819 71.506051 
L 116.698819 71.506051 
L 116.698819 71.506051 
L 117.128523 71.514146 
L 117.128523 71.514146 
L 117.128523 71.514146 
L 117.558227 71.521646 
L 117.558227 71.521646 
L 117.558227 71.521646 
L 117.987931 71.528596 
L 117.987931 71.528596 
L 117.987931 71.528596 
L 118.417635 71.535051 
L 118.417635 71.535051 
L 118.417635 71.535051 
L 118.847339 71.541025 
L 118.847339 71.541025 
L 118.847339 71.541025 
L 119.277043 71.546594 
L 119.277043 71.546594 
L 119.277043 71.546594 
L 119.706748 71.551744 
L 119.706748 71.551744 
L 119.706748 71.551744 
L 120.136452 71.556528 
L 120.136452 71.556528 
L 120.136452 71.556528 
L 120.566156 71.560968 
L 120.566156 71.560968 
L 120.566156 71.560968 
L 120.99586 71.565073 
L 120.99586 71.565073 
L 120.99586 71.565073 
L 121.425564 71.568895 
L 121.425564 71.568895 
L 121.425564 71.568895 
L 121.855268 71.572428 
L 121.855268 71.572428 
L 121.855268 71.572428 
L 122.284972 71.575708 
L 122.284972 71.575708 
L 122.284972 71.575708 
L 122.714676 71.578768 
L 122.714676 71.578768 
L 122.714676 71.578768 
L 123.14438 71.581583 
L 123.14438 71.581583 
L 123.14438 71.581583 
L 123.574084 71.584208 
L 123.574084 71.584208 
L 123.574084 71.584208 
L 124.003788 71.586634 
L 124.003788 71.586634 
L 124.003788 71.586634 
L 124.433492 71.588892 
L 124.433492 71.588892 
L 124.433492 71.588892 
L 124.863196 71.590998 
L 124.863196 71.590998 
L 124.863196 71.590998 
L 125.292901 71.592936 
L 125.292901 71.592936 
L 125.292901 71.592936 
L 125.722605 71.594736 
L 125.722605 71.594736 
L 125.722605 71.594736 
L 126.152309 71.596392 
L 126.152309 71.596392 
L 126.152309 71.596392 
L 126.582013 71.597948 
L 126.582013 71.597948 
L 126.582013 71.597948 
L 127.011717 71.59939 
L 127.011717 71.59939 
L 127.011717 71.59939 
L 127.441421 71.600718 
L 127.441421 71.600718 
L 127.441421 71.600718 
L 127.871125 71.601961 
L 127.871125 71.601961 
L 127.871125 71.601961 
L 128.300829 71.603114 
L 128.300829 71.603114 
L 128.300829 71.603114 
L 128.730533 71.604166 
L 128.730533 71.604166 
L 128.730533 71.604166 
L 129.160237 71.605158 
L 129.160237 71.605158 
L 129.160237 71.605158 
L 129.589941 71.606081 
L 129.589941 71.606081 
L 129.589941 71.606081 
L 130.019645 71.606921 
L 130.019645 71.606921 
L 130.019645 71.606921 
L 130.449349 71.607714 
L 130.449349 71.607714 
L 130.449349 71.607714 
L 130.879054 71.608439 
L 130.879054 71.608439 
L 130.879054 71.608439 
L 131.308758 71.609118 
L 131.308758 71.609118 
L 131.308758 71.609118 
L 131.738462 71.609751 
L 131.738462 71.609751 
L 131.738462 71.609751 
L 132.168166 71.610331 
L 132.168166 71.610331 
L 132.168166 71.610331 
L 132.59787 71.610865 
L 132.59787 71.610865 
L 132.59787 71.610865 
L 133.027574 71.611369 
L 133.027574 71.611369 
L 133.027574 71.611369 
L 133.457278 71.611842 
L 133.457278 71.611842 
L 133.457278 71.611842 
L 133.886982 71.612277 
L 133.886982 71.612277 
L 133.886982 71.612277 
L 134.316686 71.612673 
L 134.316686 71.612673 
L 134.316686 71.612673 
L 134.74639 71.613039 
L 134.74639 71.613039 
L 134.74639 71.613039 
L 135.176094 71.61339 
L 135.176094 71.61339 
L 135.176094 71.61339 
L 135.605798 71.613703 
L 135.605798 71.613703 
L 135.605798 71.613703 
L 136.035502 71.614008 
L 136.035502 71.614008 
L 136.035502 71.614008 
L 136.465206 71.614275 
L 136.465206 71.614275 
L 136.465206 71.614275 
L 136.894911 71.614535 
L 136.894911 71.614535 
L 136.894911 71.614535 
L 137.324615 71.614771 
L 137.324615 71.614771 
L 137.324615 71.614771 
L 137.754319 71.614985 
L 137.754319 71.614985 
L 137.754319 71.614985 
L 138.184023 71.615199 
L 138.184023 71.615199 
L 138.184023 71.615199 
L 138.613727 71.615389 
L 138.613727 71.615389 
L 138.613727 71.615389 
L 139.043431 71.615565 
L 139.043431 71.615565 
L 139.043431 71.615565 
L 139.473135 71.615733 
L 139.473135 71.615733 
L 139.473135 71.615733 
L 139.902839 71.615878 
L 139.902839 71.615878 
L 139.902839 71.615878 
L 140.332543 71.616007 
L 140.332543 71.616007 
L 140.332543 71.616007 
L 140.762247 71.616145 
L 140.762247 71.616145 
L 140.762247 71.616145 
L 141.191951 71.616267 
L 141.191951 71.616267 
L 141.191951 71.616267 
L 141.621655 71.616374 
L 141.621655 71.616374 
L 141.621655 71.616374 
L 142.051359 71.61648 
L 142.051359 71.61648 
L 142.051359 71.61648 
L 142.481064 71.616572 
L 142.481064 71.616572 
L 142.481064 71.616572 
L 142.910768 71.616664 
L 142.910768 71.616664 
L 142.910768 71.616664 
L 143.340472 71.61674 
L 143.340472 71.61674 
L 143.340472 71.61674 
L 143.770176 71.616824 
L 143.770176 71.616824 
L 143.770176 71.616824 
L 144.19988 71.616892 
L 144.19988 71.616892 
L 144.19988 71.616892 
L 144.629584 71.616969 
L 144.629584 71.616969 
L 144.629584 71.616969 
L 145.059288 71.617022 
L 145.059288 71.617022 
L 145.059288 71.617022 
L 145.488992 71.617076 
L 145.488992 71.617076 
L 145.488992 71.617076 
L 145.918696 71.617129 
L 145.918696 71.617129 
L 145.918696 71.617129 
L 146.3484 71.61719 
L 146.3484 71.61719 
L 146.3484 71.61719 
L 146.778104 71.617228 
L 146.778104 71.617228 
L 146.778104 71.617228 
L 147.207808 71.617266 
L 147.207808 71.617266 
L 147.207808 71.617266 
L 147.637512 71.617304 
L 147.637512 71.617304 
L 147.637512 71.617304 
L 148.067217 71.617343 
L 148.067217 71.617343 
L 148.067217 71.617343 
L 148.496921 71.617373 
L 148.496921 71.617373 
L 148.496921 71.617373 
L 148.926625 71.617404 
L 148.926625 71.617404 
L 148.926625 71.617404 
L 149.356329 71.617434 
L 149.356329 71.617434 
L 149.356329 71.617434 
L 149.786033 71.617457 
L 149.786033 71.617457 
L 149.786033 71.617457 
L 150.215737 71.61748 
L 150.215737 71.61748 
L 150.215737 71.61748 
L 150.645441 71.617518 
L 150.645441 71.617518 
L 150.645441 71.617518 
L 151.075145 71.617533 
L 151.075145 71.617533 
L 151.075145 71.617533 
L 151.504849 71.617556 
L 151.504849 71.617556 
L 151.504849 71.617556 
L 151.934553 71.617571 
L 151.934553 71.617571 
L 151.934553 71.617571 
L 152.364257 71.617587 
L 152.364257 71.617587 
L 152.364257 71.617587 
L 152.793961 71.617602 
L 152.793961 71.617602 
L 152.793961 71.617602 
L 153.223665 71.617617 
L 153.223665 71.617617 
L 153.223665 71.617617 
L 153.65337 71.617632 
L 153.65337 71.617632 
L 153.65337 71.617632 
L 154.083074 71.61764 
L 154.083074 71.61764 
L 154.083074 71.61764 
L 154.512778 71.617655 
L 154.512778 71.617655 
L 154.512778 71.617655 
L 154.942482 71.617663 
L 154.942482 71.617663 
L 154.942482 71.617663 
L 155.372186 71.617671 
L 155.372186 71.617671 
L 155.372186 71.617671 
L 155.80189 71.617678 
L 155.80189 71.617678 
L 155.80189 71.617678 
L 156.231594 71.617686 
L 156.231594 71.617686 
L 156.231594 71.617686 
L 156.661298 71.617709 
L 156.661298 71.617709 
L 156.661298 71.617709 
L 157.091002 71.617716 
L 157.091002 71.617716 
L 157.091002 71.617716 
L 157.520706 71.617724 
L 157.520706 71.617724 
L 157.520706 71.617724 
L 157.95041 71.617732 
L 157.95041 71.617732 
L 157.95041 71.617732 
L 158.380114 71.617739 
L 158.380114 71.617739 
L 158.380114 71.617739 
L 158.809818 71.617739 
L 158.809818 71.617739 
L 158.809818 71.617739 
L 159.239522 71.617747 
L 159.239522 71.617747 
L 159.239522 71.617747 
L 159.669227 71.617747 
L 159.669227 71.617747 
L 159.669227 71.617747 
L 160.098931 71.617755 
L 160.098931 71.617755 
L 160.098931 71.617755 
L 160.528635 71.617762 
L 160.528635 71.617762 
L 160.528635 71.617762 
L 160.958339 71.617762 
L 160.958339 71.617762 
L 160.958339 71.617762 
L 161.388043 71.617762 
L 161.388043 71.617762 
L 161.388043 71.617762 
L 161.817747 71.61777 
L 161.817747 71.61777 
L 161.817747 71.61777 
L 162.247451 71.61777 
L 162.247451 71.61777 
L 162.247451 71.61777 
L 162.677155 71.617777 
L 162.677155 71.617777 
L 162.677155 71.617777 
L 163.106859 71.617777 
L 163.106859 71.617777 
L 163.106859 71.617777 
L 163.536563 71.617777 
L 163.536563 71.617777 
L 163.536563 71.617777 
L 163.966267 71.617777 
L 163.966267 71.617777 
L 163.966267 71.617777 
L 164.395971 71.617785 
L 164.395971 71.617785 
L 164.395971 71.617785 
L 164.825675 71.617785 
L 164.825675 71.617785 
L 164.825675 71.617785 
L 165.25538 71.617785 
L 165.25538 71.617785 
L 165.25538 71.617785 
L 165.685084 71.617785 
L 165.685084 71.617785 
L 165.685084 71.617785 
L 166.114788 71.617793 
L 166.114788 71.617793 
L 166.114788 71.617793 
L 166.544492 71.617793 
L 166.544492 71.617793 
L 166.544492 71.617793 
L 166.974196 71.617793 
L 166.974196 71.617793 
L 166.974196 71.617793 
L 167.4039 71.617793 
L 167.4039 71.617793 
L 167.4039 71.617793 
L 167.833604 71.617793 
L 167.833604 71.617793 
L 167.833604 71.617793 
L 168.263308 71.617793 
L 168.263308 71.617793 
L 168.263308 71.617793 
L 168.693012 71.617793 
L 168.693012 71.617793 
L 168.693012 71.617793 
L 169.122716 71.6178 
L 169.122716 71.6178 
L 169.122716 71.6178 
L 169.55242 71.6178 
L 169.55242 71.6178 
L 169.55242 71.6178 
L 169.982124 71.6178 
L 169.982124 71.6178 
L 169.982124 71.6178 
L 170.411828 71.6178 
L 170.411828 71.6178 
L 170.411828 71.6178 
L 170.841533 71.6178 
L 170.841533 71.6178 
L 170.841533 71.6178 
L 171.271237 71.6178 
L 171.271237 71.6178 
L 171.271237 71.6178 
L 171.700941 71.6178 
L 171.700941 71.6178 
L 171.700941 71.6178 
L 172.130645 71.6178 
L 172.130645 71.6178 
L 172.130645 71.6178 
L 172.560349 71.6178 
L 172.560349 71.6178 
L 172.560349 71.6178 
L 172.990053 71.6178 
L 172.990053 71.6178 
L 172.990053 71.6178 
L 173.419757 71.6178 
L 173.419757 71.6178 
L 173.419757 71.6178 
L 173.849461 71.6178 
L 173.849461 71.6178 
L 173.849461 71.6178 
L 174.279165 71.6178 
L 174.279165 71.6178 
L 174.279165 71.6178 
L 174.708869 71.6178 
L 174.708869 71.6178 
L 174.708869 71.6178 
L 175.138573 71.6178 
L 175.138573 71.6178 
L 175.138573 71.6178 
L 175.568277 71.617808 
L 175.568277 71.617808 
L 175.568277 71.617808 
L 175.997981 71.617808 
L 175.997981 71.617808 
L 175.997981 71.617808 
L 176.427685 71.617808 
L 176.427685 71.617808 
L 176.427685 71.617808 
L 176.85739 71.617808 
L 176.85739 71.617808 
L 176.85739 71.617808 
L 177.287094 71.617808 
L 177.287094 71.617808 
L 177.287094 71.617808 
L 177.716798 71.617808 
L 177.716798 71.617808 
L 177.716798 71.617808 
L 178.146502 71.617808 
L 178.146502 71.617808 
L 178.146502 71.617808 
L 178.576206 71.617808 
L 178.576206 71.617808 
L 178.576206 71.617808 
L 179.00591 71.617808 
L 179.00591 71.617808 
L 179.00591 71.617808 
L 179.435614 71.617808 
L 179.435614 71.617808 
L 179.435614 71.617808 
L 179.865318 71.617808 
L 179.865318 71.617808 
L 179.865318 71.617808 
L 180.295022 71.617808 
L 180.295022 71.617808 
L 180.295022 71.617808 
L 180.724726 71.617808 
L 180.724726 71.617808 
L 180.724726 71.617808 
L 181.15443 71.617808 
L 181.15443 71.617808 
L 181.15443 71.617808 
L 181.584134 71.617808 
L 181.584134 71.617808 
L 181.584134 71.617808 
L 182.013838 71.617808 
L 182.013838 71.617808 
L 182.013838 71.617808 
L 182.443543 71.617808 
L 182.443543 71.617808 
L 182.443543 71.617808 
L 182.873247 71.617808 
L 182.873247 71.617808 
L 182.873247 71.617808 
L 183.302951 71.617808 
L 183.302951 71.617808 
L 183.302951 71.617808 
L 183.732655 71.617808 
L 183.732655 71.617808 
L 183.732655 71.617808 
L 184.162359 71.617808 
L 184.162359 71.617808 
L 184.162359 71.617808 
L 184.592063 71.617808 
L 184.592063 71.617808 
L 184.592063 71.617808 
L 185.021767 71.617808 
L 185.021767 71.617808 
L 185.021767 71.617808 
L 185.451471 71.617808 
L 185.451471 71.617808 
L 185.451471 71.617808 
L 185.881175 71.617808 
L 185.881175 71.617808 
L 185.881175 71.617808 
L 186.310879 71.617808 
L 186.310879 71.617808 
L 186.310879 71.617808 
L 186.740583 71.617808 
L 186.740583 71.617808 
L 186.740583 71.617808 
L 187.170287 71.617808 
L 187.170287 71.617808 
L 187.170287 71.617808 
L 187.599991 71.617808 
L 187.599991 71.617808 
L 187.599991 71.617808 
L 188.029696 71.617808 
L 188.029696 71.617808 
L 188.029696 71.617808 
L 188.4594 71.617808 
L 188.4594 71.617808 
L 188.4594 71.617808 
L 188.889104 71.617808 
L 188.889104 71.617808 
L 188.889104 71.617808 
L 189.318808 71.617808 
L 189.318808 71.617808 
L 189.318808 71.617808 
L 189.748512 71.617808 
L 189.748512 71.617808 
L 189.748512 71.617808 
L 190.178216 71.617808 
L 190.178216 71.617808 
L 190.178216 71.617808 
L 190.60792 71.617808 
L 190.60792 71.617808 
L 190.60792 71.617808 
L 191.037624 71.617808 
L 191.037624 71.617808 
L 191.037624 71.617808 
L 191.467328 71.617808 
L 191.467328 71.617808 
L 191.467328 71.617808 
L 191.897032 71.617808 
L 191.897032 71.617808 
L 191.897032 71.617808 
L 192.326736 71.617808 
L 192.326736 71.617808 
L 192.326736 71.617808 
L 192.75644 71.617808 
L 192.75644 71.617808 
L 192.75644 71.617808 
L 193.186144 71.617808 
L 193.186144 71.617808 
L 193.186144 71.617808 
L 193.615849 71.617808 
L 193.615849 71.617808 
L 193.615849 71.617808 
L 194.045553 71.617808 
L 194.045553 71.617808 
L 194.045553 71.617808 
L 194.475257 71.617808 
L 194.475257 71.617808 
L 194.475257 71.617808 
L 194.904961 71.617808 
L 194.904961 71.617808 
L 194.904961 71.617808 
L 195.334665 71.617808 
L 195.334665 71.617808 
L 195.334665 71.617808 
L 195.764369 71.617808 
L 195.764369 71.617808 
L 195.764369 71.617808 
L 196.194073 71.617808 
L 196.194073 71.617808 
L 196.194073 71.617808 
L 196.623777 71.617808 
L 196.623777 71.617808 
L 196.623777 71.617808 
L 197.053481 71.617808 
L 197.053481 71.617808 
L 197.053481 71.617808 
L 197.483185 71.617808 
L 197.483185 71.617808 
L 197.483185 71.617808 
L 197.912889 71.617808 
L 197.912889 71.617808 
L 197.912889 71.617808 
L 198.342593 71.617808 
L 198.342593 71.617808 
L 198.342593 71.617808 
L 198.772297 71.617808 
L 198.772297 71.617808 
L 198.772297 71.617808 
L 199.202001 71.617808 
L 199.202001 71.617808 
L 199.202001 71.617808 
L 199.631706 71.617808 
L 199.631706 71.617808 
L 199.631706 71.617808 
L 200.06141 71.617808 
L 200.06141 71.617808 
L 200.06141 71.617808 
L 200.491114 71.617808 
L 200.491114 71.617808 
L 200.491114 71.617808 
L 200.920818 71.617808 
L 200.920818 71.617808 
L 200.920818 71.617808 
L 201.350522 71.617808 
L 201.350522 71.617808 
L 201.350522 71.617808 
L 201.780226 71.617808 
L 201.780226 71.617808 
L 201.780226 71.617808 
L 202.20993 71.617808 
L 202.20993 71.617808 
L 202.20993 71.617808 
L 202.639634 71.617808 
L 202.639634 71.617808 
L 202.639634 71.617808 
L 203.069338 71.617808 
L 203.069338 71.617808 
L 203.069338 71.617808 
L 203.499042 71.617808 
L 203.499042 71.617808 
L 203.499042 71.617808 
L 203.928746 71.617808 
L 203.928746 71.617808 
L 203.928746 71.617808 
L 204.35845 71.617808 
L 204.35845 71.617808 
L 204.35845 71.617808 
L 204.788154 71.617808 
L 204.788154 71.617808 
L 204.788154 71.617808 
L 205.217859 71.617808 
L 205.217859 71.617808 
L 205.217859 71.617808 
L 205.647563 71.617808 
L 205.647563 71.617808 
L 205.647563 71.617808 
L 206.077267 71.617808 
L 206.077267 71.617808 
L 206.077267 71.617808 
L 206.506971 71.617808 
L 206.506971 71.617808 
L 206.506971 71.617808 
L 206.936675 71.617808 
L 206.936675 71.617808 
L 206.936675 71.617808 
L 207.366379 71.617808 
L 207.366379 71.617808 
L 207.366379 71.617808 
L 207.796083 71.617808 
L 207.796083 71.617808 
L 207.796083 71.617808 
L 208.225787 71.617808 
L 208.225787 71.617808 
L 208.225787 71.617808 
L 208.655491 71.617808 
L 208.655491 71.617808 
L 208.655491 71.617808 
L 209.085195 71.617808 
L 209.085195 71.617808 
L 209.085195 71.617808 
L 209.514899 71.617808 
L 209.514899 71.617808 
L 209.514899 71.617808 
L 209.944603 71.617808 
L 209.944603 71.617808 
L 209.944603 71.617808 
L 210.374307 71.617808 
L 210.374307 71.617808 
L 210.374307 71.617808 
L 210.804012 71.617808 
L 210.804012 71.617808 
L 210.804012 71.617808 
L 211.233716 71.617808 
L 211.233716 71.617808 
L 211.233716 71.617808 
L 211.66342 71.617808 
L 211.66342 71.617808 
L 211.66342 71.617808 
L 212.093124 71.617808 
L 212.093124 71.617808 
L 212.093124 71.617808 
L 212.522828 71.617808 
L 212.522828 71.617808 
L 212.522828 71.617808 
L 212.952532 71.617808 
L 212.952532 71.617808 
L 212.952532 71.617808 
L 213.382236 71.617808 
L 213.382236 71.617808 
L 213.382236 71.617808 
L 213.81194 71.617808 
L 213.81194 71.617808 
L 213.81194 71.617808 
L 214.241644 71.617808 
L 214.241644 71.617808 
L 214.241644 71.617808 
L 214.671348 71.617808 
L 214.671348 71.617808 
L 214.671348 71.617808 
L 215.101052 71.617808 
L 215.101052 71.617808 
L 215.101052 71.617808 
L 215.530756 71.617808 
L 215.530756 71.617808 
L 215.530756 71.617808 
L 215.96046 71.617808 
L 215.96046 71.617808 
L 215.96046 71.617808 
L 216.390165 71.617808 
L 216.390165 71.617808 
L 216.390165 71.617808 
L 216.819869 71.617808 
L 216.819869 71.617808 
L 216.819869 71.617808 
L 217.249573 71.617808 
L 217.249573 71.617808 
L 217.249573 71.617808 
L 217.679277 71.617808 
L 217.679277 71.617808 
L 217.679277 71.617808 
L 218.108981 71.617808 
L 218.108981 71.617808 
L 218.108981 71.617808 
L 218.538685 71.617808 
L 218.538685 71.617808 
L 218.538685 71.617808 
L 218.968389 71.617808 
L 218.968389 71.617808 
L 218.968389 71.617808 
L 219.398093 71.617808 
L 219.398093 71.617808 
L 219.398093 71.617808 
L 219.827797 71.617808 
L 219.827797 71.617808 
L 219.827797 71.617808 
L 220.257501 71.617808 
L 220.257501 71.617808 
L 220.257501 71.617808 
L 220.687205 71.617808 
L 220.687205 71.617808 
L 220.687205 71.617808 
L 221.116909 71.617808 
L 221.116909 71.617808 
L 221.116909 71.617808 
L 221.546613 71.617808 
L 221.546613 71.617808 
L 221.546613 71.617808 
L 221.976317 71.617808 
L 221.976317 71.617808 
L 221.976317 71.617808 
L 222.406022 71.617808 
L 222.406022 71.617808 
L 222.406022 71.617808 
L 222.835726 71.617808 
L 222.835726 71.617808 
L 222.835726 71.617808 
L 223.26543 71.617808 
L 223.26543 71.617808 
L 223.26543 71.617808 
L 223.695134 71.617808 
L 223.695134 71.617808 
L 223.695134 71.617808 
L 224.124838 71.617808 
L 224.124838 71.617808 
L 224.124838 71.617808 
L 224.554542 71.617808 
L 224.554542 71.617808 
L 224.554542 71.617808 
L 224.984246 71.617808 
L 224.984246 71.617808 
L 224.984246 71.617808 
L 225.41395 71.617808 
L 225.41395 71.617808 
L 225.41395 71.617808 
L 225.843654 71.617808 
L 225.843654 71.617808 
L 225.843654 71.617808 
L 226.273358 71.617808 
L 226.273358 71.617808 
L 226.273358 71.617808 
L 226.703062 71.617808 
L 226.703062 71.617808 
L 226.703062 71.617808 
L 227.132766 71.617808 
L 227.132766 71.617808 
L 227.132766 71.617808 
L 227.56247 71.617808 
L 227.56247 71.617808 
L 227.56247 71.617808 
L 227.992175 71.617808 
L 227.992175 71.617808 
L 227.992175 71.617808 
L 228.421879 71.617808 
L 228.421879 71.617808 
L 228.421879 71.617808 
L 228.851583 71.617808 
L 228.851583 71.617808 
L 228.851583 71.617808 
L 229.281287 71.617808 
L 229.281287 71.617808 
L 229.281287 71.617808 
L 229.710991 71.617808 
L 229.710991 71.617808 
L 229.710991 71.617808 
L 230.140695 71.617808 
L 230.140695 71.617808 
L 230.140695 71.617808 
L 230.570399 71.617808 
L 230.570399 71.617808 
L 230.570399 71.617808 
L 231.000103 71.617808 
L 231.000103 71.617808 
L 231.000103 71.617808 
L 231.429807 71.617808 
L 231.429807 71.617808 
L 231.429807 71.617808 
L 231.859511 71.617808 
L 231.859511 71.617808 
L 231.859511 71.617808 
L 232.289215 71.617808 
L 232.289215 71.617808 
L 232.289215 71.617808 
L 232.718919 71.617808 
L 232.718919 71.617808 
L 232.718919 71.617808 
L 233.148623 71.617808 
L 233.148623 71.617808 
L 233.148623 71.617808 
L 233.578328 71.617808 
L 233.578328 71.617808 
L 233.578328 71.617808 
L 234.008032 71.617808 
L 234.008032 71.617808 
L 234.008032 71.617808 
L 234.437736 71.617808 
L 234.437736 71.617808 
L 234.437736 71.617808 
L 234.86744 71.617808 
L 234.86744 71.617808 
L 234.86744 71.617808 
L 235.297144 71.617808 
L 235.297144 71.617808 
L 235.297144 71.617808 
L 235.726848 71.617808 
L 235.726848 71.617808 
L 235.726848 71.617808 
L 236.156552 71.617808 
L 236.156552 71.617808 
L 236.156552 71.617808 
L 236.586256 71.617808 
L 236.586256 71.617808 
L 236.586256 71.617808 
L 237.01596 71.617808 
L 237.01596 71.617808 
L 237.01596 71.617808 
L 237.445664 71.617808 
L 237.445664 71.617808 
L 237.445664 71.617808 
L 237.875368 71.617808 
L 237.875368 71.617808 
L 237.875368 71.617808 
L 238.305072 71.617808 
L 238.305072 71.617808 
L 238.305072 71.617808 
L 238.734776 71.617808 
L 238.734776 71.617808 
L 238.734776 71.617808 
L 239.164481 71.617808 
L 239.164481 71.617808 
L 239.164481 71.617808 
L 239.594185 71.617808 
L 239.594185 71.617808 
L 239.594185 71.617808 
L 240.023889 71.617808 
L 240.023889 71.617808 
L 240.023889 71.617808 
L 240.453593 71.617808 
L 240.453593 71.617808 
L 240.453593 71.617808 
L 240.883297 71.617808 
L 240.883297 71.617808 
L 240.883297 71.617808 
L 241.313001 71.617808 
L 241.313001 71.617808 
L 241.313001 71.617808 
L 241.742705 71.617808 
L 241.742705 71.617808 
L 241.742705 71.617808 
L 397.725284 71.617808 
L 397.725284 71.617808 
" style="fill:none;stroke:#1f77b4;stroke-linecap:square;stroke-width:1.5;"/>
   </g>
   <g id="patch_3">
    <path d="M 56.175 246.2 
L 56.175 26.8 
" style="fill:none;stroke:#000000;stroke-linecap:square;stroke-linejoin:miter;stroke-width:0.8;"/>
   </g>
   <g id="patch_4">
    <path d="M 413.989584 246.2 
L 413.989584 26.8 
" style="fill:none;stroke:#000000;stroke-linecap:square;stroke-linejoin:miter;stroke-width:0.8;"/>
   </g>
   <g id="patch_5">
    <path d="M 56.175 246.2 
L 413.989584 246.2 
" style="fill:none;stroke:#000000;stroke-linecap:square;stroke-linejoin:miter;stroke-width:0.8;"/>
   </g>
   <g id="patch_6">
    <path d="M 56.175 26.8 
L 413.989584 26.8 
" style="fill:none;stroke:#000000;stroke-linecap:square;stroke-linejoin:miter;stroke-width:0.8;"/>
   </g>
   <g id="text_20">
    <!-- Network Field Marginal -->
    <defs>
     <path d="M 9.8125 72.90625 
L 23.09375 72.90625 
L 55.421875 11.921875 
L 55.421875 72.90625 
L 64.984375 72.90625 
L 64.984375 0 
L 51.703125 0 
L 19.390625 60.984375 
L 19.390625 0 
L 9.8125 0 
z
" id="DejaVuSans-4e"/>
     <path d="M 18.3125 70.21875 
L 18.3125 54.6875 
L 36.8125 54.6875 
L 36.8125 47.703125 
L 18.3125 47.703125 
L 18.3125 18.015625 
Q 18.3125 11.328125 20.140625 9.421875 
Q 21.96875 7.515625 27.59375 7.515625 
L 36.8125 7.515625 
L 36.8125 0 
L 27.59375 0 
Q 17.1875 0 13.234375 3.875 
Q 9.28125 7.765625 9.28125 18.015625 
L 9.28125 47.703125 
L 2.6875 47.703125 
L 2.6875 54.6875 
L 9.28125 54.6875 
L 9.28125 70.21875 
z
" id="DejaVuSans-74"/>
     <path d="M 4.203125 54.6875 
L 13.1875 54.6875 
L 24.421875 12.015625 
L 35.59375 54.6875 
L 46.1875 54.6875 
L 57.421875 12.015625 
L 68.609375 54.6875 
L 77.59375 54.6875 
L 63.28125 0 
L 52.6875 0 
L 40.921875 44.828125 
L 29.109375 0 
L 18.5 0 
z
" id="DejaVuSans-77"/>
     <path d="M 41.109375 46.296875 
Q 39.59375 47.171875 37.8125 47.578125 
Q 36.03125 48 33.890625 48 
Q 26.265625 48 22.1875 43.046875 
Q 18.109375 38.09375 18.109375 28.8125 
L 18.109375 0 
L 9.078125 0 
L 9.078125 54.6875 
L 18.109375 54.6875 
L 18.109375 46.1875 
Q 20.953125 51.171875 25.484375 53.578125 
Q 30.03125 56 36.53125 56 
Q 37.453125 56 38.578125 55.875 
Q 39.703125 55.765625 41.0625 55.515625 
z
" id="DejaVuSans-72"/>
     <path d="M 9.078125 75.984375 
L 18.109375 75.984375 
L 18.109375 31.109375 
L 44.921875 54.6875 
L 56.390625 54.6875 
L 27.390625 29.109375 
L 57.625 0 
L 45.90625 0 
L 18.109375 26.703125 
L 18.109375 0 
L 9.078125 0 
z
" id="DejaVuSans-6b"/>
     <path id="DejaVuSans-20"/>
     <path d="M 9.8125 72.90625 
L 24.515625 72.90625 
L 43.109375 23.296875 
L 61.8125 72.90625 
L 76.515625 72.90625 
L 76.515625 0 
L 66.890625 0 
L 66.890625 64.015625 
L 48.09375 14.015625 
L 38.1875 14.015625 
L 19.390625 64.015625 
L 19.390625 0 
L 9.8125 0 
z
" id="DejaVuSans-4d"/>
     <path d="M 34.28125 27.484375 
Q 23.390625 27.484375 19.1875 25 
Q 14.984375 22.515625 14.984375 16.5 
Q 14.984375 11.71875 18.140625 8.90625 
Q 21.296875 6.109375 26.703125 6.109375 
Q 34.1875 6.109375 38.703125 11.40625 
Q 43.21875 16.703125 43.21875 25.484375 
L 43.21875 27.484375 
z
M 52.203125 31.203125 
L 52.203125 0 
L 43.21875 0 
L 43.21875 8.296875 
Q 40.140625 3.328125 35.546875 0.953125 
Q 30.953125 -1.421875 24.3125 -1.421875 
Q 15.921875 -1.421875 10.953125 3.296875 
Q 6 8.015625 6 15.921875 
Q 6 25.140625 12.171875 29.828125 
Q 18.359375 34.515625 30.609375 34.515625 
L 43.21875 34.515625 
L 43.21875 35.40625 
Q 43.21875 41.609375 39.140625 45 
Q 35.0625 48.390625 27.6875 48.390625 
Q 23 48.390625 18.546875 47.265625 
Q 14.109375 46.140625 10.015625 43.890625 
L 10.015625 52.203125 
Q 14.9375 54.109375 19.578125 55.046875 
Q 24.21875 56 28.609375 56 
Q 40.484375 56 46.34375 49.84375 
Q 52.203125 43.703125 52.203125 31.203125 
z
" id="DejaVuSans-61"/>
     <path d="M 45.40625 27.984375 
Q 45.40625 37.75 41.375 43.109375 
Q 37.359375 48.484375 30.078125 48.484375 
Q 22.859375 48.484375 18.828125 43.109375 
Q 14.796875 37.75 14.796875 27.984375 
Q 14.796875 18.265625 18.828125 12.890625 
Q 22.859375 7.515625 30.078125 7.515625 
Q 37.359375 7.515625 41.375 12.890625 
Q 45.40625 18.265625 45.40625 27.984375 
z
M 54.390625 6.78125 
Q 54.390625 -7.171875 48.1875 -13.984375 
Q 42 -20.796875 29.203125 -20.796875 
Q 24.46875 -20.796875 20.265625 -20.09375 
Q 16.0625 -19.390625 12.109375 -17.921875 
L 12.109375 -9.1875 
Q 16.0625 -11.328125 19.921875 -12.34375 
Q 23.78125 -13.375 27.78125 -13.375 
Q 36.625 -13.375 41.015625 -8.765625 
Q 45.40625 -4.15625 45.40625 5.171875 
L 45.40625 9.625 
Q 42.625 4.78125 38.28125 2.390625 
Q 33.9375 0 27.875 0 
Q 17.828125 0 11.671875 7.65625 
Q 5.515625 15.328125 5.515625 27.984375 
Q 5.515625 40.671875 11.671875 48.328125 
Q 17.828125 56 27.875 56 
Q 33.9375 56 38.28125 53.609375 
Q 42.625 51.21875 45.40625 46.390625 
L 45.40625 54.6875 
L 54.390625 54.6875 
z
" id="DejaVuSans-67"/>
    </defs>
    <g transform="translate(165.996042 20.8)scale(0.12 -0.12)">
     <use xlink:href="#DejaVuSans-4e"/>
     <use x="74.804688" xlink:href="#DejaVuSans-65"/>
     <use x="136.328125" xlink:href="#DejaVuSans-74"/>
     <use x="175.537109" xlink:href="#DejaVuSans-77"/>
     <use x="257.324219" xlink:href="#DejaVuSans-6f"/>
     <use x="318.505859" xlink:href="#DejaVuSans-72"/>
     <use x="359.619141" xlink:href="#DejaVuSans-6b"/>
     <use x="417.529297" xlink:href="#DejaVuSans-20"/>
     <use x="449.316406" xlink:href="#DejaVuSans-46"/>
     <use x="506.726562" xlink:href="#DejaVuSans-69"/>
     <use x="534.509766" xlink:href="#DejaVuSans-65"/>
     <use x="596.033203" xlink:href="#DejaVuSans-6c"/>
     <use x="623.816406" xlink:href="#DejaVuSans-64"/>
     <use x="687.292969" xlink:href="#DejaVuSans-20"/>
     <use x="719.080078" xlink:href="#DejaVuSans-4d"/>
     <use x="805.359375" xlink:href="#DejaVuSans-61"/>
     <use x="866.638672" xlink:href="#DejaVuSans-72"/>
     <use x="907.736328" xlink:href="#DejaVuSans-67"/>
     <use x="971.212891" xlink:href="#DejaVuSans-69"/>
     <use x="998.996094" xlink:href="#DejaVuSans-6e"/>
     <use x="1062.375" xlink:href="#DejaVuSans-61"/>
     <use x="1123.654297" xlink:href="#DejaVuSans-6c"/>
    </g>
   </g>
   <g id="legend_1">
    <g id="patch_7">
     <path d="M 301.220834 49.478125 
L 406.989584 49.478125 
Q 408.989584 49.478125 408.989584 47.478125 
L 408.989584 33.8 
Q 408.989584 31.8 406.989584 31.8 
L 301.220834 31.8 
Q 299.220834 31.8 299.220834 33.8 
L 299.220834 47.478125 
Q 299.220834 49.478125 301.220834 49.478125 
z
" style="fill:#ffffff;opacity:0.8;stroke:#cccccc;stroke-linejoin:miter;"/>
    </g>
    <g id="line2d_19">
     <path d="M 303.220834 39.898437 
L 323.220834 39.898437 
" style="fill:none;stroke:#1f77b4;stroke-linecap:square;stroke-width:1.5;"/>
    </g>
    <g id="line2d_20"/>
    <g id="text_21">
     <!-- 8 Hidden Units -->
     <defs>
      <path d="M 9.8125 72.90625 
L 19.671875 72.90625 
L 19.671875 43.015625 
L 55.515625 43.015625 
L 55.515625 72.90625 
L 65.375 72.90625 
L 65.375 0 
L 55.515625 0 
L 55.515625 34.71875 
L 19.671875 34.71875 
L 19.671875 0 
L 9.8125 0 
z
" id="DejaVuSans-48"/>
      <path d="M 8.6875 72.90625 
L 18.609375 72.90625 
L 18.609375 28.609375 
Q 18.609375 16.890625 22.84375 11.734375 
Q 27.09375 6.59375 36.625 6.59375 
Q 46.09375 6.59375 50.34375 11.734375 
Q 54.59375 16.890625 54.59375 28.609375 
L 54.59375 72.90625 
L 64.5 72.90625 
L 64.5 27.390625 
Q 64.5 13.140625 57.4375 5.859375 
Q 50.390625 -1.421875 36.625 -1.421875 
Q 22.796875 -1.421875 15.734375 5.859375 
Q 8.6875 13.140625 8.6875 27.390625 
z
" id="DejaVuSans-55"/>
     </defs>
     <g transform="translate(331.220834 43.398437)scale(0.1 -0.1)">
      <use xlink:href="#DejaVuSans-38"/>
      <use x="63.623047" xlink:href="#DejaVuSans-20"/>
      <use x="95.410156" xlink:href="#DejaVuSans-48"/>
      <use x="170.605469" xlink:href="#DejaVuSans-69"/>
      <use x="198.388672" xlink:href="#DejaVuSans-64"/>
      <use x="261.865234" xlink:href="#DejaVuSans-64"/>
      <use x="325.341797" xlink:href="#DejaVuSans-65"/>
      <use x="386.865234" xlink:href="#DejaVuSans-6e"/>
      <use x="450.244141" xlink:href="#DejaVuSans-20"/>
      <use x="482.03125" xlink:href="#DejaVuSans-55"/>
      <use x="555.224609" xlink:href="#DejaVuSans-6e"/>
      <use x="618.603516" xlink:href="#DejaVuSans-69"/>
      <use x="646.386719" xlink:href="#DejaVuSans-74"/>
      <use x="685.595703" xlink:href="#DejaVuSans-73"/>
     </g>
    </g>
   </g>
  </g>
 </g>
 <defs>
  <clipPath id="pb84117191f">
   <rect height="219.4" width="357.814584" x="56.175" y="26.8"/>
  </clipPath>
 </defs>
</svg>
