<?xml version="1.0" encoding="utf-8" standalone="no"?>
<!DOCTYPE svg PUBLIC "-//W3C//DTD SVG 1.1//EN"
  "http://www.w3.org/Graphics/SVG/1.1/DTD/svg11.dtd">
<!-- Created with matplotlib (http://matplotlib.org/) -->
<svg height="576pt" version="1.1" viewBox="0 0 576 576" width="576pt" xmlns="http://www.w3.org/2000/svg" xmlns:xlink="http://www.w3.org/1999/xlink">
 <defs>
  <style type="text/css">
*{stroke-linecap:butt;stroke-linejoin:round;}
  </style>
 </defs>
 <g id="figure_1">
  <g id="patch_1">
   <path d="M 0 576 
L 576 576 
L 576 0 
L 0 0 
z
" style="fill:#ffffff;"/>
  </g>
  <g id="axes_1">
   <g id="patch_2">
    <path d="M 72 504 
L 518.4 504 
L 518.4 69.12 
L 72 69.12 
z
" style="fill:#ffffff;"/>
   </g>
   <g id="matplotlib.axis_1">
    <g id="xtick_1">
     <g id="line2d_1">
      <defs>
       <path d="M 0 0 
L 0 3.5 
" id="m97aed93673" style="stroke:#000000;stroke-width:0.8;"/>
      </defs>
      <g>
       <use style="stroke:#000000;stroke-width:0.8;" x="92.290909" xlink:href="#m97aed93673" y="504"/>
      </g>
     </g>
     <g id="text_1">
      <!-- 0.0 -->
      <defs>
       <path d="M 31.78125 66.40625 
Q 24.171875 66.40625 20.328125 58.90625 
Q 16.5 51.421875 16.5 36.375 
Q 16.5 21.390625 20.328125 13.890625 
Q 24.171875 6.390625 31.78125 6.390625 
Q 39.453125 6.390625 43.28125 13.890625 
Q 47.125 21.390625 47.125 36.375 
Q 47.125 51.421875 43.28125 58.90625 
Q 39.453125 66.40625 31.78125 66.40625 
z
M 31.78125 74.21875 
Q 44.046875 74.21875 50.515625 64.515625 
Q 56.984375 54.828125 56.984375 36.375 
Q 56.984375 17.96875 50.515625 8.265625 
Q 44.046875 -1.421875 31.78125 -1.421875 
Q 19.53125 -1.421875 13.0625 8.265625 
Q 6.59375 17.96875 6.59375 36.375 
Q 6.59375 54.828125 13.0625 64.515625 
Q 19.53125 74.21875 31.78125 74.21875 
z
" id="DejaVuSans-30"/>
       <path d="M 10.6875 12.40625 
L 21 12.40625 
L 21 0 
L 10.6875 0 
z
" id="DejaVuSans-2e"/>
      </defs>
      <g transform="translate(79.568409 523.1575)scale(0.16 -0.16)">
       <use xlink:href="#DejaVuSans-30"/>
       <use x="63.623047" xlink:href="#DejaVuSans-2e"/>
       <use x="95.410156" xlink:href="#DejaVuSans-30"/>
      </g>
     </g>
    </g>
    <g id="xtick_2">
     <g id="line2d_2">
      <g>
       <use style="stroke:#000000;stroke-width:0.8;" x="160.495646" xlink:href="#m97aed93673" y="504"/>
      </g>
     </g>
     <g id="text_2">
      <!-- 0.5 -->
      <defs>
       <path d="M 10.796875 72.90625 
L 49.515625 72.90625 
L 49.515625 64.59375 
L 19.828125 64.59375 
L 19.828125 46.734375 
Q 21.96875 47.46875 24.109375 47.828125 
Q 26.265625 48.1875 28.421875 48.1875 
Q 40.625 48.1875 47.75 41.5 
Q 54.890625 34.8125 54.890625 23.390625 
Q 54.890625 11.625 47.5625 5.09375 
Q 40.234375 -1.421875 26.90625 -1.421875 
Q 22.3125 -1.421875 17.546875 -0.640625 
Q 12.796875 0.140625 7.71875 1.703125 
L 7.71875 11.625 
Q 12.109375 9.234375 16.796875 8.0625 
Q 21.484375 6.890625 26.703125 6.890625 
Q 35.15625 6.890625 40.078125 11.328125 
Q 45.015625 15.765625 45.015625 23.390625 
Q 45.015625 31 40.078125 35.4375 
Q 35.15625 39.890625 26.703125 39.890625 
Q 22.75 39.890625 18.8125 39.015625 
Q 14.890625 38.140625 10.796875 36.28125 
z
" id="DejaVuSans-35"/>
      </defs>
      <g transform="translate(147.773146 523.1575)scale(0.16 -0.16)">
       <use xlink:href="#DejaVuSans-30"/>
       <use x="63.623047" xlink:href="#DejaVuSans-2e"/>
       <use x="95.410156" xlink:href="#DejaVuSans-35"/>
      </g>
     </g>
    </g>
    <g id="xtick_3">
     <g id="line2d_3">
      <g>
       <use style="stroke:#000000;stroke-width:0.8;" x="228.700382" xlink:href="#m97aed93673" y="504"/>
      </g>
     </g>
     <g id="text_3">
      <!-- 1.0 -->
      <defs>
       <path d="M 12.40625 8.296875 
L 28.515625 8.296875 
L 28.515625 63.921875 
L 10.984375 60.40625 
L 10.984375 69.390625 
L 28.421875 72.90625 
L 38.28125 72.90625 
L 38.28125 8.296875 
L 54.390625 8.296875 
L 54.390625 0 
L 12.40625 0 
z
" id="DejaVuSans-31"/>
      </defs>
      <g transform="translate(215.977882 523.1575)scale(0.16 -0.16)">
       <use xlink:href="#DejaVuSans-31"/>
       <use x="63.623047" xlink:href="#DejaVuSans-2e"/>
       <use x="95.410156" xlink:href="#DejaVuSans-30"/>
      </g>
     </g>
    </g>
    <g id="xtick_4">
     <g id="line2d_4">
      <g>
       <use style="stroke:#000000;stroke-width:0.8;" x="296.905118" xlink:href="#m97aed93673" y="504"/>
      </g>
     </g>
     <g id="text_4">
      <!-- 1.5 -->
      <g transform="translate(284.182618 523.1575)scale(0.16 -0.16)">
       <use xlink:href="#DejaVuSans-31"/>
       <use x="63.623047" xlink:href="#DejaVuSans-2e"/>
       <use x="95.410156" xlink:href="#DejaVuSans-35"/>
      </g>
     </g>
    </g>
    <g id="xtick_5">
     <g id="line2d_5">
      <g>
       <use style="stroke:#000000;stroke-width:0.8;" x="365.109855" xlink:href="#m97aed93673" y="504"/>
      </g>
     </g>
     <g id="text_5">
      <!-- 2.0 -->
      <defs>
       <path d="M 19.1875 8.296875 
L 53.609375 8.296875 
L 53.609375 0 
L 7.328125 0 
L 7.328125 8.296875 
Q 12.9375 14.109375 22.625 23.890625 
Q 32.328125 33.6875 34.8125 36.53125 
Q 39.546875 41.84375 41.421875 45.53125 
Q 43.3125 49.21875 43.3125 52.78125 
Q 43.3125 58.59375 39.234375 62.25 
Q 35.15625 65.921875 28.609375 65.921875 
Q 23.96875 65.921875 18.8125 64.3125 
Q 13.671875 62.703125 7.8125 59.421875 
L 7.8125 69.390625 
Q 13.765625 71.78125 18.9375 73 
Q 24.125 74.21875 28.421875 74.21875 
Q 39.75 74.21875 46.484375 68.546875 
Q 53.21875 62.890625 53.21875 53.421875 
Q 53.21875 48.921875 51.53125 44.890625 
Q 49.859375 40.875 45.40625 35.40625 
Q 44.1875 33.984375 37.640625 27.21875 
Q 31.109375 20.453125 19.1875 8.296875 
z
" id="DejaVuSans-32"/>
      </defs>
      <g transform="translate(352.387355 523.1575)scale(0.16 -0.16)">
       <use xlink:href="#DejaVuSans-32"/>
       <use x="63.623047" xlink:href="#DejaVuSans-2e"/>
       <use x="95.410156" xlink:href="#DejaVuSans-30"/>
      </g>
     </g>
    </g>
    <g id="xtick_6">
     <g id="line2d_6">
      <g>
       <use style="stroke:#000000;stroke-width:0.8;" x="433.314591" xlink:href="#m97aed93673" y="504"/>
      </g>
     </g>
     <g id="text_6">
      <!-- 2.5 -->
      <g transform="translate(420.592091 523.1575)scale(0.16 -0.16)">
       <use xlink:href="#DejaVuSans-32"/>
       <use x="63.623047" xlink:href="#DejaVuSans-2e"/>
       <use x="95.410156" xlink:href="#DejaVuSans-35"/>
      </g>
     </g>
    </g>
    <g id="xtick_7">
     <g id="line2d_7">
      <g>
       <use style="stroke:#000000;stroke-width:0.8;" x="501.519328" xlink:href="#m97aed93673" y="504"/>
      </g>
     </g>
     <g id="text_7">
      <!-- 3.0 -->
      <defs>
       <path d="M 40.578125 39.3125 
Q 47.65625 37.796875 51.625 33 
Q 55.609375 28.21875 55.609375 21.1875 
Q 55.609375 10.40625 48.1875 4.484375 
Q 40.765625 -1.421875 27.09375 -1.421875 
Q 22.515625 -1.421875 17.65625 -0.515625 
Q 12.796875 0.390625 7.625 2.203125 
L 7.625 11.71875 
Q 11.71875 9.328125 16.59375 8.109375 
Q 21.484375 6.890625 26.8125 6.890625 
Q 36.078125 6.890625 40.9375 10.546875 
Q 45.796875 14.203125 45.796875 21.1875 
Q 45.796875 27.640625 41.28125 31.265625 
Q 36.765625 34.90625 28.71875 34.90625 
L 20.21875 34.90625 
L 20.21875 43.015625 
L 29.109375 43.015625 
Q 36.375 43.015625 40.234375 45.921875 
Q 44.09375 48.828125 44.09375 54.296875 
Q 44.09375 59.90625 40.109375 62.90625 
Q 36.140625 65.921875 28.71875 65.921875 
Q 24.65625 65.921875 20.015625 65.03125 
Q 15.375 64.15625 9.8125 62.3125 
L 9.8125 71.09375 
Q 15.4375 72.65625 20.34375 73.4375 
Q 25.25 74.21875 29.59375 74.21875 
Q 40.828125 74.21875 47.359375 69.109375 
Q 53.90625 64.015625 53.90625 55.328125 
Q 53.90625 49.265625 50.4375 45.09375 
Q 46.96875 40.921875 40.578125 39.3125 
z
" id="DejaVuSans-33"/>
      </defs>
      <g transform="translate(488.796828 523.1575)scale(0.16 -0.16)">
       <use xlink:href="#DejaVuSans-33"/>
       <use x="63.623047" xlink:href="#DejaVuSans-2e"/>
       <use x="95.410156" xlink:href="#DejaVuSans-30"/>
      </g>
     </g>
    </g>
    <g id="text_8">
     <!-- Time -->
     <defs>
      <path d="M -0.296875 72.90625 
L 61.375 72.90625 
L 61.375 64.59375 
L 35.5 64.59375 
L 35.5 0 
L 25.59375 0 
L 25.59375 64.59375 
L -0.296875 64.59375 
z
" id="DejaVuSans-54"/>
      <path d="M 9.421875 54.6875 
L 18.40625 54.6875 
L 18.40625 0 
L 9.421875 0 
z
M 9.421875 75.984375 
L 18.40625 75.984375 
L 18.40625 64.59375 
L 9.421875 64.59375 
z
" id="DejaVuSans-69"/>
      <path d="M 52 44.1875 
Q 55.375 50.25 60.0625 53.125 
Q 64.75 56 71.09375 56 
Q 79.640625 56 84.28125 50.015625 
Q 88.921875 44.046875 88.921875 33.015625 
L 88.921875 0 
L 79.890625 0 
L 79.890625 32.71875 
Q 79.890625 40.578125 77.09375 44.375 
Q 74.3125 48.1875 68.609375 48.1875 
Q 61.625 48.1875 57.5625 43.546875 
Q 53.515625 38.921875 53.515625 30.90625 
L 53.515625 0 
L 44.484375 0 
L 44.484375 32.71875 
Q 44.484375 40.625 41.703125 44.40625 
Q 38.921875 48.1875 33.109375 48.1875 
Q 26.21875 48.1875 22.15625 43.53125 
Q 18.109375 38.875 18.109375 30.90625 
L 18.109375 0 
L 9.078125 0 
L 9.078125 54.6875 
L 18.109375 54.6875 
L 18.109375 46.1875 
Q 21.1875 51.21875 25.484375 53.609375 
Q 29.78125 56 35.6875 56 
Q 41.65625 56 45.828125 52.96875 
Q 50 49.953125 52 44.1875 
z
" id="DejaVuSans-6d"/>
      <path d="M 56.203125 29.59375 
L 56.203125 25.203125 
L 14.890625 25.203125 
Q 15.484375 15.921875 20.484375 11.0625 
Q 25.484375 6.203125 34.421875 6.203125 
Q 39.59375 6.203125 44.453125 7.46875 
Q 49.3125 8.734375 54.109375 11.28125 
L 54.109375 2.78125 
Q 49.265625 0.734375 44.1875 -0.34375 
Q 39.109375 -1.421875 33.890625 -1.421875 
Q 20.796875 -1.421875 13.15625 6.1875 
Q 5.515625 13.8125 5.515625 26.8125 
Q 5.515625 40.234375 12.765625 48.109375 
Q 20.015625 56 32.328125 56 
Q 43.359375 56 49.78125 48.890625 
Q 56.203125 41.796875 56.203125 29.59375 
z
M 47.21875 32.234375 
Q 47.125 39.59375 43.09375 43.984375 
Q 39.0625 48.390625 32.421875 48.390625 
Q 24.90625 48.390625 20.390625 44.140625 
Q 15.875 39.890625 15.1875 32.171875 
z
" id="DejaVuSans-65"/>
     </defs>
     <g transform="translate(275.38 542.6425)scale(0.16 -0.16)">
      <use xlink:href="#DejaVuSans-54"/>
      <use x="61.037109" xlink:href="#DejaVuSans-69"/>
      <use x="88.820312" xlink:href="#DejaVuSans-6d"/>
      <use x="186.232422" xlink:href="#DejaVuSans-65"/>
     </g>
    </g>
   </g>
   <g id="matplotlib.axis_2">
    <g id="ytick_1">
     <g id="line2d_8">
      <defs>
       <path d="M 0 0 
L -3.5 0 
" id="md3084532f2" style="stroke:#000000;stroke-width:0.8;"/>
      </defs>
      <g>
       <use style="stroke:#000000;stroke-width:0.8;" x="72" xlink:href="#md3084532f2" y="466.672449"/>
      </g>
     </g>
     <g id="text_9">
      <!-- 0.05 -->
      <g transform="translate(29.375 472.751199)scale(0.16 -0.16)">
       <use xlink:href="#DejaVuSans-30"/>
       <use x="63.623047" xlink:href="#DejaVuSans-2e"/>
       <use x="95.410156" xlink:href="#DejaVuSans-30"/>
       <use x="159.033203" xlink:href="#DejaVuSans-35"/>
      </g>
     </g>
    </g>
    <g id="ytick_2">
     <g id="line2d_9">
      <g>
       <use style="stroke:#000000;stroke-width:0.8;" x="72" xlink:href="#md3084532f2" y="409.394145"/>
      </g>
     </g>
     <g id="text_10">
      <!-- 0.10 -->
      <g transform="translate(29.375 415.472895)scale(0.16 -0.16)">
       <use xlink:href="#DejaVuSans-30"/>
       <use x="63.623047" xlink:href="#DejaVuSans-2e"/>
       <use x="95.410156" xlink:href="#DejaVuSans-31"/>
       <use x="159.033203" xlink:href="#DejaVuSans-30"/>
      </g>
     </g>
    </g>
    <g id="ytick_3">
     <g id="line2d_10">
      <g>
       <use style="stroke:#000000;stroke-width:0.8;" x="72" xlink:href="#md3084532f2" y="352.115841"/>
      </g>
     </g>
     <g id="text_11">
      <!-- 0.15 -->
      <g transform="translate(29.375 358.194591)scale(0.16 -0.16)">
       <use xlink:href="#DejaVuSans-30"/>
       <use x="63.623047" xlink:href="#DejaVuSans-2e"/>
       <use x="95.410156" xlink:href="#DejaVuSans-31"/>
       <use x="159.033203" xlink:href="#DejaVuSans-35"/>
      </g>
     </g>
    </g>
    <g id="ytick_4">
     <g id="line2d_11">
      <g>
       <use style="stroke:#000000;stroke-width:0.8;" x="72" xlink:href="#md3084532f2" y="294.837536"/>
      </g>
     </g>
     <g id="text_12">
      <!-- 0.20 -->
      <g transform="translate(29.375 300.916286)scale(0.16 -0.16)">
       <use xlink:href="#DejaVuSans-30"/>
       <use x="63.623047" xlink:href="#DejaVuSans-2e"/>
       <use x="95.410156" xlink:href="#DejaVuSans-32"/>
       <use x="159.033203" xlink:href="#DejaVuSans-30"/>
      </g>
     </g>
    </g>
    <g id="ytick_5">
     <g id="line2d_12">
      <g>
       <use style="stroke:#000000;stroke-width:0.8;" x="72" xlink:href="#md3084532f2" y="237.559232"/>
      </g>
     </g>
     <g id="text_13">
      <!-- 0.25 -->
      <g transform="translate(29.375 243.637982)scale(0.16 -0.16)">
       <use xlink:href="#DejaVuSans-30"/>
       <use x="63.623047" xlink:href="#DejaVuSans-2e"/>
       <use x="95.410156" xlink:href="#DejaVuSans-32"/>
       <use x="159.033203" xlink:href="#DejaVuSans-35"/>
      </g>
     </g>
    </g>
    <g id="ytick_6">
     <g id="line2d_13">
      <g>
       <use style="stroke:#000000;stroke-width:0.8;" x="72" xlink:href="#md3084532f2" y="180.280927"/>
      </g>
     </g>
     <g id="text_14">
      <!-- 0.30 -->
      <g transform="translate(29.375 186.359677)scale(0.16 -0.16)">
       <use xlink:href="#DejaVuSans-30"/>
       <use x="63.623047" xlink:href="#DejaVuSans-2e"/>
       <use x="95.410156" xlink:href="#DejaVuSans-33"/>
       <use x="159.033203" xlink:href="#DejaVuSans-30"/>
      </g>
     </g>
    </g>
    <g id="ytick_7">
     <g id="line2d_14">
      <g>
       <use style="stroke:#000000;stroke-width:0.8;" x="72" xlink:href="#md3084532f2" y="123.002623"/>
      </g>
     </g>
     <g id="text_15">
      <!-- 0.35 -->
      <g transform="translate(29.375 129.081373)scale(0.16 -0.16)">
       <use xlink:href="#DejaVuSans-30"/>
       <use x="63.623047" xlink:href="#DejaVuSans-2e"/>
       <use x="95.410156" xlink:href="#DejaVuSans-33"/>
       <use x="159.033203" xlink:href="#DejaVuSans-35"/>
      </g>
     </g>
    </g>
    <g id="text_16">
     <!-- Bacteria Counts -->
     <defs>
      <path d="M 19.671875 34.8125 
L 19.671875 8.109375 
L 35.5 8.109375 
Q 43.453125 8.109375 47.28125 11.40625 
Q 51.125 14.703125 51.125 21.484375 
Q 51.125 28.328125 47.28125 31.5625 
Q 43.453125 34.8125 35.5 34.8125 
z
M 19.671875 64.796875 
L 19.671875 42.828125 
L 34.28125 42.828125 
Q 41.5 42.828125 45.03125 45.53125 
Q 48.578125 48.25 48.578125 53.8125 
Q 48.578125 59.328125 45.03125 62.0625 
Q 41.5 64.796875 34.28125 64.796875 
z
M 9.8125 72.90625 
L 35.015625 72.90625 
Q 46.296875 72.90625 52.390625 68.21875 
Q 58.5 63.53125 58.5 54.890625 
Q 58.5 48.1875 55.375 44.234375 
Q 52.25 40.28125 46.1875 39.3125 
Q 53.46875 37.75 57.5 32.78125 
Q 61.53125 27.828125 61.53125 20.40625 
Q 61.53125 10.640625 54.890625 5.3125 
Q 48.25 0 35.984375 0 
L 9.8125 0 
z
" id="DejaVuSans-42"/>
      <path d="M 34.28125 27.484375 
Q 23.390625 27.484375 19.1875 25 
Q 14.984375 22.515625 14.984375 16.5 
Q 14.984375 11.71875 18.140625 8.90625 
Q 21.296875 6.109375 26.703125 6.109375 
Q 34.1875 6.109375 38.703125 11.40625 
Q 43.21875 16.703125 43.21875 25.484375 
L 43.21875 27.484375 
z
M 52.203125 31.203125 
L 52.203125 0 
L 43.21875 0 
L 43.21875 8.296875 
Q 40.140625 3.328125 35.546875 0.953125 
Q 30.953125 -1.421875 24.3125 -1.421875 
Q 15.921875 -1.421875 10.953125 3.296875 
Q 6 8.015625 6 15.921875 
Q 6 25.140625 12.171875 29.828125 
Q 18.359375 34.515625 30.609375 34.515625 
L 43.21875 34.515625 
L 43.21875 35.40625 
Q 43.21875 41.609375 39.140625 45 
Q 35.0625 48.390625 27.6875 48.390625 
Q 23 48.390625 18.546875 47.265625 
Q 14.109375 46.140625 10.015625 43.890625 
L 10.015625 52.203125 
Q 14.9375 54.109375 19.578125 55.046875 
Q 24.21875 56 28.609375 56 
Q 40.484375 56 46.34375 49.84375 
Q 52.203125 43.703125 52.203125 31.203125 
z
" id="DejaVuSans-61"/>
      <path d="M 48.78125 52.59375 
L 48.78125 44.1875 
Q 44.96875 46.296875 41.140625 47.34375 
Q 37.3125 48.390625 33.40625 48.390625 
Q 24.65625 48.390625 19.8125 42.84375 
Q 14.984375 37.3125 14.984375 27.296875 
Q 14.984375 17.28125 19.8125 11.734375 
Q 24.65625 6.203125 33.40625 6.203125 
Q 37.3125 6.203125 41.140625 7.25 
Q 44.96875 8.296875 48.78125 10.40625 
L 48.78125 2.09375 
Q 45.015625 0.34375 40.984375 -0.53125 
Q 36.96875 -1.421875 32.421875 -1.421875 
Q 20.0625 -1.421875 12.78125 6.34375 
Q 5.515625 14.109375 5.515625 27.296875 
Q 5.515625 40.671875 12.859375 48.328125 
Q 20.21875 56 33.015625 56 
Q 37.15625 56 41.109375 55.140625 
Q 45.0625 54.296875 48.78125 52.59375 
z
" id="DejaVuSans-63"/>
      <path d="M 18.3125 70.21875 
L 18.3125 54.6875 
L 36.8125 54.6875 
L 36.8125 47.703125 
L 18.3125 47.703125 
L 18.3125 18.015625 
Q 18.3125 11.328125 20.140625 9.421875 
Q 21.96875 7.515625 27.59375 7.515625 
L 36.8125 7.515625 
L 36.8125 0 
L 27.59375 0 
Q 17.1875 0 13.234375 3.875 
Q 9.28125 7.765625 9.28125 18.015625 
L 9.28125 47.703125 
L 2.6875 47.703125 
L 2.6875 54.6875 
L 9.28125 54.6875 
L 9.28125 70.21875 
z
" id="DejaVuSans-74"/>
      <path d="M 41.109375 46.296875 
Q 39.59375 47.171875 37.8125 47.578125 
Q 36.03125 48 33.890625 48 
Q 26.265625 48 22.1875 43.046875 
Q 18.109375 38.09375 18.109375 28.8125 
L 18.109375 0 
L 9.078125 0 
L 9.078125 54.6875 
L 18.109375 54.6875 
L 18.109375 46.1875 
Q 20.953125 51.171875 25.484375 53.578125 
Q 30.03125 56 36.53125 56 
Q 37.453125 56 38.578125 55.875 
Q 39.703125 55.765625 41.0625 55.515625 
z
" id="DejaVuSans-72"/>
      <path id="DejaVuSans-20"/>
      <path d="M 64.40625 67.28125 
L 64.40625 56.890625 
Q 59.421875 61.53125 53.78125 63.8125 
Q 48.140625 66.109375 41.796875 66.109375 
Q 29.296875 66.109375 22.65625 58.46875 
Q 16.015625 50.828125 16.015625 36.375 
Q 16.015625 21.96875 22.65625 14.328125 
Q 29.296875 6.6875 41.796875 6.6875 
Q 48.140625 6.6875 53.78125 8.984375 
Q 59.421875 11.28125 64.40625 15.921875 
L 64.40625 5.609375 
Q 59.234375 2.09375 53.4375 0.328125 
Q 47.65625 -1.421875 41.21875 -1.421875 
Q 24.65625 -1.421875 15.125 8.703125 
Q 5.609375 18.84375 5.609375 36.375 
Q 5.609375 53.953125 15.125 64.078125 
Q 24.65625 74.21875 41.21875 74.21875 
Q 47.75 74.21875 53.53125 72.484375 
Q 59.328125 70.75 64.40625 67.28125 
z
" id="DejaVuSans-43"/>
      <path d="M 30.609375 48.390625 
Q 23.390625 48.390625 19.1875 42.75 
Q 14.984375 37.109375 14.984375 27.296875 
Q 14.984375 17.484375 19.15625 11.84375 
Q 23.34375 6.203125 30.609375 6.203125 
Q 37.796875 6.203125 41.984375 11.859375 
Q 46.1875 17.53125 46.1875 27.296875 
Q 46.1875 37.015625 41.984375 42.703125 
Q 37.796875 48.390625 30.609375 48.390625 
z
M 30.609375 56 
Q 42.328125 56 49.015625 48.375 
Q 55.71875 40.765625 55.71875 27.296875 
Q 55.71875 13.875 49.015625 6.21875 
Q 42.328125 -1.421875 30.609375 -1.421875 
Q 18.84375 -1.421875 12.171875 6.21875 
Q 5.515625 13.875 5.515625 27.296875 
Q 5.515625 40.765625 12.171875 48.375 
Q 18.84375 56 30.609375 56 
z
" id="DejaVuSans-6f"/>
      <path d="M 8.5 21.578125 
L 8.5 54.6875 
L 17.484375 54.6875 
L 17.484375 21.921875 
Q 17.484375 14.15625 20.5 10.265625 
Q 23.53125 6.390625 29.59375 6.390625 
Q 36.859375 6.390625 41.078125 11.03125 
Q 45.3125 15.671875 45.3125 23.6875 
L 45.3125 54.6875 
L 54.296875 54.6875 
L 54.296875 0 
L 45.3125 0 
L 45.3125 8.40625 
Q 42.046875 3.421875 37.71875 1 
Q 33.40625 -1.421875 27.6875 -1.421875 
Q 18.265625 -1.421875 13.375 4.4375 
Q 8.5 10.296875 8.5 21.578125 
z
M 31.109375 56 
z
" id="DejaVuSans-75"/>
      <path d="M 54.890625 33.015625 
L 54.890625 0 
L 45.90625 0 
L 45.90625 32.71875 
Q 45.90625 40.484375 42.875 44.328125 
Q 39.84375 48.1875 33.796875 48.1875 
Q 26.515625 48.1875 22.3125 43.546875 
Q 18.109375 38.921875 18.109375 30.90625 
L 18.109375 0 
L 9.078125 0 
L 9.078125 54.6875 
L 18.109375 54.6875 
L 18.109375 46.1875 
Q 21.34375 51.125 25.703125 53.5625 
Q 30.078125 56 35.796875 56 
Q 45.21875 56 50.046875 50.171875 
Q 54.890625 44.34375 54.890625 33.015625 
z
" id="DejaVuSans-6e"/>
      <path d="M 44.28125 53.078125 
L 44.28125 44.578125 
Q 40.484375 46.53125 36.375 47.5 
Q 32.28125 48.484375 27.875 48.484375 
Q 21.1875 48.484375 17.84375 46.4375 
Q 14.5 44.390625 14.5 40.28125 
Q 14.5 37.15625 16.890625 35.375 
Q 19.28125 33.59375 26.515625 31.984375 
L 29.59375 31.296875 
Q 39.15625 29.25 43.1875 25.515625 
Q 47.21875 21.78125 47.21875 15.09375 
Q 47.21875 7.46875 41.1875 3.015625 
Q 35.15625 -1.421875 24.609375 -1.421875 
Q 20.21875 -1.421875 15.453125 -0.5625 
Q 10.6875 0.296875 5.421875 2 
L 5.421875 11.28125 
Q 10.40625 8.6875 15.234375 7.390625 
Q 20.0625 6.109375 24.8125 6.109375 
Q 31.15625 6.109375 34.5625 8.28125 
Q 37.984375 10.453125 37.984375 14.40625 
Q 37.984375 18.0625 35.515625 20.015625 
Q 33.0625 21.96875 24.703125 23.78125 
L 21.578125 24.515625 
Q 13.234375 26.265625 9.515625 29.90625 
Q 5.8125 33.546875 5.8125 39.890625 
Q 5.8125 47.609375 11.28125 51.796875 
Q 16.75 56 26.8125 56 
Q 31.78125 56 36.171875 55.265625 
Q 40.578125 54.546875 44.28125 53.078125 
z
" id="DejaVuSans-73"/>
     </defs>
     <g transform="translate(22.0475 350.29)rotate(-90)scale(0.16 -0.16)">
      <use xlink:href="#DejaVuSans-42"/>
      <use x="68.603516" xlink:href="#DejaVuSans-61"/>
      <use x="129.882812" xlink:href="#DejaVuSans-63"/>
      <use x="184.863281" xlink:href="#DejaVuSans-74"/>
      <use x="224.072266" xlink:href="#DejaVuSans-65"/>
      <use x="285.595703" xlink:href="#DejaVuSans-72"/>
      <use x="326.708984" xlink:href="#DejaVuSans-69"/>
      <use x="354.492188" xlink:href="#DejaVuSans-61"/>
      <use x="415.771484" xlink:href="#DejaVuSans-20"/>
      <use x="447.558594" xlink:href="#DejaVuSans-43"/>
      <use x="517.382812" xlink:href="#DejaVuSans-6f"/>
      <use x="578.564453" xlink:href="#DejaVuSans-75"/>
      <use x="641.943359" xlink:href="#DejaVuSans-6e"/>
      <use x="705.322266" xlink:href="#DejaVuSans-74"/>
      <use x="744.53125" xlink:href="#DejaVuSans-73"/>
     </g>
    </g>
   </g>
   <g id="line2d_15">
    <path clip-path="url(#pe6f7edd821)" d="M 92.290909 484.232727 
L 95.701146 482.579292 
L 99.111383 480.867473 
L 102.52162 479.096007 
L 105.931856 477.263673 
L 109.342093 475.369292 
L 112.75233 473.411741 
L 116.162567 471.389961 
L 119.572804 469.302961 
L 122.98304 467.149829 
L 126.393277 464.929746 
L 129.803514 462.641988 
L 133.213751 460.285943 
L 136.623988 457.861119 
L 140.034225 455.367157 
L 143.444461 452.803839 
L 146.854698 450.171106 
L 150.264935 447.469063 
L 153.675172 444.697998 
L 157.085409 441.858391 
L 160.495646 438.950929 
L 163.905882 435.976515 
L 167.316119 432.936285 
L 170.726356 429.831618 
L 174.136593 426.664147 
L 177.54683 423.435773 
L 180.957066 420.148674 
L 184.367303 416.805315 
L 187.77754 413.408459 
L 191.187777 409.961172 
L 194.598014 406.466831 
L 198.008251 402.929131 
L 201.418487 399.352086 
L 204.828724 395.74003 
L 208.238961 392.097618 
L 211.649198 388.429826 
L 215.059435 384.74194 
L 218.469672 381.039552 
L 221.879908 377.328552 
L 225.290145 373.615111 
L 228.700382 369.905668 
L 232.110619 366.206909 
L 235.520856 362.525749 
L 238.931092 358.869304 
L 242.341329 355.24487 
L 245.751566 351.659884 
L 249.161803 348.121901 
L 252.57204 344.638553 
L 255.982277 341.217516 
L 259.392513 337.86647 
L 262.80275 334.593059 
L 266.212987 331.404851 
L 269.623224 328.309294 
L 273.033461 325.313675 
L 276.443697 322.425079 
L 279.853934 319.650344 
L 283.264171 316.996024 
L 286.674408 314.46835 
L 290.084645 312.073188 
L 293.494882 309.816011 
L 296.905118 307.70186 
L 300.315355 305.735323 
L 303.725592 303.9205 
L 307.135829 302.260992 
L 310.546066 300.759873 
L 313.956303 299.419683 
L 317.366539 298.242419 
L 320.776776 297.229523 
L 324.187013 296.38189 
L 327.59725 295.699865 
L 331.007487 295.183254 
L 334.417723 294.831334 
L 337.82796 294.642869 
L 341.238197 294.616125 
L 344.648434 294.748899 
L 348.058671 295.038535 
L 351.468908 295.481955 
L 354.879144 296.075688 
L 358.289381 296.8159 
L 361.699618 297.698422 
L 365.109855 298.718791 
L 368.520092 299.872271 
L 371.930328 301.153899 
L 375.340565 302.558509 
L 378.750802 304.080767 
L 382.161039 305.715205 
L 385.571276 307.456251 
L 388.981513 309.298255 
L 392.391749 311.235525 
L 395.801986 313.262347 
L 399.212223 315.373012 
L 402.62246 317.561843 
L 406.032697 319.823213 
L 409.442934 322.151566 
L 412.85317 324.541434 
L 416.263407 326.987459 
L 419.673644 329.484397 
L 423.083881 332.027142 
L 426.494118 334.610729 
L 429.904354 337.230347 
L 433.314591 339.881346 
L 436.724828 342.559243 
L 440.135065 345.259727 
L 443.545302 347.978666 
L 446.955539 350.712102 
L 450.365775 353.45626 
L 453.776012 356.207545 
L 457.186249 358.96254 
L 460.596486 361.718007 
L 464.006723 364.470886 
L 467.41696 367.218289 
L 470.827196 369.957497 
L 474.237433 372.685962 
L 477.64767 375.401293 
L 481.057907 378.101261 
L 484.468144 380.783787 
L 487.87838 383.446943 
L 491.288617 386.088942 
L 494.698854 388.708135 
L 498.109091 391.303004 
" style="fill:none;stroke:#124984;stroke-linecap:square;stroke-width:1.5;"/>
   </g>
   <g id="line2d_16">
    <path clip-path="url(#pe6f7edd821)" d="M 92.290909 484.232727 
L 95.701146 482.480897 
L 99.111383 480.662833 
L 102.52162 478.776928 
L 105.931856 476.821612 
L 109.342093 474.795363 
L 112.75233 472.696721 
L 116.162567 470.524292 
L 119.572804 468.276761 
L 122.98304 465.952906 
L 126.393277 463.55161 
L 129.803514 461.071869 
L 133.213751 458.512814 
L 136.623988 455.873719 
L 140.034225 453.154019 
L 143.444461 450.353325 
L 146.854698 447.47144 
L 150.264935 444.508375 
L 153.675172 441.464368 
L 157.085409 438.339897 
L 160.495646 435.135702 
L 163.905882 431.8528 
L 167.316119 428.492502 
L 170.726356 425.056427 
L 174.136593 421.546526 
L 177.54683 417.965089 
L 180.957066 414.314762 
L 184.367303 410.598565 
L 187.77754 406.819897 
L 191.187777 402.982549 
L 194.598014 399.090714 
L 198.008251 395.148991 
L 201.418487 391.162386 
L 204.828724 387.13632 
L 208.238961 383.076617 
L 211.649198 378.989506 
L 215.059435 374.881609 
L 218.469672 370.759929 
L 221.879908 366.63183 
L 225.290145 362.505021 
L 228.700382 358.38753 
L 232.110619 354.287675 
L 235.520856 350.214029 
L 238.931092 346.17539 
L 242.341329 342.180733 
L 245.751566 338.239174 
L 249.161803 334.359916 
L 252.57204 330.552206 
L 255.982277 326.82528 
L 259.392513 323.188308 
L 262.80275 319.650344 
L 266.212987 316.220264 
L 269.623224 312.906718 
L 273.033461 309.718067 
L 276.443697 306.662336 
L 279.853934 303.747159 
L 283.264171 300.979729 
L 286.674408 298.366757 
L 290.084645 295.914423 
L 293.494882 293.628343 
L 296.905118 291.513535 
L 300.315355 289.574391 
L 303.725592 287.814654 
L 307.135829 286.237401 
L 310.546066 284.845034 
L 313.956303 283.639274 
L 317.366539 282.621161 
L 320.776776 281.791059 
L 324.187013 281.148672 
L 327.59725 280.693058 
L 331.007487 280.422649 
L 334.417723 280.335282 
L 337.82796 280.428224 
L 341.238197 280.698207 
L 344.648434 281.141462 
L 348.058671 281.753763 
L 351.468908 282.53046 
L 354.879144 283.466524 
L 358.289381 284.556589 
L 361.699618 285.794993 
L 365.109855 287.175821 
L 368.520092 288.692946 
L 371.930328 290.34007 
L 375.340565 292.110763 
L 378.750802 293.998498 
L 382.161039 295.996693 
L 385.571276 298.098737 
L 388.981513 300.298028 
L 392.391749 302.587997 
L 395.801986 304.962139 
L 399.212223 307.414035 
L 402.62246 309.937375 
L 406.032697 312.525976 
L 409.442934 315.173803 
L 412.85317 317.87498 
L 416.263407 320.623806 
L 419.673644 323.414761 
L 423.083881 326.242524 
L 426.494118 329.101968 
L 429.904354 331.988176 
L 433.314591 334.896438 
L 436.724828 337.822257 
L 440.135065 340.761348 
L 443.545302 343.709636 
L 446.955539 346.663261 
L 450.365775 349.618568 
L 453.776012 352.57211 
L 457.186249 355.52064 
L 460.596486 358.46111 
L 464.006723 361.390664 
L 467.41696 364.306632 
L 470.827196 367.206525 
L 474.237433 370.088032 
L 477.64767 372.949007 
L 481.057907 375.78747 
L 484.468144 378.601594 
L 487.87838 381.389704 
L 491.288617 384.150267 
L 494.698854 386.881886 
L 498.109091 389.583293 
" style="fill:none;stroke:#1f63a8;stroke-linecap:square;stroke-width:1.5;"/>
   </g>
   <g id="line2d_17">
    <path clip-path="url(#pe6f7edd821)" d="M 92.290909 484.232727 
L 95.701146 482.38228 
L 99.111383 480.457276 
L 102.52162 478.455712 
L 105.931856 476.375624 
L 109.342093 474.215099 
L 112.75233 471.972285 
L 116.162567 469.645406 
L 119.572804 467.232777 
L 122.98304 464.732815 
L 126.393277 462.14406 
L 129.803514 459.465189 
L 133.213751 456.695034 
L 136.623988 453.832602 
L 140.034225 450.877094 
L 143.444461 447.827927 
L 146.854698 444.684751 
L 150.264935 441.447478 
L 153.675172 438.116299 
L 157.085409 434.691708 
L 160.495646 431.174525 
L 163.905882 427.56592 
L 167.316119 423.867435 
L 170.726356 420.081005 
L 174.136593 416.208982 
L 177.54683 412.254151 
L 180.957066 408.219753 
L 184.367303 404.109502 
L 187.77754 399.927594 
L 191.187777 395.678727 
L 194.598014 391.368107 
L 198.008251 387.001451 
L 201.418487 382.584994 
L 204.828724 378.125487 
L 208.238961 373.630187 
L 211.649198 369.10685 
L 215.059435 364.563711 
L 218.469672 360.009469 
L 221.879908 355.453253 
L 225.290145 350.904596 
L 228.700382 346.373393 
L 232.110619 341.869861 
L 235.520856 337.404489 
L 238.931092 332.987985 
L 242.341329 328.631218 
L 245.751566 324.345157 
L 249.161803 320.140805 
L 252.57204 316.029131 
L 255.982277 312.020999 
L 259.392513 308.127095 
L 262.80275 304.357859 
L 266.212987 300.72341 
L 269.623224 297.233476 
L 273.033461 293.897331 
L 276.443697 290.723723 
L 279.853934 287.72082 
L 283.264171 284.896155 
L 286.674408 282.256572 
L 290.084645 279.808189 
L 293.494882 277.556357 
L 296.905118 275.505636 
L 300.315355 273.659773 
L 303.725592 272.021684 
L 307.135829 270.593457 
L 310.546066 269.376349 
L 313.956303 268.370796 
L 317.366539 267.576433 
L 320.776776 266.992112 
L 324.187013 266.615939 
L 327.59725 266.445302 
L 331.007487 266.476915 
L 334.417723 266.706859 
L 337.82796 267.130631 
L 341.238197 267.743194 
L 344.648434 268.539025 
L 348.058671 269.512172 
L 351.468908 270.656305 
L 354.879144 271.964767 
L 358.289381 273.43063 
L 361.699618 275.046743 
L 365.109855 276.805782 
L 368.520092 278.700297 
L 371.930328 280.72276 
L 375.340565 282.8656 
L 378.750802 285.121248 
L 382.161039 287.482173 
L 385.571276 289.940912 
L 388.981513 292.490103 
L 392.391749 295.122508 
L 395.801986 297.831044 
L 399.212223 300.608797 
L 402.62246 303.449041 
L 406.032697 306.345257 
L 409.442934 309.291145 
L 412.85317 312.280628 
L 416.263407 315.307868 
L 419.673644 318.367269 
L 423.083881 321.453477 
L 426.494118 324.561388 
L 429.904354 327.686145 
L 433.314591 330.82314 
L 436.724828 333.968007 
L 440.135065 337.116625 
L 443.545302 340.265108 
L 446.955539 343.409803 
L 450.365775 346.547286 
L 453.776012 349.674352 
L 457.186249 352.788011 
L 460.596486 355.885478 
L 464.006723 358.964168 
L 467.41696 362.021691 
L 470.827196 365.055836 
L 474.237433 368.064571 
L 477.64767 371.046033 
L 481.057907 373.998519 
L 484.468144 376.920479 
L 487.87838 379.810506 
L 491.288617 382.667335 
L 494.698854 385.489829 
L 498.109091 388.276975 
" style="fill:none;stroke:#2f79b5;stroke-linecap:square;stroke-width:1.5;"/>
   </g>
   <g id="line2d_18">
    <path clip-path="url(#pe6f7edd821)" d="M 92.290909 484.232727 
L 95.701146 482.283441 
L 99.111383 480.250797 
L 102.52162 478.132347 
L 105.931856 475.925681 
L 109.342093 473.628438 
L 112.75233 471.238327 
L 116.162567 468.753136 
L 119.572804 466.170755 
L 122.98304 463.489194 
L 126.393277 460.7066 
L 129.803514 457.821286 
L 133.213751 454.831745 
L 136.623988 451.736684 
L 140.034225 448.53504 
L 143.444461 445.226015 
L 146.854698 441.8091 
L 150.264935 438.284103 
L 153.675172 434.65118 
L 157.085409 430.910865 
L 160.495646 427.064098 
L 163.905882 423.112258 
L 167.316119 419.057191 
L 170.726356 414.901237 
L 174.136593 410.64726 
L 177.54683 406.298674 
L 180.957066 401.859466 
L 184.367303 397.334215 
L 187.77754 392.728113 
L 191.187777 388.046978 
L 194.598014 383.297263 
L 198.008251 378.486062 
L 201.418487 373.621109 
L 204.828724 368.71077 
L 208.238961 363.764033 
L 211.649198 358.790488 
L 215.059435 353.800296 
L 218.469672 348.804163 
L 221.879908 343.813291 
L 225.290145 338.839332 
L 228.700382 333.894336 
L 232.110619 328.99068 
L 235.520856 324.141004 
L 238.931092 319.358135 
L 242.341329 314.655004 
L 245.751566 310.044564 
L 249.161803 305.539696 
L 252.57204 301.153126 
L 255.982277 296.897325 
L 259.392513 292.784424 
L 262.80275 288.826118 
L 266.212987 285.033584 
L 269.623224 281.417394 
L 273.033461 277.987437 
L 276.443697 274.752852 
L 279.853934 271.721959 
L 283.264171 268.902203 
L 286.674408 266.300114 
L 290.084645 263.921263 
L 293.494882 261.77024 
L 296.905118 259.850636 
L 300.315355 258.165038 
L 303.725592 256.715029 
L 307.135829 255.501209 
L 310.546066 254.523208 
L 313.956303 253.779726 
L 317.366539 253.268567 
L 320.776776 252.986686 
L 324.187013 252.93024 
L 327.59725 253.094643 
L 331.007487 253.474629 
L 334.417723 254.064312 
L 337.82796 254.857253 
L 341.238197 255.846524 
L 344.648434 257.024776 
L 348.058671 258.3843 
L 351.468908 259.917096 
L 354.879144 261.61493 
L 358.289381 263.469396 
L 361.699618 265.471971 
L 365.109855 267.614066 
L 368.520092 269.887079 
L 371.930328 272.282436 
L 375.340565 274.791634 
L 378.750802 277.406279 
L 382.161039 280.118117 
L 385.571276 282.919067 
L 388.981513 285.801243 
L 392.391749 288.756976 
L 395.801986 291.778837 
L 399.212223 294.859645 
L 402.62246 297.992486 
L 406.032697 301.170719 
L 409.442934 304.387982 
L 412.85317 307.638197 
L 416.263407 310.915575 
L 419.673644 314.214612 
L 423.083881 317.53009 
L 426.494118 320.857073 
L 429.904354 324.190903 
L 433.314591 327.527198 
L 436.724828 330.861839 
L 440.135065 334.190969 
L 443.545302 337.510983 
L 446.955539 340.818518 
L 450.365775 344.110448 
L 453.776012 347.383872 
L 457.186249 350.636109 
L 460.596486 353.864682 
L 464.006723 357.067316 
L 467.41696 360.241923 
L 470.827196 363.386598 
L 474.237433 366.499606 
L 477.64767 369.579374 
L 481.057907 372.624484 
L 484.468144 375.633662 
L 487.87838 378.605775 
L 491.288617 381.539814 
L 494.698854 384.434897 
L 498.109091 387.290252 
" style="fill:none;stroke:#3f8ec0;stroke-linecap:square;stroke-width:1.5;"/>
   </g>
   <g id="line2d_19">
    <path clip-path="url(#pe6f7edd821)" d="M 92.290909 484.232727 
L 95.701146 482.184379 
L 99.111383 480.043392 
L 102.52162 477.80682 
L 105.931856 475.471751 
L 109.342093 473.035322 
L 112.75233 470.494744 
L 116.162567 467.847314 
L 119.572804 465.090443 
L 122.98304 462.221679 
L 126.393277 459.238729 
L 129.803514 456.139493 
L 133.213751 452.922086 
L 136.623988 449.584877 
L 140.034225 446.126517 
L 143.444461 442.545974 
L 146.854698 438.84257 
L 150.264935 435.016017 
L 153.675172 431.066457 
L 157.085409 426.994499 
L 160.495646 422.801256 
L 163.905882 418.488389 
L 167.316119 414.058138 
L 170.726356 409.513364 
L 174.136593 404.857583 
L 177.54683 400.094995 
L 180.957066 395.230516 
L 184.367303 390.269804 
L 187.77754 385.219274 
L 191.187777 380.086121 
L 194.598014 374.878322 
L 198.008251 369.604641 
L 201.418487 364.27462 
L 204.828724 358.898568 
L 208.238961 353.487535 
L 211.649198 348.053281 
L 215.059435 342.608231 
L 218.469672 337.165424 
L 221.879908 331.738452 
L 225.290145 326.341386 
L 228.700382 320.988694 
L 232.110619 315.695157 
L 235.520856 310.475766 
L 238.931092 305.34562 
L 242.341329 300.319818 
L 245.751566 295.413344 
L 249.161803 290.640955 
L 252.57204 286.01706 
L 255.982277 281.555609 
L 259.392513 277.269982 
L 262.80275 273.172877 
L 266.212987 269.276215 
L 269.623224 265.591041 
L 273.033461 262.12745 
L 276.443697 258.894503 
L 279.853934 255.900176 
L 283.264171 253.151309 
L 286.674408 250.653567 
L 290.084645 248.411425 
L 293.494882 246.428154 
L 296.905118 244.70583 
L 300.315355 243.245347 
L 303.725592 242.04645 
L 307.135829 241.10777 
L 310.546066 240.426876 
L 313.956303 240.000335 
L 317.366539 239.823771 
L 320.776776 239.891942 
L 324.187013 240.198809 
L 327.59725 240.73762 
L 331.007487 241.500986 
L 334.417723 242.480967 
L 337.82796 243.669145 
L 341.238197 245.056711 
L 344.648434 246.634536 
L 348.058671 248.393249 
L 351.468908 250.323304 
L 354.879144 252.415046 
L 358.289381 254.658776 
L 361.699618 257.044804 
L 365.109855 259.563501 
L 368.520092 262.205348 
L 371.930328 264.960974 
L 375.340565 267.821197 
L 378.750802 270.77705 
L 382.161039 273.819815 
L 385.571276 276.941041 
L 388.981513 280.132562 
L 392.391749 283.386518 
L 395.801986 286.695358 
L 399.212223 290.051856 
L 402.62246 293.449111 
L 406.032697 296.880552 
L 409.442934 300.339937 
L 412.85317 303.821351 
L 416.263407 307.319205 
L 419.673644 310.828226 
L 423.083881 314.343458 
L 426.494118 317.860245 
L 429.904354 321.37423 
L 433.314591 324.881343 
L 436.724828 328.377789 
L 440.135065 331.860044 
L 443.545302 335.324838 
L 446.955539 338.769145 
L 450.365775 342.190179 
L 453.776012 345.585372 
L 457.186249 348.952375 
L 460.596486 352.289037 
L 464.006723 355.593403 
L 467.41696 358.863697 
L 470.827196 362.098317 
L 474.237433 365.295823 
L 477.64767 368.454927 
L 481.057907 371.574485 
L 484.468144 374.653491 
L 487.87838 377.691063 
L 491.288617 380.686439 
L 494.698854 383.638967 
L 498.109091 386.548102 
" style="fill:none;stroke:#5fa5cd;stroke-linecap:square;stroke-width:1.5;"/>
   </g>
   <g id="line2d_20">
    <path clip-path="url(#pe6f7edd821)" d="M 92.290909 484.232727 
L 95.701146 482.085095 
L 99.111383 479.835059 
L 102.52162 477.47912 
L 105.931856 475.013804 
L 109.342093 472.43569 
L 112.75233 469.74143 
L 116.162567 466.92777 
L 119.572804 463.991586 
L 122.98304 460.929906 
L 126.393277 457.739945 
L 129.803514 454.419143 
L 133.213751 450.965196 
L 136.623988 447.376101 
L 140.034225 443.650195 
L 143.444461 439.786201 
L 146.854698 435.78327 
L 150.264935 431.641034 
L 153.675172 427.359649 
L 157.085409 422.939848 
L 160.495646 418.38299 
L 163.905882 413.691105 
L 167.316119 408.866948 
L 170.726356 403.914039 
L 174.136593 398.836711 
L 177.54683 393.640146 
L 180.957066 388.330411 
L 184.367303 382.914485 
L 187.77754 377.400285 
L 191.187777 371.796674 
L 194.598014 366.113472 
L 198.008251 360.361448 
L 201.418487 354.552303 
L 204.828724 348.698646 
L 208.238961 342.813951 
L 211.649198 336.912507 
L 215.059435 331.009352 
L 218.469672 325.120194 
L 221.879908 319.261321 
L 225.290145 313.4495 
L 228.700382 307.70186 
L 232.110619 302.035772 
L 235.520856 296.468716 
L 238.931092 291.018142 
L 242.341329 285.701332 
L 245.751566 280.535252 
L 249.161803 275.536406 
L 252.57204 270.7207 
L 255.982277 266.1033 
L 259.392513 261.698508 
L 262.80275 257.519636 
L 266.212987 253.578903 
L 269.623224 249.887336 
L 273.033461 246.454696 
L 276.443697 243.289406 
L 279.853934 240.398512 
L 283.264171 237.787645 
L 286.674408 235.461017 
L 290.084645 233.421414 
L 293.494882 231.670224 
L 296.905118 230.207469 
L 300.315355 229.031853 
L 303.725592 228.14082 
L 307.135829 227.530633 
L 310.546066 227.196444 
L 313.956303 227.132391 
L 317.366539 227.331684 
L 320.776776 227.786704 
L 324.187013 228.489099 
L 327.59725 229.429888 
L 331.007487 230.599551 
L 334.417723 231.98813 
L 337.82796 233.585319 
L 341.238197 235.380552 
L 344.648434 237.363085 
L 348.058671 239.522074 
L 351.468908 241.846649 
L 354.879144 244.325973 
L 358.289381 246.949307 
L 361.699618 249.706059 
L 365.109855 252.585831 
L 368.520092 255.57846 
L 371.930328 258.674053 
L 375.340565 261.863013 
L 378.750802 265.136067 
L 382.161039 268.48428 
L 385.571276 271.899074 
L 388.981513 275.372235 
L 392.391749 278.895921 
L 395.801986 282.462668 
L 399.212223 286.065385 
L 402.62246 289.697358 
L 406.032697 293.352243 
L 409.442934 297.024057 
L 412.85317 300.707178 
L 416.263407 304.396328 
L 419.673644 308.08657 
L 423.083881 311.773289 
L 426.494118 315.452191 
L 429.904354 319.119279 
L 433.314591 322.770851 
L 436.724828 326.403483 
L 440.135065 330.014013 
L 443.545302 333.599535 
L 446.955539 337.157383 
L 450.365775 340.685119 
L 453.776012 344.180519 
L 457.186249 347.641566 
L 460.596486 351.066434 
L 464.006723 354.453479 
L 467.41696 357.801228 
L 470.827196 361.108368 
L 474.237433 364.373739 
L 477.64767 367.59632 
L 481.057907 370.775223 
L 484.468144 373.909683 
L 487.87838 376.999051 
L 491.288617 380.042787 
L 494.698854 383.040449 
L 498.109091 385.99169 
" style="fill:none;stroke:#87beda;stroke-linecap:square;stroke-width:1.5;"/>
   </g>
   <g id="line2d_21">
    <path clip-path="url(#pe6f7edd821)" d="M 92.290909 484.232727 
L 95.701146 481.985586 
L 99.111383 479.625793 
L 102.52162 477.149233 
L 105.931856 474.551811 
L 109.342093 471.829483 
L 112.75233 468.978279 
L 116.162567 465.994335 
L 119.572804 462.873927 
L 122.98304 459.613507 
L 126.393277 456.209745 
L 129.803514 452.659568 
L 133.213751 448.960214 
L 136.623988 445.109274 
L 140.034225 441.104751 
L 143.444461 436.945111 
L 146.854698 432.629344 
L 150.264935 428.157021 
L 153.675172 423.528358 
L 157.085409 418.744278 
L 160.495646 413.80647 
L 163.905882 408.717453 
L 167.316119 403.480635 
L 170.726356 398.100369 
L 174.136593 392.582004 
L 177.54683 386.931935 
L 180.957066 381.157639 
L 184.367303 375.267706 
L 187.77754 369.271867 
L 191.187777 363.180995 
L 194.598014 357.00711 
L 198.008251 350.763359 
L 201.418487 344.463988 
L 204.828724 338.124292 
L 208.238961 331.760552 
L 211.649198 325.389959 
L 215.059435 319.030512 
L 218.469672 312.700911 
L 221.879908 306.420423 
L 225.290145 300.208746 
L 228.700382 294.08585 
L 232.110619 288.071817 
L 235.520856 282.186665 
L 238.931092 276.450175 
L 242.341329 270.88171 
L 245.751566 265.500039 
L 249.161803 260.323163 
L 252.57204 255.368153 
L 255.982277 250.650992 
L 259.392513 246.186437 
L 262.80275 241.987895 
L 266.212987 238.067317 
L 269.623224 234.435109 
L 273.033461 231.10007 
L 276.443697 228.069347 
L 279.853934 225.348414 
L 283.264171 222.941071 
L 286.674408 220.849465 
L 290.084645 219.074127 
L 293.494882 217.614031 
L 296.905118 216.466667 
L 300.315355 215.628125 
L 303.725592 215.093193 
L 307.135829 214.855463 
L 310.546066 214.907442 
L 313.956303 215.240673 
L 317.366539 215.845849 
L 320.776776 216.712936 
L 324.187013 217.831285 
L 327.59725 219.189752 
L 331.007487 220.776807 
L 334.417723 222.580634 
L 337.82796 224.58923 
L 341.238197 226.7905 
L 344.648434 229.172334 
L 348.058671 231.722685 
L 351.468908 234.429635 
L 354.879144 237.281455 
L 358.289381 240.266659 
L 361.699618 243.374043 
L 365.109855 246.592727 
L 368.520092 249.912186 
L 371.930328 253.32227 
L 375.340565 256.813228 
L 378.750802 260.37572 
L 382.161039 264.000827 
L 385.571276 267.680054 
L 388.981513 271.405335 
L 392.391749 275.16903 
L 395.801986 278.96392 
L 399.212223 282.7832 
L 402.62246 286.620473 
L 406.032697 290.469736 
L 409.442934 294.325371 
L 412.85317 298.182133 
L 416.263407 302.035135 
L 419.673644 305.879832 
L 423.083881 309.71201 
L 426.494118 313.527773 
L 429.904354 317.323522 
L 433.314591 321.095945 
L 436.724828 324.842001 
L 440.135065 328.558909 
L 443.545302 332.244127 
L 446.955539 335.895346 
L 450.365775 339.510471 
L 453.776012 343.087614 
L 457.186249 346.625076 
L 460.596486 350.121338 
L 464.006723 353.57505 
L 467.41696 356.985022 
L 470.827196 360.350207 
L 474.237433 363.669701 
L 477.64767 366.942724 
L 481.057907 370.16862 
L 484.468144 373.346841 
L 487.87838 376.476946 
L 491.288617 379.558587 
L 494.698854 382.591507 
L 498.109091 385.575534 
" style="fill:none;stroke:#a7d0e4;stroke-linecap:square;stroke-width:1.5;"/>
   </g>
   <g id="line2d_22">
    <path clip-path="url(#pe6f7edd821)" d="M 92.290909 484.232727 
L 95.701146 481.885854 
L 99.111383 479.415592 
L 102.52162 476.817146 
L 105.931856 474.08574 
L 109.342093 471.216638 
L 112.75233 468.205184 
L 116.162567 465.046837 
L 119.572804 461.737209 
L 122.98304 458.272115 
L 126.393277 454.647622 
L 129.803514 450.8601 
L 133.213751 446.906281 
L 136.623988 442.783324 
L 140.034225 438.488876 
L 143.444461 434.021145 
L 146.854698 429.378973 
L 150.264935 424.561908 
L 153.675172 419.570283 
L 157.085409 414.405293 
L 160.495646 409.069069 
L 163.905882 403.564759 
L 167.316119 397.896597 
L 170.726356 392.069972 
L 174.136593 386.091489 
L 177.54683 379.969023 
L 180.957066 373.711764 
L 184.367303 367.330248 
L 187.77754 360.836374 
L 191.187777 354.243409 
L 194.598014 347.565971 
L 198.008251 340.819996 
L 201.418487 334.022683 
L 204.828724 327.192423 
L 208.238961 320.348697 
L 211.649198 313.511964 
L 215.059435 306.703522 
L 218.469672 299.945348 
L 221.879908 293.259925 
L 225.290145 286.670053 
L 228.700382 280.198643 
L 232.110619 273.868509 
L 235.520856 267.702147 
L 238.931092 261.721519 
L 242.341329 255.947839 
L 245.751566 250.401359 
L 249.161803 245.10118 
L 252.57204 240.065065 
L 255.982277 235.309276 
L 259.392513 230.848436 
L 262.80275 226.695411 
L 266.212987 222.861217 
L 269.623224 219.35496 
L 273.033461 216.183795 
L 276.443697 213.35292 
L 279.853934 210.865592 
L 283.264171 208.723167 
L 286.674408 206.925167 
L 290.084645 205.469358 
L 293.494882 204.351859 
L 296.905118 203.567249 
L 300.315355 203.108701 
L 303.725592 202.968111 
L 307.135829 203.136242 
L 310.546066 203.602865 
L 313.956303 204.356902 
L 317.366539 205.386568 
L 320.776776 206.679504 
L 324.187013 208.222911 
L 327.59725 210.003671 
L 331.007487 212.008461 
L 334.417723 214.223864 
L 337.82796 216.636458 
L 341.238197 219.232909 
L 344.648434 222.000046 
L 348.058671 224.924927 
L 351.468908 227.994899 
L 354.879144 231.197648 
L 358.289381 234.521236 
L 361.699618 237.95414 
L 365.109855 241.485272 
L 368.520092 245.104004 
L 371.930328 248.800177 
L 375.340565 252.564112 
L 378.750802 256.386612 
L 382.161039 260.258964 
L 385.571276 264.172933 
L 388.981513 268.120754 
L 392.391749 272.095127 
L 395.801986 276.0892 
L 399.212223 280.096561 
L 402.62246 284.111221 
L 406.032697 288.127597 
L 409.442934 292.140499 
L 412.85317 296.145113 
L 416.263407 300.136981 
L 419.673644 304.111988 
L 423.083881 308.066342 
L 426.494118 311.996558 
L 429.904354 315.899445 
L 433.314591 319.772082 
L 436.724828 323.611812 
L 440.135065 327.41622 
L 443.545302 331.183121 
L 446.955539 334.910545 
L 450.365775 338.596724 
L 453.776012 342.24008 
L 457.186249 345.839213 
L 460.596486 349.392887 
L 464.006723 352.90002 
L 467.41696 356.359675 
L 470.827196 359.77105 
L 474.237433 363.133464 
L 477.64767 366.446357 
L 481.057907 369.709272 
L 484.468144 372.921854 
L 487.87838 376.08384 
L 491.288617 379.195053 
L 494.698854 382.255394 
L 498.109091 385.264837 
" style="fill:none;stroke:#c5dfec;stroke-linecap:square;stroke-width:1.5;"/>
   </g>
   <g id="line2d_23">
    <path clip-path="url(#pe6f7edd821)" d="M 92.290909 484.232727 
L 95.701146 481.785898 
L 99.111383 479.20445 
L 102.52162 476.482848 
L 105.931856 473.615561 
L 109.342093 470.597096 
L 112.75233 467.42204 
L 116.162567 464.085104 
L 119.572804 460.581173 
L 122.98304 456.905361 
L 126.393277 453.053073 
L 129.803514 449.02007 
L 133.213751 444.802542 
L 136.623988 440.397183 
L 140.034225 435.801274 
L 143.444461 431.012769 
L 146.854698 426.030387 
L 150.264935 420.8537 
L 153.675172 415.483234 
L 157.085409 409.92056 
L 160.495646 404.168389 
L 163.905882 398.230667 
L 167.316119 392.112658 
L 170.726356 385.82103 
L 174.136593 379.363919 
L 177.54683 372.750998 
L 180.957066 365.993514 
L 184.367303 359.104324 
L 187.77754 352.097901 
L 191.187777 344.990325 
L 194.598014 337.799246 
L 198.008251 330.543827 
L 201.418487 323.244654 
L 204.828724 315.923626 
L 208.238961 308.603814 
L 211.649198 301.309293 
L 215.059435 294.064955 
L 218.469672 286.89629 
L 221.879908 279.82916 
L 225.290145 272.889548 
L 228.700382 266.1033 
L 232.110619 259.495862 
L 235.520856 253.092013 
L 238.931092 246.91561 
L 242.341329 240.989333 
L 245.751566 235.334458 
L 249.161803 229.970639 
L 252.57204 224.915726 
L 255.982277 220.185602 
L 259.392513 215.794057 
L 262.80275 211.752695 
L 266.212987 208.070874 
L 269.623224 204.755678 
L 273.033461 201.811927 
L 276.443697 199.242216 
L 279.853934 197.046979 
L 283.264171 195.224584 
L 286.674408 193.771452 
L 290.084645 192.682185 
L 293.494882 191.94972 
L 296.905118 191.565486 
L 300.315355 191.519572 
L 303.725592 191.800896 
L 307.135829 192.397376 
L 310.546066 193.296096 
L 313.956303 194.483473 
L 317.366539 195.945403 
L 320.776776 197.667417 
L 324.187013 199.63481 
L 327.59725 201.832768 
L 331.007487 204.246478 
L 334.417723 206.861236 
L 337.82796 209.662526 
L 341.238197 212.636106 
L 344.648434 215.768069 
L 348.058671 219.0449 
L 351.468908 222.45352 
L 354.879144 225.981327 
L 358.289381 229.616216 
L 361.699618 233.346606 
L 365.109855 237.16145 
L 368.520092 241.050242 
L 371.930328 245.003021 
L 375.340565 249.010368 
L 378.750802 253.063397 
L 382.161039 257.153751 
L 385.571276 261.273582 
L 388.981513 265.415543 
L 392.391749 269.57277 
L 395.801986 273.738863 
L 399.212223 277.907868 
L 402.62246 282.07426 
L 406.032697 286.232921 
L 409.442934 290.379121 
L 412.85317 294.5085 
L 416.263407 298.617048 
L 419.673644 302.701082 
L 423.083881 306.757236 
L 426.494118 310.782433 
L 429.904354 314.773876 
L 433.314591 318.729027 
L 436.724828 322.64559 
L 440.135065 326.521499 
L 443.545302 330.354901 
L 446.955539 334.144141 
L 450.365775 337.887753 
L 453.776012 341.584443 
L 457.186249 345.233079 
L 460.596486 348.83268 
L 464.006723 352.382404 
L 467.41696 355.88154 
L 470.827196 359.329498 
L 474.237433 362.725799 
L 477.64767 366.070067 
L 481.057907 369.362023 
L 484.468144 372.601477 
L 487.87838 375.78832 
L 491.288617 378.922518 
L 494.698854 382.004107 
L 498.109091 385.033187 
" style="fill:none;stroke:#dbeaf2;stroke-linecap:square;stroke-width:1.5;"/>
   </g>
   <g id="line2d_24">
    <path clip-path="url(#pe6f7edd821)" d="M 92.290909 484.232727 
L 95.701146 481.685717 
L 99.111383 478.992365 
L 102.52162 476.146326 
L 105.931856 473.141243 
L 109.342093 469.970795 
L 112.75233 466.628738 
L 116.162567 463.108964 
L 119.572804 459.40556 
L 122.98304 455.512873 
L 126.393277 451.42559 
L 129.803514 447.138811 
L 133.213751 442.648143 
L 136.623988 437.949793 
L 140.034225 433.040668 
L 143.444461 427.918482 
L 146.854698 422.581866 
L 150.264935 417.030483 
L 153.675172 411.265145 
L 157.085409 405.287927 
L 160.495646 399.102286 
L 163.905882 392.713167 
L 167.316119 386.127108 
L 170.726356 379.352336 
L 174.136593 372.398841 
L 177.54683 365.27845 
L 180.957066 358.004861 
L 184.367303 350.593674 
L 187.77754 343.062377 
L 191.187777 335.430324 
L 194.598014 327.71866 
L 198.008251 319.950231 
L 201.418487 312.14945 
L 204.828724 304.342134 
L 208.238961 296.555306 
L 211.649198 288.816965 
L 215.059435 281.155834 
L 218.469672 273.601073 
L 221.879908 266.181987 
L 225.290145 258.92771 
L 228.700382 251.866887 
L 232.110619 245.027357 
L 235.520856 238.435841 
L 238.931092 232.117648 
L 242.341329 226.096399 
L 245.751566 220.393781 
L 249.161803 215.029331 
L 252.57204 210.020261 
L 255.982277 205.381321 
L 259.392513 201.124699 
L 262.80275 197.259974 
L 266.212987 193.794099 
L 269.623224 190.731433 
L 273.033461 188.073805 
L 276.443697 185.820614 
L 279.853934 183.968954 
L 283.264171 182.513772 
L 286.674408 181.448034 
L 290.084645 180.762914 
L 293.494882 180.44799 
L 296.905118 180.491447 
L 300.315355 180.880274 
L 303.725592 181.600468 
L 307.135829 182.637224 
L 310.546066 183.975122 
L 313.956303 185.598296 
L 317.366539 187.490597 
L 320.776776 189.635741 
L 324.187013 192.01744 
L 327.59725 194.619522 
L 331.007487 197.426029 
L 334.417723 200.421315 
L 337.82796 203.590116 
L 341.238197 206.917614 
L 344.648434 210.389488 
L 348.058671 213.991957 
L 351.468908 217.711806 
L 354.879144 221.536412 
L 358.289381 225.453752 
L 361.699618 229.452414 
L 365.109855 233.521597 
L 368.520092 237.651103 
L 371.930328 241.831332 
L 375.340565 246.053267 
L 378.750802 250.308459 
L 382.161039 254.589012 
L 385.571276 258.887557 
L 388.981513 263.19724 
L 392.391749 267.511693 
L 395.801986 271.825013 
L 399.212223 276.131745 
L 402.62246 280.42685 
L 406.032697 284.705693 
L 409.442934 288.964012 
L 412.85317 293.197903 
L 416.263407 297.403795 
L 419.673644 301.578434 
L 423.083881 305.718858 
L 426.494118 309.822384 
L 429.904354 313.886587 
L 433.314591 317.909284 
L 436.724828 321.888518 
L 440.135065 325.822543 
L 443.545302 329.709809 
L 446.955539 333.548948 
L 450.365775 337.338765 
L 453.776012 341.078218 
L 457.186249 344.766417 
L 460.596486 348.402603 
L 464.006723 351.986148 
L 467.41696 355.516535 
L 470.827196 358.993361 
L 474.237433 362.416318 
L 477.64767 365.785192 
L 481.057907 369.099856 
L 484.468144 372.360258 
L 487.87838 375.566419 
L 491.288617 378.718429 
L 494.698854 381.816436 
L 498.109091 384.860645 
" style="fill:none;stroke:#edf2f5;stroke-linecap:square;stroke-width:1.5;"/>
   </g>
   <g id="line2d_25">
    <path clip-path="url(#pe6f7edd821)" d="M 92.290909 484.232727 
L 95.701146 481.58531 
L 99.111383 478.779333 
L 102.52162 475.807566 
L 105.931856 472.662756 
L 109.342093 469.337674 
L 112.75233 465.825171 
L 116.162567 462.118244 
L 119.572804 458.210109 
L 122.98304 454.094282 
L 126.393277 449.764667 
L 129.803514 445.215656 
L 133.213751 440.442237 
L 136.623988 435.440109 
L 140.034225 430.205805 
L 143.444461 424.736821 
L 146.854698 419.031753 
L 150.264935 413.090437 
L 153.675172 406.914087 
L 157.085409 400.505442 
L 160.495646 393.868895 
L 163.905882 387.010633 
L 167.316119 379.938747 
L 170.726356 372.663349 
L 174.136593 365.196652 
L 177.54683 357.553039 
L 180.957066 349.7491 
L 184.367303 341.803638 
L 187.77754 333.737644 
L 191.187777 325.574229 
L 194.598014 317.33852 
L 198.008251 309.057511 
L 201.418487 300.759873 
L 204.828724 292.475723 
L 208.238961 284.236357 
L 211.649198 276.073942 
L 215.059435 268.021184 
L 218.469672 260.110967 
L 221.879908 252.375984 
L 225.290145 244.848351 
L 228.700382 237.559232 
L 232.110619 230.538465 
L 235.520856 223.814216 
L 238.931092 217.412655 
L 242.341329 211.357671 
L 245.751566 205.670628 
L 249.161803 200.370164 
L 252.57204 195.47205 
L 255.982277 190.989085 
L 259.392513 186.931063 
L 262.80275 183.30477 
L 266.212987 180.114044 
L 269.623224 177.35987 
L 273.033461 175.040516 
L 276.443697 173.151701 
L 279.853934 171.686789 
L 283.264171 170.637003 
L 286.674408 169.991653 
L 290.084645 169.738374 
L 293.494882 169.863359 
L 296.905118 170.351602 
L 300.315355 171.18712 
L 303.725592 172.353177 
L 307.135829 173.832486 
L 310.546066 175.607403 
L 313.956303 177.660101 
L 317.366539 179.972726 
L 320.776776 182.527534 
L 324.187013 185.30702 
L 327.59725 188.294015 
L 331.007487 191.471777 
L 334.417723 194.824069 
L 337.82796 198.335209 
L 341.238197 201.990121 
L 344.648434 205.774369 
L 348.058671 209.674178 
L 351.468908 213.67645 
L 354.879144 217.768769 
L 358.289381 221.939401 
L 361.699618 226.177286 
L 365.109855 230.472027 
L 368.520092 234.813877 
L 371.930328 239.193714 
L 375.340565 243.603027 
L 378.750802 248.033888 
L 382.161039 252.478929 
L 385.571276 256.931318 
L 388.981513 261.38473 
L 392.391749 265.833325 
L 395.801986 270.271719 
L 399.212223 274.694961 
L 402.62246 279.098508 
L 406.032697 283.478197 
L 409.442934 287.830228 
L 412.85317 292.151137 
L 416.263407 296.437775 
L 419.673644 300.687289 
L 423.083881 304.897102 
L 426.494118 309.064895 
L 429.904354 313.188585 
L 433.314591 317.266317 
L 436.724828 321.29644 
L 440.135065 325.277497 
L 443.545302 329.208211 
L 446.955539 333.087469 
L 450.365775 336.914314 
L 453.776012 340.68793 
L 457.186249 344.407635 
L 460.596486 348.072867 
L 464.006723 351.683179 
L 467.41696 355.238226 
L 470.827196 358.737762 
L 474.237433 362.181628 
L 477.64767 365.569746 
L 481.057907 368.902116 
L 484.468144 372.178804 
L 487.87838 375.399944 
L 491.288617 378.565723 
L 494.698854 381.676386 
L 498.109091 384.732225 
" style="fill:none;stroke:#f9f0eb;stroke-linecap:square;stroke-width:1.5;"/>
   </g>
   <g id="line2d_26">
    <path clip-path="url(#pe6f7edd821)" d="M 92.290909 484.232727 
L 95.701146 481.484678 
L 99.111383 478.56535 
L 102.52162 475.466557 
L 105.931856 472.180069 
L 109.342093 468.697671 
L 112.75233 465.011229 
L 116.162567 461.112769 
L 119.572804 456.99456 
L 122.98304 452.649215 
L 126.393277 448.069797 
L 129.803514 443.249942 
L 133.213751 438.183984 
L 136.623988 432.867099 
L 140.034225 427.295454 
L 143.444461 421.466364 
L 146.854698 415.378458 
L 150.264935 409.031846 
L 153.675172 402.42829 
L 157.085409 395.571373 
L 160.495646 388.46666 
L 163.905882 381.121853 
L 167.316119 373.546926 
L 170.726356 365.754245 
L 174.136593 357.758659 
L 177.54683 349.57756 
L 180.957066 341.230912 
L 184.367303 332.741228 
L 187.77754 324.133512 
L 191.187777 315.435147 
L 194.598014 306.67573 
L 198.008251 297.886862 
L 201.418487 289.101877 
L 204.828724 280.355532 
L 208.238961 271.683648 
L 211.649198 263.122715 
L 215.059435 254.709467 
L 218.469672 246.480441 
L 221.879908 238.471521 
L 225.290145 230.717485 
L 228.700382 223.251577 
L 232.110619 216.105083 
L 235.520856 209.306966 
L 238.931092 202.883525 
L 242.341329 196.858125 
L 245.751566 191.250968 
L 249.161803 186.078943 
L 252.57204 181.355524 
L 255.982277 177.090741 
L 259.392513 173.291209 
L 262.80275 169.960213 
L 266.212987 167.097835 
L 269.623224 164.701144 
L 273.033461 162.764396 
L 276.443697 161.279286 
L 279.853934 160.235203 
L 283.264171 159.619506 
L 286.674408 159.417801 
L 290.084645 159.614223 
L 293.494882 160.191703 
L 296.905118 161.132231 
L 300.315355 162.4171 
L 303.725592 164.027135 
L 307.135829 165.942901 
L 310.546066 168.144887 
L 313.956303 170.613678 
L 317.366539 173.330095 
L 320.776776 176.27532 
L 324.187013 179.431004 
L 327.59725 182.779348 
L 331.007487 186.303174 
L 334.417723 189.985978 
L 337.82796 193.81197 
L 341.238197 197.766099 
L 344.648434 201.834069 
L 348.058671 206.002345 
L 351.468908 210.258153 
L 354.879144 214.589468 
L 358.289381 218.985004 
L 361.699618 223.434191 
L 365.109855 227.927156 
L 368.520092 232.454696 
L 371.930328 237.008251 
L 375.340565 241.579878 
L 378.750802 246.16222 
L 382.161039 250.748474 
L 385.571276 255.332367 
L 388.981513 259.908121 
L 392.391749 264.470428 
L 395.801986 269.014422 
L 399.212223 273.535648 
L 402.62246 278.03004 
L 406.032697 282.493895 
L 409.442934 286.923847 
L 412.85317 291.316849 
L 416.263407 295.670145 
L 419.673644 299.981255 
L 423.083881 304.247955 
L 426.494118 308.468255 
L 429.904354 312.640387 
L 433.314591 316.762787 
L 436.724828 320.83408 
L 440.135065 324.853065 
L 443.545302 328.818706 
L 446.955539 332.730114 
L 450.365775 336.586542 
L 453.776012 340.387368 
L 457.186249 344.132091 
L 460.596486 347.820319 
L 464.006723 351.451759 
L 467.41696 355.026215 
L 470.827196 358.543573 
L 474.237433 362.0038 
L 477.64767 365.406933 
L 481.057907 368.753079 
L 484.468144 372.042404 
L 487.87838 375.275132 
L 491.288617 378.451535 
L 494.698854 381.571936 
L 498.109091 384.636698 
" style="fill:none;stroke:#fbe3d4;stroke-linecap:square;stroke-width:1.5;"/>
   </g>
   <g id="line2d_27">
    <path clip-path="url(#pe6f7edd821)" d="M 92.290909 484.232727 
L 95.701146 481.38382 
L 99.111383 478.350412 
L 102.52162 475.123284 
L 105.931856 471.693149 
L 109.342093 468.050724 
L 112.75233 464.186805 
L 116.162567 460.092365 
L 119.572804 455.75865 
L 122.98304 451.177299 
L 126.393277 446.340476 
L 129.803514 441.241008 
L 133.213751 435.87255 
L 136.623988 430.229745 
L 140.034225 424.308413 
L 143.444461 418.105738 
L 146.854698 411.620467 
L 150.264935 404.853111 
L 153.675172 397.806149 
L 157.085409 390.484229 
L 160.495646 382.894355 
L 163.905882 375.046066 
L 167.316119 366.951588 
L 170.726356 358.62596 
L 174.136593 350.08713 
L 177.54683 341.355999 
L 180.957066 332.456426 
L 184.367303 323.415173 
L 187.77754 314.261797 
L 191.187777 305.028472 
L 194.598014 295.749753 
L 198.008251 286.462278 
L 201.418487 277.204407 
L 204.828724 268.015803 
L 208.238961 258.936977 
L 211.649198 250.008786 
L 215.059435 241.271908 
L 218.469672 232.766312 
L 221.879908 224.530721 
L 225.290145 216.602098 
L 228.700382 209.015163 
L 232.110619 201.801952 
L 235.520856 194.991433 
L 238.931092 188.609191 
L 242.341329 182.677175 
L 245.751566 177.213532 
L 249.161803 172.23251 
L 252.57204 167.744443 
L 255.982277 163.755799 
L 259.392513 160.269305 
L 262.80275 157.284118 
L 266.212987 154.796051 
L 269.623224 152.797841 
L 273.033461 151.27944 
L 276.443697 150.228325 
L 279.853934 149.629828 
L 283.264171 149.467458 
L 286.674408 149.723222 
L 290.084645 150.377935 
L 293.494882 151.411511 
L 296.905118 152.803238 
L 300.315355 154.532026 
L 303.725592 156.576633 
L 307.135829 158.915862 
L 310.546066 161.528739 
L 313.956303 164.394661 
L 317.366539 167.493517 
L 320.776776 170.805797 
L 324.187013 174.312671 
L 327.59725 177.996051 
L 331.007487 181.838642 
L 334.417723 185.823967 
L 337.82796 189.936392 
L 341.238197 194.16113 
L 344.648434 198.484236 
L 348.058671 202.892603 
L 351.468908 207.373941 
L 354.879144 211.916756 
L 358.289381 216.510324 
L 361.699618 221.144662 
L 365.109855 225.810497 
L 368.520092 230.499233 
L 371.930328 235.202918 
L 375.340565 239.914209 
L 378.750802 244.626339 
L 382.161039 249.333083 
L 385.571276 254.028728 
L 388.981513 258.708038 
L 392.391749 263.366225 
L 395.801986 267.998919 
L 399.212223 272.602144 
L 402.62246 277.172286 
L 406.032697 281.70607 
L 409.442934 286.200537 
L 412.85317 290.653022 
L 416.263407 295.061131 
L 419.673644 299.422724 
L 423.083881 303.735892 
L 426.494118 307.998946 
L 429.904354 312.210395 
L 433.314591 316.368935 
L 436.724828 320.473434 
L 440.135065 324.522917 
L 443.545302 328.516557 
L 446.955539 332.453661 
L 450.365775 336.333661 
L 453.776012 340.156105 
L 457.186249 343.920647 
L 460.596486 347.627039 
L 464.006723 351.275122 
L 467.41696 354.864821 
L 470.827196 358.396137 
L 474.237433 361.869141 
L 477.64767 365.283968 
L 481.057907 368.640813 
L 484.468144 371.939925 
L 487.87838 375.181602 
L 491.288617 378.366188 
L 494.698854 381.494069 
L 498.109091 384.565668 
" style="fill:none;stroke:#fbd0b9;stroke-linecap:square;stroke-width:1.5;"/>
   </g>
   <g id="line2d_28">
    <path clip-path="url(#pe6f7edd821)" d="M 92.290909 484.232727 
L 95.701146 481.282735 
L 99.111383 478.134517 
L 102.52162 474.777737 
L 105.931856 471.201967 
L 109.342093 467.39677 
L 112.75233 463.351789 
L 116.162567 459.056857 
L 119.572804 454.502117 
L 122.98304 449.678164 
L 126.393277 444.576198 
L 129.803514 439.188199 
L 133.213751 433.507111 
L 136.623988 427.527048 
L 140.034225 421.243514 
L 143.444461 414.653625 
L 146.854698 407.756352 
L 150.264935 400.55276 
L 153.675172 393.046248 
L 157.085409 385.242783 
L 160.495646 377.151118 
L 163.905882 368.782994 
L 167.316119 360.153307 
L 170.726356 351.28024 
L 174.136593 342.185347 
L 177.54683 332.89358 
L 180.957066 323.433256 
L 184.367303 313.835952 
L 187.77754 304.136326 
L 191.187777 294.371862 
L 194.598014 284.582538 
L 198.008251 274.810414 
L 201.418487 265.099166 
L 204.828724 255.493545 
L 208.238961 246.0388 
L 211.649198 236.780063 
L 215.059435 227.761726 
L 218.469672 219.02681 
L 221.879908 210.616361 
L 225.290145 202.568882 
L 228.700382 194.91982 
L 232.110619 187.701121 
L 235.520856 180.940859 
L 238.931092 174.662967 
L 242.341329 168.887042 
L 245.751566 163.628253 
L 249.161803 158.897342 
L 252.57204 154.700699 
L 255.982277 151.040522 
L 259.392513 147.915042 
L 262.80275 145.318799 
L 266.212987 143.242963 
L 269.623224 141.675689 
L 273.033461 140.602482 
L 276.443697 140.00658 
L 279.853934 139.86933 
L 283.264171 140.17055 
L 286.674408 140.888883 
L 290.084645 142.002122 
L 293.494882 143.487512 
L 296.905118 145.322018 
L 300.315355 147.482573 
L 303.725592 149.946284 
L 307.135829 152.690612 
L 310.546066 155.693532 
L 313.956303 158.933651 
L 317.366539 162.390311 
L 320.776776 166.043665 
L 324.187013 169.874736 
L 327.59725 173.865455 
L 331.007487 177.998682 
L 334.417723 182.258218 
L 337.82796 186.628804 
L 341.238197 191.096105 
L 344.648434 195.646698 
L 348.058671 200.26804 
L 351.468908 204.948444 
L 354.879144 209.677042 
L 358.289381 214.443749 
L 361.699618 219.23923 
L 365.109855 224.054854 
L 368.520092 228.882664 
L 371.930328 233.715331 
L 375.340565 238.546122 
L 378.750802 243.368859 
L 382.161039 248.177886 
L 385.571276 252.968035 
L 388.981513 257.73459 
L 392.391749 262.47326 
L 395.801986 267.180145 
L 399.212223 271.851714 
L 402.62246 276.484772 
L 406.032697 281.076442 
L 409.442934 285.624134 
L 412.85317 290.125532 
L 416.263407 294.578568 
L 419.673644 298.981406 
L 423.083881 303.33242 
L 426.494118 307.630187 
L 429.904354 311.87346 
L 433.314591 316.061165 
L 436.724828 320.192379 
L 440.135065 324.266326 
L 443.545302 328.282359 
L 446.955539 332.239954 
L 450.365775 336.138699 
L 453.776012 339.978284 
L 457.186249 343.758496 
L 460.596486 347.479208 
L 464.006723 351.140375 
L 467.41696 354.742025 
L 470.827196 358.284253 
L 474.237433 361.767219 
L 477.64767 365.191138 
L 481.057907 368.55628 
L 484.468144 371.86296 
L 487.87838 375.11154 
L 491.288617 378.302421 
L 494.698854 381.43604 
L 498.109091 384.512869 
" style="fill:none;stroke:#f7b799;stroke-linecap:square;stroke-width:1.5;"/>
   </g>
   <g id="line2d_29">
    <path clip-path="url(#pe6f7edd821)" d="M 92.290909 484.232727 
L 95.701146 481.181423 
L 99.111383 477.917659 
L 102.52162 474.429901 
L 105.931856 470.706491 
L 109.342093 466.735748 
L 112.75233 462.506072 
L 116.162567 458.006068 
L 119.572804 453.224698 
L 122.98304 448.151436 
L 126.393277 442.776463 
L 129.803514 437.090863 
L 133.213751 431.086855 
L 136.623988 424.758032 
L 140.034225 418.099622 
L 143.444461 411.108762 
L 146.854698 403.784775 
L 150.264935 396.12946 
L 153.675172 388.147371 
L 157.085409 379.846088 
L 160.495646 371.236469 
L 163.905882 362.33287 
L 167.316119 353.153325 
L 170.726356 343.719677 
L 174.136593 334.057642 
L 177.54683 324.196806 
L 180.957066 314.170534 
L 184.367303 304.015801 
L 187.77754 293.772919 
L 191.187777 283.485178 
L 194.598014 273.198396 
L 198.008251 262.960382 
L 201.418487 252.820325 
L 204.828724 242.828127 
L 208.238961 233.033688 
L 211.649198 223.48618 
L 215.059435 214.233307 
L 218.469672 205.320597 
L 221.879908 196.79074 
L 225.290145 188.682983 
L 228.700382 181.032613 
L 232.110619 173.870534 
L 235.520856 167.222951 
L 238.931092 161.111159 
L 242.341329 155.551453 
L 245.751566 150.555135 
L 249.161803 146.128629 
L 252.57204 142.273674 
L 255.982277 138.987609 
L 259.392513 136.263701 
L 262.80275 134.091536 
L 266.212987 132.457434 
L 269.623224 131.344876 
L 273.033461 130.734951 
L 276.443697 130.606781 
L 279.853934 130.937939 
L 283.264171 131.704841 
L 286.674408 132.883109 
L 290.084645 134.447901 
L 293.494882 136.374206 
L 296.905118 138.6371 
L 300.315355 141.211974 
L 303.725592 144.074716 
L 307.135829 147.201868 
L 310.546066 150.570753 
L 313.956303 154.159568 
L 317.366539 157.947457 
L 320.776776 161.914558 
L 324.187013 166.04204 
L 327.59725 170.312109 
L 331.007487 174.708014 
L 334.417723 179.21403 
L 337.82796 183.815445 
L 341.238197 188.498525 
L 344.648434 193.250485 
L 348.058671 198.059446 
L 351.468908 202.914402 
L 354.879144 207.80517 
L 358.289381 212.722349 
L 361.699618 217.657277 
L 365.109855 222.601986 
L 368.520092 227.549161 
L 371.930328 232.492095 
L 375.340565 237.424651 
L 378.750802 242.341227 
L 382.161039 247.23671 
L 385.571276 252.10645 
L 388.981513 256.946223 
L 392.391749 261.7522 
L 395.801986 266.52092 
L 399.212223 271.249258 
L 402.62246 275.934406 
L 406.032697 280.573843 
L 409.442934 285.165317 
L 412.85317 289.706823 
L 416.263407 294.196583 
L 419.673644 298.633032 
L 423.083881 303.014794 
L 426.494118 307.340677 
L 429.904354 311.609652 
L 433.314591 315.82084 
L 436.724828 319.973503 
L 440.135065 324.067035 
L 443.545302 328.100943 
L 446.955539 332.074849 
L 450.365775 335.988472 
L 453.776012 339.841625 
L 457.186249 343.634205 
L 460.596486 347.36619 
L 464.006723 351.037627 
L 467.41696 354.648632 
L 470.827196 358.19938 
L 474.237433 361.690103 
L 477.64767 365.121083 
L 481.057907 368.492649 
L 484.468144 371.805175 
L 487.87838 375.059072 
L 491.288617 378.254789 
L 494.698854 381.392805 
L 498.109091 384.47363 
" style="fill:none;stroke:#f09c7b;stroke-linecap:square;stroke-width:1.5;"/>
   </g>
   <g id="line2d_30">
    <path clip-path="url(#pe6f7edd821)" d="M 92.290909 484.232727 
L 95.701146 481.079883 
L 99.111383 477.699836 
L 102.52162 474.079763 
L 105.931856 470.206689 
L 109.342093 466.067594 
L 112.75233 461.649542 
L 116.162567 456.939824 
L 119.572804 451.92613 
L 122.98304 446.596745 
L 126.393277 440.940768 
L 129.803514 434.948354 
L 133.213751 428.610981 
L 136.623988 421.921741 
L 140.034225 414.875647 
L 143.444461 407.469956 
L 146.854698 399.704501 
L 150.264935 391.582028 
L 153.675172 383.108518 
L 157.085409 374.293503 
L 160.495646 365.150344 
L 163.905882 355.696475 
L 167.316119 345.953588 
L 170.726356 335.947748 
L 174.136593 325.709436 
L 177.54683 315.273483 
L 180.957066 304.678921 
L 184.367303 293.968705 
L 187.77754 283.189338 
L 191.187777 272.390376 
L 194.598014 261.623834 
L 198.008251 250.943499 
L 201.418487 240.404162 
L 204.828724 230.060802 
L 208.238961 219.967734 
L 211.649198 210.17776 
L 215.059435 200.741329 
L 218.469672 191.70577 
L 221.879908 183.114577 
L 225.290145 175.006811 
L 228.700382 167.416603 
L 232.110619 160.372792 
L 235.520856 153.898688 
L 238.931092 148.011972 
L 242.341329 142.724719 
L 245.751566 138.043544 
L 249.161803 133.969843 
L 252.57204 130.50013 
L 255.982277 127.626437 
L 259.392513 125.336767 
L 262.80275 123.615583 
L 266.212987 122.444307 
L 269.623224 121.801827 
L 273.033461 121.664986 
L 276.443697 122.009051 
L 279.853934 122.808153 
L 283.264171 124.03569 
L 286.674408 125.664683 
L 290.084645 127.668099 
L 293.494882 130.019124 
L 296.905118 132.691399 
L 300.315355 135.659215 
L 303.725592 138.897667 
L 307.135829 142.382776 
L 310.546066 146.091587 
L 313.956303 150.002227 
L 317.366539 154.093949 
L 320.776776 158.347157 
L 324.187013 162.743404 
L 327.59725 167.265386 
L 331.007487 171.896917 
L 334.417723 176.622905 
L 337.82796 181.429309 
L 341.238197 186.303097 
L 344.648434 191.232203 
L 348.058671 196.205477 
L 351.468908 201.212634 
L 354.879144 206.244207 
L 358.289381 211.291495 
L 361.699618 216.346515 
L 365.109855 221.401956 
L 368.520092 226.451133 
L 371.930328 231.487941 
L 375.340565 236.506818 
L 378.750802 241.502704 
L 382.161039 246.471001 
L 385.571276 251.407544 
L 388.981513 256.308562 
L 392.391749 261.170653 
L 395.801986 265.990755 
L 399.212223 270.766115 
L 402.62246 275.494272 
L 406.032697 280.173026 
L 409.442934 284.800425 
L 412.85317 289.374741 
L 416.263407 293.894453 
L 419.673644 298.358232 
L 423.083881 302.764923 
L 426.494118 307.113536 
L 429.904354 311.403227 
L 433.314591 315.633289 
L 436.724828 319.803144 
L 440.135065 323.912327 
L 443.545302 327.960482 
L 446.955539 331.947351 
L 450.365775 335.872765 
L 453.776012 339.736641 
L 457.186249 343.538971 
L 460.596486 347.279817 
L 464.006723 350.959306 
L 467.41696 354.577625 
L 470.827196 358.135016 
L 474.237433 361.631771 
L 477.64767 365.068227 
L 481.057907 368.444764 
L 484.468144 371.7618 
L 487.87838 375.019788 
L 491.288617 378.219216 
L 494.698854 381.360597 
L 498.109091 384.444475 
" style="fill:none;stroke:#e17860;stroke-linecap:square;stroke-width:1.5;"/>
   </g>
   <g id="line2d_31">
    <path clip-path="url(#pe6f7edd821)" d="M 92.290909 484.232727 
L 95.701146 480.978116 
L 99.111383 477.481044 
L 102.52162 473.727311 
L 105.931856 469.702529 
L 109.342093 465.392246 
L 112.75233 460.782091 
L 116.162567 455.857946 
L 119.572804 450.606149 
L 122.98304 445.013719 
L 126.393277 439.068617 
L 129.803514 432.760033 
L 133.213751 426.078702 
L 136.623988 419.017246 
L 140.034225 411.570537 
L 143.444461 403.736082 
L 146.854698 395.514406 
L 150.264935 386.909446 
L 153.675172 377.928926 
L 157.085409 368.58471 
L 160.495646 358.893114 
L 163.905882 348.875163 
L 167.316119 338.556773 
L 170.726356 327.968845 
L 174.136593 317.147259 
L 177.54683 306.132738 
L 180.957066 294.970598 
L 184.367303 283.710356 
L 187.77754 272.405207 
L 191.187777 261.111372 
L 194.598014 249.887336 
L 198.008251 238.792982 
L 201.418487 227.888656 
L 204.828724 217.234187 
L 208.238961 206.887899 
L 211.649198 196.905644 
L 215.059435 187.339886 
L 218.469672 178.23888 
L 221.879908 169.645956 
L 225.290145 161.59895 
L 228.700382 154.129769 
L 232.110619 147.264124 
L 235.520856 141.021414 
L 238.931092 135.414765 
L 242.341329 130.4512 
L 245.751566 126.131932 
L 249.161803 122.452765 
L 252.57204 119.40456 
L 255.982277 116.973767 
L 259.392513 115.142992 
L 262.80275 113.891572 
L 266.212987 113.19615 
L 269.623224 113.031237 
L 273.033461 113.369735 
L 276.443697 114.183428 
L 279.853934 115.443425 
L 283.264171 117.120553 
L 286.674408 119.185703 
L 290.084645 121.610122 
L 293.494882 124.365661 
L 296.905118 127.424974 
L 300.315355 130.761677 
L 303.725592 134.350468 
L 307.135829 138.167214 
L 310.546066 142.18901 
L 313.956303 146.394212 
L 317.366539 150.762443 
L 320.776776 155.274595 
L 324.187013 159.912803 
L 327.59725 164.660413 
L 331.007487 169.501946 
L 334.417723 174.423045 
L 337.82796 179.410428 
L 341.238197 184.451833 
L 344.648434 189.535959 
L 348.058671 194.652414 
L 351.468908 199.791653 
L 354.879144 204.944928 
L 358.289381 210.104235 
L 361.699618 215.262256 
L 365.109855 220.412316 
L 368.520092 225.548335 
L 371.930328 230.664781 
L 375.340565 235.756633 
L 378.750802 240.819337 
L 382.161039 245.848774 
L 385.571276 250.841223 
L 388.981513 255.793331 
L 392.391749 260.702082 
L 395.801986 265.564774 
L 399.212223 270.37899 
L 402.62246 275.142576 
L 406.032697 279.853621 
L 409.442934 284.510437 
L 412.85317 289.111539 
L 416.263407 293.655633 
L 419.673644 298.141595 
L 423.083881 302.568463 
L 426.494118 306.935419 
L 429.904354 311.241781 
L 433.314591 315.48699 
L 436.724828 319.670602 
L 440.135065 323.792276 
L 443.545302 327.851769 
L 446.955539 331.848927 
L 450.365775 335.783675 
L 453.776012 339.656016 
L 457.186249 343.466021 
L 460.596486 347.213824 
L 464.006723 350.899618 
L 467.41696 354.52365 
L 470.827196 358.086216 
L 474.237433 361.587657 
L 477.64767 365.028356 
L 481.057907 368.408734 
L 484.468144 371.729246 
L 487.87838 374.99038 
L 491.288617 378.192653 
L 494.698854 381.336609 
L 498.109091 384.422814 
" style="fill:none;stroke:#d25849;stroke-linecap:square;stroke-width:1.5;"/>
   </g>
   <g id="line2d_32">
    <path clip-path="url(#pe6f7edd821)" d="M 92.290909 484.232727 
L 95.701146 480.87612 
L 99.111383 477.261279 
L 102.52162 473.372532 
L 105.931856 469.193981 
L 109.342093 464.70964 
L 112.75233 459.903606 
L 116.162567 454.760258 
L 119.572804 449.264492 
L 122.98304 443.401988 
L 126.393277 437.159516 
L 129.803514 430.52527 
L 133.213751 423.489248 
L 136.623988 416.043646 
L 140.034225 408.183294 
L 143.444461 399.906095 
L 146.854698 391.213482 
L 150.264935 382.110869 
L 153.675172 372.608078 
L 157.085409 362.719736 
L 160.495646 352.465612 
L 163.905882 341.870887 
L 167.316119 330.966319 
L 170.726356 319.788299 
L 174.136593 308.378772 
L 177.54683 296.785014 
L 180.957066 285.059246 
L 184.367303 273.258095 
L 187.77754 261.441899 
L 191.187777 249.673865 
L 194.598014 238.019111 
L 198.008251 226.543601 
L 201.418487 215.313035 
L 204.828724 204.391699 
L 208.238961 193.841345 
L 211.649198 183.720126 
L 215.059435 174.081622 
L 218.469672 164.974011 
L 221.879908 156.43938 
L 225.290145 148.513226 
L 228.700382 141.224128 
L 232.110619 134.593617 
L 235.520856 128.636216 
L 238.931092 123.359639 
L 242.341329 118.765137 
L 245.751566 114.847962 
L 249.161803 111.597908 
L 252.57204 108.999935 
L 255.982277 107.034808 
L 259.392513 105.679767 
L 262.80275 104.909179 
L 266.212987 104.695169 
L 269.623224 105.008212 
L 273.033461 105.817676 
L 276.443697 107.092311 
L 279.853934 108.80068 
L 283.264171 110.911532 
L 286.674408 113.394114 
L 290.084645 116.218431 
L 293.494882 119.355449 
L 296.905118 122.777261 
L 300.315355 126.457202 
L 303.725592 130.369931 
L 307.135829 134.491478 
L 310.546066 138.799274 
L 313.956303 143.272145 
L 317.366539 147.8903 
L 320.776776 152.635294 
L 324.187013 157.489992 
L 327.59725 162.438511 
L 331.007487 167.466168 
L 334.417723 172.559417 
L 337.82796 177.705786 
L 341.238197 182.893814 
L 344.648434 188.112988 
L 348.058671 193.353676 
L 351.468908 198.607072 
L 354.879144 203.865135 
L 358.289381 209.120533 
L 361.699618 214.366589 
L 365.109855 219.597233 
L 368.520092 224.806957 
L 371.930328 229.990763 
L 375.340565 235.144133 
L 378.750802 240.26298 
L 382.161039 245.343622 
L 385.571276 250.382745 
L 388.981513 255.377371 
L 392.391749 260.324834 
L 395.801986 265.222755 
L 399.212223 270.069012 
L 402.62246 274.861729 
L 406.032697 279.599246 
L 409.442934 284.280106 
L 412.85317 288.903041 
L 416.263407 293.46695 
L 419.673644 297.97089 
L 423.083881 302.414063 
L 426.494118 306.795801 
L 429.904354 311.115562 
L 433.314591 315.37291 
L 436.724828 319.567517 
L 440.135065 323.699148 
L 443.545302 327.767654 
L 446.955539 331.772968 
L 450.365775 335.715096 
L 453.776012 339.594112 
L 457.186249 343.410153 
L 460.596486 347.163414 
L 464.006723 350.85414 
L 467.41696 354.48263 
L 470.827196 358.049222 
L 474.237433 361.554301 
L 477.64767 364.998284 
L 481.057907 368.381627 
L 484.468144 371.704817 
L 487.87838 374.968367 
L 491.288617 378.172821 
L 494.698854 381.318743 
L 498.109091 384.406722 
" style="fill:none;stroke:#c13639;stroke-linecap:square;stroke-width:1.5;"/>
   </g>
   <g id="line2d_33">
    <path clip-path="url(#pe6f7edd821)" d="M 92.290909 484.232727 
L 95.701146 480.773895 
L 99.111383 477.040536 
L 102.52162 473.015412 
L 105.931856 468.681012 
L 109.342093 464.019713 
L 112.75233 459.013978 
L 116.162567 453.646583 
L 119.572804 447.900896 
L 122.98304 441.761184 
L 126.393277 435.212973 
L 129.803514 428.243443 
L 133.213751 420.841865 
L 136.623988 413.000074 
L 140.034225 404.712969 
L 143.444461 395.979032 
L 146.854698 386.800852 
L 150.264935 377.185643 
L 153.675172 367.145725 
L 157.085409 356.698969 
L 160.495646 345.869152 
L 163.905882 334.686223 
L 167.316119 323.186447 
L 170.726356 311.412393 
L 174.136593 299.412768 
L 177.54683 287.242058 
L 180.957066 274.959994 
L 184.367303 262.63082 
L 187.77754 250.322393 
L 191.187777 238.105123 
L 194.598014 226.050794 
L 198.008251 214.231289 
L 201.418487 202.717291 
L 204.828724 191.576972 
L 208.238961 180.874756 
L 211.649198 170.670185 
L 215.059435 161.016921 
L 218.469672 151.961944 
L 221.879908 143.544944 
L 225.290145 135.797932 
L 228.700382 128.74507 
L 232.110619 122.402708 
L 235.520856 116.77961 
L 238.931092 111.87735 
L 242.341329 107.690841 
L 245.751566 104.208964 
L 249.161803 101.415277 
L 252.57204 99.288752 
L 255.982277 97.804538 
L 259.392513 96.934699 
L 262.80275 96.648924 
L 266.212987 96.915197 
L 269.623224 97.700393 
L 273.033461 98.970825 
L 276.443697 100.692711 
L 279.853934 102.832578 
L 283.264171 105.357597 
L 286.674408 108.235854 
L 290.084645 111.436566 
L 293.494882 114.930243 
L 296.905118 118.688804 
L 300.315355 122.68565 
L 303.725592 126.89571 
L 307.135829 131.295449 
L 310.546066 135.862865 
L 313.956303 140.577454 
L 317.366539 145.420166 
L 320.776776 150.373359 
L 324.187013 155.420729 
L 327.59725 160.547244 
L 331.007487 165.739077 
L 334.417723 170.983531 
L 337.82796 176.268967 
L 341.238197 181.584734 
L 344.648434 186.921103 
L 348.058671 192.269192 
L 351.468908 197.620913 
L 354.879144 202.968902 
L 358.289381 208.306472 
L 361.699618 213.62755 
L 365.109855 218.926634 
L 368.520092 224.198745 
L 371.930328 229.439382 
L 375.340565 234.644486 
L 378.750802 239.810398 
L 382.161039 244.933833 
L 385.571276 250.01184 
L 388.981513 255.041782 
L 392.391749 260.021303 
L 395.801986 264.94831 
L 399.212223 269.820946 
L 402.62246 274.637574 
L 406.032697 279.396758 
L 409.442934 284.097243 
L 412.85317 288.737946 
L 416.263407 293.317937 
L 419.673644 297.836427 
L 423.083881 302.29276 
L 426.494118 306.686397 
L 429.904354 311.016912 
L 433.314591 315.283978 
L 436.724828 319.487363 
L 440.135065 323.626922 
L 443.545302 327.702585 
L 446.955539 331.714359 
L 450.365775 335.662316 
L 453.776012 339.546591 
L 457.186249 343.367375 
L 460.596486 347.124912 
L 464.006723 350.819494 
L 467.41696 354.451458 
L 470.827196 358.021182 
L 474.237433 361.529081 
L 477.64767 364.975606 
L 481.057907 368.361237 
L 484.468144 371.686487 
L 487.87838 374.951892 
L 491.288617 378.158014 
L 494.698854 381.305439 
L 498.109091 384.394769 
" style="fill:none;stroke:#ae172a;stroke-linecap:square;stroke-width:1.5;"/>
   </g>
   <g id="line2d_34">
    <path clip-path="url(#pe6f7edd821)" d="M 92.290909 484.232727 
L 95.701146 480.671441 
L 99.111383 476.818814 
L 102.52162 472.655939 
L 105.931856 468.16359 
L 109.342093 463.322401 
L 112.75233 458.113093 
L 116.162567 452.516743 
L 119.572804 446.515097 
L 122.98304 440.090939 
L 126.393277 433.228503 
L 129.803514 425.913938 
L 133.213751 418.135818 
L 136.623988 409.885693 
L 140.034225 401.158672 
L 143.444461 391.954023 
L 146.854698 382.275775 
L 150.264935 372.133309 
L 153.675172 361.541897 
L 157.085409 350.523181 
L 160.495646 339.105552 
L 163.905882 327.324393 
L 167.316119 315.222179 
L 170.726356 302.84838 
L 174.136593 290.259166 
L 177.54683 277.516892 
L 180.957066 264.689362 
L 184.367303 251.84888 
L 187.77754 239.071103 
L 191.187777 226.433739 
L 194.598014 214.015123 
L 198.008251 201.892729 
L 201.418487 190.14167 
L 204.828724 178.83326 
L 208.238961 168.033674 
L 211.649198 157.802779 
L 215.059435 148.193168 
L 218.469672 139.24943 
L 221.879908 131.007665 
L 225.290145 123.495265 
L 228.700382 116.730933 
L 232.110619 110.724929 
L 235.520856 105.479509 
L 238.931092 100.989527 
L 242.341329 97.243155 
L 245.751566 94.222681 
L 249.161803 91.905363 
L 252.57204 90.264281 
L 255.982277 89.26918 
L 259.392513 88.887273 
L 262.80275 89.08398 
L 266.212987 89.823607 
L 269.623224 91.069937 
L 273.033461 92.786749 
L 276.443697 94.938253 
L 279.853934 97.489454 
L 283.264171 100.406435 
L 286.674408 103.65658 
L 290.084645 107.208743 
L 293.494882 111.03336 
L 296.905118 115.102515 
L 300.315355 119.389978 
L 303.725592 123.871205 
L 307.135829 128.523317 
L 310.546066 133.325058 
L 313.956303 138.256745 
L 317.366539 143.300192 
L 320.776776 148.438646 
L 324.187013 153.656703 
L 327.59725 158.940231 
L 331.007487 164.276285 
L 334.417723 169.653031 
L 337.82796 175.059662 
L 341.238197 180.48633 
L 344.648434 185.924066 
L 348.058671 191.364715 
L 351.468908 196.800871 
L 354.879144 202.225819 
L 358.289381 207.63347 
L 361.699618 213.01832 
L 365.109855 218.37539 
L 368.520092 223.700189 
L 371.930328 228.98867 
L 375.340565 234.237191 
L 378.750802 239.442482 
L 382.161039 244.601611 
L 385.571276 249.711957 
L 388.981513 254.771182 
L 392.391749 259.777208 
L 395.801986 264.728192 
L 399.212223 269.622512 
L 402.62246 274.458741 
L 406.032697 279.235635 
L 409.442934 283.952117 
L 412.85317 288.607263 
L 416.263407 293.20029 
L 419.673644 297.730543 
L 423.083881 302.197485 
L 426.494118 306.600688 
L 429.904354 310.939827 
L 433.314591 315.214665 
L 436.724828 319.425052 
L 440.135065 323.570917 
L 443.545302 327.652258 
L 446.955539 331.669144 
L 450.365775 335.621702 
L 453.776012 339.510116 
L 457.186249 343.334624 
L 460.596486 347.095509 
L 464.006723 350.793103 
L 467.41696 354.427774 
L 470.827196 357.99993 
L 474.237433 361.510016 
L 477.64767 364.958504 
L 481.057907 368.3459 
L 484.468144 371.672733 
L 487.87838 374.939561 
L 491.288617 378.146961 
L 494.698854 381.295532 
L 498.109091 384.385891 
" style="fill:none;stroke:#8a0b25;stroke-linecap:square;stroke-width:1.5;"/>
   </g>
   <g id="patch_3">
    <path d="M 72 504 
L 72 69.12 
" style="fill:none;stroke:#000000;stroke-linecap:square;stroke-linejoin:miter;stroke-width:0.8;"/>
   </g>
   <g id="patch_4">
    <path d="M 518.4 504 
L 518.4 69.12 
" style="fill:none;stroke:#000000;stroke-linecap:square;stroke-linejoin:miter;stroke-width:0.8;"/>
   </g>
   <g id="patch_5">
    <path d="M 72 504 
L 518.4 504 
" style="fill:none;stroke:#000000;stroke-linecap:square;stroke-linejoin:miter;stroke-width:0.8;"/>
   </g>
   <g id="patch_6">
    <path d="M 72 69.12 
L 518.4 69.12 
" style="fill:none;stroke:#000000;stroke-linecap:square;stroke-linejoin:miter;stroke-width:0.8;"/>
   </g>
   <g id="text_17">
    <!-- Bacteria Distribution with Varying Infection Rates -->
    <defs>
     <path d="M 19.671875 64.796875 
L 19.671875 8.109375 
L 31.59375 8.109375 
Q 46.6875 8.109375 53.6875 14.9375 
Q 60.6875 21.78125 60.6875 36.53125 
Q 60.6875 51.171875 53.6875 57.984375 
Q 46.6875 64.796875 31.59375 64.796875 
z
M 9.8125 72.90625 
L 30.078125 72.90625 
Q 51.265625 72.90625 61.171875 64.09375 
Q 71.09375 55.28125 71.09375 36.53125 
Q 71.09375 17.671875 61.125 8.828125 
Q 51.171875 0 30.078125 0 
L 9.8125 0 
z
" id="DejaVuSans-44"/>
     <path d="M 48.6875 27.296875 
Q 48.6875 37.203125 44.609375 42.84375 
Q 40.53125 48.484375 33.40625 48.484375 
Q 26.265625 48.484375 22.1875 42.84375 
Q 18.109375 37.203125 18.109375 27.296875 
Q 18.109375 17.390625 22.1875 11.75 
Q 26.265625 6.109375 33.40625 6.109375 
Q 40.53125 6.109375 44.609375 11.75 
Q 48.6875 17.390625 48.6875 27.296875 
z
M 18.109375 46.390625 
Q 20.953125 51.265625 25.265625 53.625 
Q 29.59375 56 35.59375 56 
Q 45.5625 56 51.78125 48.09375 
Q 58.015625 40.1875 58.015625 27.296875 
Q 58.015625 14.40625 51.78125 6.484375 
Q 45.5625 -1.421875 35.59375 -1.421875 
Q 29.59375 -1.421875 25.265625 0.953125 
Q 20.953125 3.328125 18.109375 8.203125 
L 18.109375 0 
L 9.078125 0 
L 9.078125 75.984375 
L 18.109375 75.984375 
z
" id="DejaVuSans-62"/>
     <path d="M 4.203125 54.6875 
L 13.1875 54.6875 
L 24.421875 12.015625 
L 35.59375 54.6875 
L 46.1875 54.6875 
L 57.421875 12.015625 
L 68.609375 54.6875 
L 77.59375 54.6875 
L 63.28125 0 
L 52.6875 0 
L 40.921875 44.828125 
L 29.109375 0 
L 18.5 0 
z
" id="DejaVuSans-77"/>
     <path d="M 54.890625 33.015625 
L 54.890625 0 
L 45.90625 0 
L 45.90625 32.71875 
Q 45.90625 40.484375 42.875 44.328125 
Q 39.84375 48.1875 33.796875 48.1875 
Q 26.515625 48.1875 22.3125 43.546875 
Q 18.109375 38.921875 18.109375 30.90625 
L 18.109375 0 
L 9.078125 0 
L 9.078125 75.984375 
L 18.109375 75.984375 
L 18.109375 46.1875 
Q 21.34375 51.125 25.703125 53.5625 
Q 30.078125 56 35.796875 56 
Q 45.21875 56 50.046875 50.171875 
Q 54.890625 44.34375 54.890625 33.015625 
z
" id="DejaVuSans-68"/>
     <path d="M 28.609375 0 
L 0.78125 72.90625 
L 11.078125 72.90625 
L 34.1875 11.53125 
L 57.328125 72.90625 
L 67.578125 72.90625 
L 39.796875 0 
z
" id="DejaVuSans-56"/>
     <path d="M 32.171875 -5.078125 
Q 28.375 -14.84375 24.75 -17.8125 
Q 21.140625 -20.796875 15.09375 -20.796875 
L 7.90625 -20.796875 
L 7.90625 -13.28125 
L 13.1875 -13.28125 
Q 16.890625 -13.28125 18.9375 -11.515625 
Q 21 -9.765625 23.484375 -3.21875 
L 25.09375 0.875 
L 2.984375 54.6875 
L 12.5 54.6875 
L 29.59375 11.921875 
L 46.6875 54.6875 
L 56.203125 54.6875 
z
" id="DejaVuSans-79"/>
     <path d="M 45.40625 27.984375 
Q 45.40625 37.75 41.375 43.109375 
Q 37.359375 48.484375 30.078125 48.484375 
Q 22.859375 48.484375 18.828125 43.109375 
Q 14.796875 37.75 14.796875 27.984375 
Q 14.796875 18.265625 18.828125 12.890625 
Q 22.859375 7.515625 30.078125 7.515625 
Q 37.359375 7.515625 41.375 12.890625 
Q 45.40625 18.265625 45.40625 27.984375 
z
M 54.390625 6.78125 
Q 54.390625 -7.171875 48.1875 -13.984375 
Q 42 -20.796875 29.203125 -20.796875 
Q 24.46875 -20.796875 20.265625 -20.09375 
Q 16.0625 -19.390625 12.109375 -17.921875 
L 12.109375 -9.1875 
Q 16.0625 -11.328125 19.921875 -12.34375 
Q 23.78125 -13.375 27.78125 -13.375 
Q 36.625 -13.375 41.015625 -8.765625 
Q 45.40625 -4.15625 45.40625 5.171875 
L 45.40625 9.625 
Q 42.625 4.78125 38.28125 2.390625 
Q 33.9375 0 27.875 0 
Q 17.828125 0 11.671875 7.65625 
Q 5.515625 15.328125 5.515625 27.984375 
Q 5.515625 40.671875 11.671875 48.328125 
Q 17.828125 56 27.875 56 
Q 33.9375 56 38.28125 53.609375 
Q 42.625 51.21875 45.40625 46.390625 
L 45.40625 54.6875 
L 54.390625 54.6875 
z
" id="DejaVuSans-67"/>
     <path d="M 9.8125 72.90625 
L 19.671875 72.90625 
L 19.671875 0 
L 9.8125 0 
z
" id="DejaVuSans-49"/>
     <path d="M 37.109375 75.984375 
L 37.109375 68.5 
L 28.515625 68.5 
Q 23.6875 68.5 21.796875 66.546875 
Q 19.921875 64.59375 19.921875 59.515625 
L 19.921875 54.6875 
L 34.71875 54.6875 
L 34.71875 47.703125 
L 19.921875 47.703125 
L 19.921875 0 
L 10.890625 0 
L 10.890625 47.703125 
L 2.296875 47.703125 
L 2.296875 54.6875 
L 10.890625 54.6875 
L 10.890625 58.5 
Q 10.890625 67.625 15.140625 71.796875 
Q 19.390625 75.984375 28.609375 75.984375 
z
" id="DejaVuSans-66"/>
     <path d="M 44.390625 34.1875 
Q 47.5625 33.109375 50.5625 29.59375 
Q 53.5625 26.078125 56.59375 19.921875 
L 66.609375 0 
L 56 0 
L 46.6875 18.703125 
Q 43.0625 26.03125 39.671875 28.421875 
Q 36.28125 30.8125 30.421875 30.8125 
L 19.671875 30.8125 
L 19.671875 0 
L 9.8125 0 
L 9.8125 72.90625 
L 32.078125 72.90625 
Q 44.578125 72.90625 50.734375 67.671875 
Q 56.890625 62.453125 56.890625 51.90625 
Q 56.890625 45.015625 53.6875 40.46875 
Q 50.484375 35.9375 44.390625 34.1875 
z
M 19.671875 64.796875 
L 19.671875 38.921875 
L 32.078125 38.921875 
Q 39.203125 38.921875 42.84375 42.21875 
Q 46.484375 45.515625 46.484375 51.90625 
Q 46.484375 58.296875 42.84375 61.546875 
Q 39.203125 64.796875 32.078125 64.796875 
z
" id="DejaVuSans-52"/>
    </defs>
    <g transform="translate(57.6555 63.12)scale(0.192 -0.192)">
     <use xlink:href="#DejaVuSans-42"/>
     <use x="68.603516" xlink:href="#DejaVuSans-61"/>
     <use x="129.882812" xlink:href="#DejaVuSans-63"/>
     <use x="184.863281" xlink:href="#DejaVuSans-74"/>
     <use x="224.072266" xlink:href="#DejaVuSans-65"/>
     <use x="285.595703" xlink:href="#DejaVuSans-72"/>
     <use x="326.708984" xlink:href="#DejaVuSans-69"/>
     <use x="354.492188" xlink:href="#DejaVuSans-61"/>
     <use x="415.771484" xlink:href="#DejaVuSans-20"/>
     <use x="447.558594" xlink:href="#DejaVuSans-44"/>
     <use x="524.560547" xlink:href="#DejaVuSans-69"/>
     <use x="552.34375" xlink:href="#DejaVuSans-73"/>
     <use x="604.443359" xlink:href="#DejaVuSans-74"/>
     <use x="643.652344" xlink:href="#DejaVuSans-72"/>
     <use x="684.765625" xlink:href="#DejaVuSans-69"/>
     <use x="712.548828" xlink:href="#DejaVuSans-62"/>
     <use x="776.025391" xlink:href="#DejaVuSans-75"/>
     <use x="839.404297" xlink:href="#DejaVuSans-74"/>
     <use x="878.613281" xlink:href="#DejaVuSans-69"/>
     <use x="906.396484" xlink:href="#DejaVuSans-6f"/>
     <use x="967.578125" xlink:href="#DejaVuSans-6e"/>
     <use x="1030.957031" xlink:href="#DejaVuSans-20"/>
     <use x="1062.744141" xlink:href="#DejaVuSans-77"/>
     <use x="1144.53125" xlink:href="#DejaVuSans-69"/>
     <use x="1172.314453" xlink:href="#DejaVuSans-74"/>
     <use x="1211.523438" xlink:href="#DejaVuSans-68"/>
     <use x="1274.902344" xlink:href="#DejaVuSans-20"/>
     <use x="1306.689453" xlink:href="#DejaVuSans-56"/>
     <use x="1374.988281" xlink:href="#DejaVuSans-61"/>
     <use x="1436.267578" xlink:href="#DejaVuSans-72"/>
     <use x="1477.380859" xlink:href="#DejaVuSans-79"/>
     <use x="1536.560547" xlink:href="#DejaVuSans-69"/>
     <use x="1564.34375" xlink:href="#DejaVuSans-6e"/>
     <use x="1627.722656" xlink:href="#DejaVuSans-67"/>
     <use x="1691.199219" xlink:href="#DejaVuSans-20"/>
     <use x="1722.986328" xlink:href="#DejaVuSans-49"/>
     <use x="1752.478516" xlink:href="#DejaVuSans-6e"/>
     <use x="1815.857422" xlink:href="#DejaVuSans-66"/>
     <use x="1851.0625" xlink:href="#DejaVuSans-65"/>
     <use x="1912.585938" xlink:href="#DejaVuSans-63"/>
     <use x="1967.566406" xlink:href="#DejaVuSans-74"/>
     <use x="2006.775391" xlink:href="#DejaVuSans-69"/>
     <use x="2034.558594" xlink:href="#DejaVuSans-6f"/>
     <use x="2095.740234" xlink:href="#DejaVuSans-6e"/>
     <use x="2159.119141" xlink:href="#DejaVuSans-20"/>
     <use x="2190.90625" xlink:href="#DejaVuSans-52"/>
     <use x="2260.357422" xlink:href="#DejaVuSans-61"/>
     <use x="2321.636719" xlink:href="#DejaVuSans-74"/>
     <use x="2360.845703" xlink:href="#DejaVuSans-65"/>
     <use x="2422.369141" xlink:href="#DejaVuSans-73"/>
    </g>
   </g>
  </g>
 </g>
 <defs>
  <clipPath id="pe6f7edd821">
   <rect height="434.88" width="446.4" x="72" y="69.12"/>
  </clipPath>
 </defs>
</svg>
